<mxfile host="app.diagrams.net" modified="2021-09-17T18:07:45.767Z" agent="5.0 (Windows NT 10.0; Win64; x64) AppleWebKit/537.36 (KHTML, like Gecko) Chrome/93.0.4577.82 Safari/537.36" etag="qgZkmTBxW6R1q7npzOdf" version="15.2.7" type="github">
  <diagram id="UNN-T1FTaiOugX1B9a-N" name="Page-1">
    <mxGraphModel dx="813" dy="421" grid="1" gridSize="10" guides="1" tooltips="1" connect="1" arrows="1" fold="1" page="1" pageScale="1" pageWidth="850" pageHeight="1100" math="1" shadow="0">
      <root>
        <mxCell id="0" />
        <mxCell id="1" parent="0" />
        <mxCell id="ZgB4RjTYtI7Bv5KJBBch-1" value="" style="shape=image;verticalLabelPosition=bottom;labelBackgroundColor=#ffffff;verticalAlign=top;aspect=fixed;imageAspect=0;image=data:image/png,iVBORw0KGgoAAAANSUhEUgAAApIAAAGKCAIAAAAwhzZaAACAAElEQVR42uxdB1wU19a/M7O9sizL0jsICFixi70mBvXZosbEkmYsMTHGJBqNmpg8NUZNTIwxiQTNI5bYPnvDjqiACAjSOyywve/MfL/Zu6ymGURE1Pm/34vcnZk7d86cuf9zzr33XAZJkoAGDRo0aNCg8SQApUVAgwYNGjRo0LRNgwYNGjRo0KBpmwYNGjRo0KBpmwYNGjRo0KBB0zYNGjRo0KBBg6ZtGjRo0KBBg6ZtGjRo0KBBgwZN2zRo0KBBgwYNmrZp0KBBgwaNZwMMWgQ0aNBoKZjN5i1btiiVykdUP4Igw4YN6969Oy1qGs8sEDq5KQ0aNFoKGzdunD9//iO9hUQiaWhooEVN45kFHSSnQYNGi+HR+dmteQsaNGjapkGDxrOFZcuWkS2NZcuW0YKlQYOmbRo0aNCgQYOmbRo0aNCgQYMGTds0aNCgQYMGTds0aNCgQYMGDZq2adCgQYMGDRo0bdOgQeMpAEmSdXV1Op2OFgUNGjRt06BBo00jIyMjKioqIiLCxcUlIiLi4sWLtExo0KBpmwYNGm0ReXl5/fr1U6lUZWVleXl5SqXyww8/pPM20qBxf9A5yWnQoPF4sGnTJrVaPWbMGA6HExQUdObMmdDQUARBaMnQoEHTNg0aNNoWCILYuXMnAKBbt27wl4iICFosNGj8K+ggOQ0aNB4Dqqqq4I4gNFvToEF72zQeG5SH99mqKhASAYAEoHGUkvqXpH60/0CQ1F8AwCLp+J99N7rG0+1/UKcQwHEVSQIEECSCkICgzkeclRMkQBqrsl+LwDva7wDsuazvto/6/Q9F6nwEkETjj/Y6EGcLSNBYJ/mHhsHWO4p3mw0fGxCE/QzqFMRxlvOmJPX8VMsIx2/Oq0ii8f6g8XaOH+11EWSjRGGNiKP9jguo/5CNVyF2GcF6Gh8CHkDgGwBOaZGIU1B35YM0Ph1CksTdypHGNlJvAbG/CyhuQNofGSERVVZuE1UlOzsb/hEeHv6gakYH0p9lVFdXy+VymrafeBAEgeM4k8mkdfrxwnj5vCnrJi2Hpw9k034hcKKJFV65cgUA0LVrVw8PD1q8NGg8W7RtMBi2bdt24sSJHTt2CIVC+qU+TmAOjUL4AgRBAQIQR4dud9lQBADU7vEhpMNtQqEvaXfVkEZPFnVcBQ+g1F/wZxIgf/C4EMRJHtRFpPNH6CEiTseMdHpof6zcXh+8jb1ZTjfO/hfpLKIorI9EnM9krwpp9L2Re66i/nFW7qifqgpxlhvvhdw9Cfyp6GgLvIqED2W/DnVEF1DH2SQA+gtnAUky/QJZgcH3XAWcFTqfkrxbgjdCoR/tlBR1QmMNjVUgjTEBFEUbCdseSqBeJjxMNQYhSTKAdxLcLmyKppw6dQoAMHXq1GZo2fLlyx+vmqt378BteFDHzqrwKPqjbx2sWrXKZrMBANhsNk3bTza2b9++fv365OTkU6dOBQYGJiUlDRo0iFbxx4Vs78CgmzcAAL7bkhgsFi2Q1kHB+TMIAIwuveQvvfJ4W6IprgJg17+eVlRUdOHChf79+8+ZM+eus06SO3bsmDRpEoPxL/3SY9/Bsyg/ndTrRIP6u816i1a/1sHatWthTp5/VY+nHuiTztnvvfdeUlISi8VKSEhYuHDh+PHjoRVP4/E4243jFLjVSkujFb9jyjFm2J4MmWu12tdeew3H8eLi4ilTpiQkJGRlZd24cWPOnDnffvutw6Nv4/K2O3ykxUyrXqvB6WRbLBba236yOfv8+fN+fn4AACaTOX/+/F69eo0ePXrXrl20z/149KmRtm1WCxvwaYG0DhDK/sZRlGj7Tc3Ly4uPj2cwGMOHD09PT0+yAx7y8PC4cOHCE0HbCIuiEOKZ54/WBKsxemc2m2nafho424nY2Nh9+/bRzE17288WbdsnkVuQJ2BUQiAQLF++fOLEiZSS4HhycvLRo0f1en1wcPDEiRO9vb2fDIHbKYQ0m2jdo71tmrYfirP/xNxnz56NiYmh1f2x0LaNpu3WhH2mGQrwtt9SLy8vyNmUtmDYQDueOHmjbI49SE5727S3TdN2E3D8+PH7cLaTuS9evBgQEEDremvrE5NFe9uPxd22T2wnaEm0qrdtpce2aW+bpu0moEePHikpKf+61hNytsViYTKZdHIG2tt+2p1tknIBcYwWRSvRNpySZqa9bdrbfgx4kmaSEwRhMpmYTGbT8zPYbLa4uDh6bnnr0Xbj2gzcSvdorcojtLfdut42nJJGj23T3jZN2/+M7du3jx079kE39UMQ5NNPP6VXhbW+t41baG+7FVkEZq3B6S0GWqvfdExJo21T2tumafufOfu999774osvmnEtnKFGM3frwJlihQ6Stz5sGO1tt6q3Ta/bpr1tmrbvx9n3n4NGM3db8bYZjd62PQ0hjVbjEer/BEkLopXEbZ9JTphp2qa9bZq2HwFn08zdqt723XXbdPyw9QCnpDVmW28T+OSTT5CWxieffNJmFB2zB8lp2qa9bZq2/4iioqJXX31169atD8nZTuZetGjRxIkTtVot/Q08Km+byaC97cfmArYBb7sVVm20hTRqBo0Rajmtda1nKTVOd7U+8wNwaFvm7AkTJsydO3fIkCEtVefs2bPj4uIuX75MfwOPSp8adwAj6B6tNcnSsTPX46ftYcOGSSSSR2oWOLO1PEbkwoAtSeI2eg5HK8G5LzNN22103bbFYnn33Xfj4uJWrlzZgvY7k8lMTExEUZQgiCci9fET6G3TyU0fB0jwtxtgtz66d+/e0NDw9FMIl+PoqYwmrpDe5r81QAfJ2zptEwSxY8eOR2StkyRpsViys7OjoqJY9OaSLatPdLqVx+Jt2zmbnpDWerTNdtC21Wzi0nv8twroKWlOtDmP8/z58waDgXzE4T6SJNesWTNu3Dh6nLulvW06uenjcLbhum2CXgDWWhTCaaRtE51xhfa2n23a3r59+3/+85/6+vpWuNeWLVtQFA0MDKTnlrcobTd623S6lVZ1t+1mLp3Et9W8bQ6Xpm3a26Zp++5aLzc3t9b48JjMhISEhQsX0qvCWhD0ArDHRNuQu+kweavRduPYNk3btLf9zNJ2S63PflDmnj9/Pr2e+5F423SQvDVB0vMrW5e22XSQ/LF52zRto88sZztBZ2J5NN42Tdut6GzbvW3a2W49CuE6adtIS6OVaZsOkqPPOGffy9xz586lVwQ+rD4xGKSdQuQY7f85QBBEWlpacnJycXEx9BXWrVu3YsWKCxcuwD5o0qRJ8fHxu3fvhudv2LChffv2UVFRsLhq1SoXFxdXV1dY/OijjzAM4zQGaU0mE4ZhITsPfH27EOZKk8lk3t7e69atgyf069dv+PDhznUZS5cuXbFixYYNG3AcBwBUVFRkZmaWl5fTr6mZ3raZ9rZbCXSQ/K539Hhvr1QqV61a9Xg528ncV65cIWmH5eGZG2OSNqsX+2ne+1mlUpWWliqVyn79+gEAjhw5cvToUYPBsHXrVgDA6tWr169fr9VqV65cuXDhQovF0rlzZwDAZ5999sEHHyAIsnDhQgAAhmF9+vRhMBhJSUlQA2Hl9fX12dnZGOYQoNVqVavVziK0A5yKStgBR7cRgrTZbHV1dQAAo9EIO7hz584BAPr27Qv3sV21ahW89bx58wAAP/zww/Lly1EUtVgsGIZt3rx527ZtMpns0KFDDAbj6tWr2dnZrq6u7du3Dw4OpnX7Lm1zONDjs5jo/Ka0t/2M0TaXy71x44Yza93DoLq6urS0tKys7OzZs7m5ueXl5fX19SaTCcdxFoslEonc3d0DAwO7d+/epUuXdu3a/XXTbiaTieO4xWIpLy8PCgqiv5N/hdFkul6QdaPhTjGmL9EpqgwNSrPBPMoTR0gmkircnS1i89zYIn+BLADnd3YN7RLcntvoJrZlkCR59erVysrK4ODgmJgYq9X64osvNjQ0KJXKtLQ0AMC6detWrVqFYZjFYkFRNCUlZePGjSiKwuUJOI4rFArI7gAADofDYrEsFgtcbchkMtlstsUOyKAxMTEMBsPd3R3ePTo6esKECSwWiyRJBEF69uy5YMECJ22H9e/SUTWqTKOYcXZjmb5OZdJ7fz8VYTF2Ych+JF34+0L56tG4QnfNT/3bucPR/mGDBg3S6/UBAQEAAK1Wy+VyTSaTSCSCWYyUSiUAQCwWw/oLCgpu3LjB5/PhJ7lr1661a9dCQ2Tx4sU2m83NzU0uly9evHj69OkkSW7cuNHHx6dr167+/v7PlJ6rzDrjGF8CAUz1QeHuU25ckS/fzV/gGmFwjfANDvH0fyL0vE3L3Gi8evVqamrqrVu3CgsLy8vLa2tr4aGtW7fu3LlTKpX6+PgEBQVFRUXFxsZ269aNy+XStP1okZub6+/vT5Lkw3A2SZLZ2dm7d+9OSkqCEUgEQby9vcPCwgYMGODh4QE7IJPJ1NDQUFlZWVBQcOLECZN9FklAQMDEiROHDBkSFRUlEomcdZaXl3ft2nXXrl2DBg2iP56/RZ2m4WD2xZP6vBRFngW3IQDx4LkEiTz6eETKuCIeg81AMBNuVVp0arOh2qi8WJOzx6AiS0+wMhndZWGD+WGjInu7iVwf71MUFhaWlZW5ubm1b98eADBmzJjS0tLJkye/++67CIL069fPbDYvWrQoJiaGyWReuHChpqYGAKDRaKAJCADAcVypVEqlUplMJpFIpFKpTqcTiUTdu3efPXu2QCDo06cPvNfvv//O5XKdDmtdXR2Px3Pm6cvIyLi3YePtcBaHDx8+bNiwyzlpS1MSTlXdKtfXg14yCeZVZVCGiDyl7kJxCO9emdd4tCvW1mZpqhaW7QFlwGdO58GeUYHCCJIkJRKJwWAgCEKn08HKX3vttb59+zrHhiIiIp5//nnnJ+nsKKGNW1NTo7YDnl9bW/v2228DADZt2jRnzhy1Wh0TE+Pn57d48eLnnnsOAHDz5k2tVhsQEODt7f3EKTlJkpdz0q5YCq/Xl/yrntcYVMXa2vPV2WbcCsoAC2tDev5kQaFQ7N69e9++fefOnTOZTLA/b9eu3aBBg9zd3QUCAbSAdTpdbW1tUVHRqVOnEhISSJLkcDhxcXGjR48eN26cTCZ7uqWEPJaw8Pbt2xctWpSZmSlsboIho9G4d+/ezz//vKCggMfjjRw5csSIEeHh4WFhYc5RwL8FjuO3b99OTU09cuTI4cOHDQYDk8kcN27ce++9Fx4eDs9JTU0dPXo0zdx/RcrtjJ8VF4+VpdtIPEzsPcKvc6wsNEYa4MLi/0tU2aK/WV+cqrhzpPRGnrqCgWDDfDu+IuvdPbzDI21wTU2NTCZDUfTSpUsJCQklJSV79uzh8XgAAIlEolKp3nrrra+//hoA4OXlVVVVNXPmzB9++AEAEBgYWFxcPG3atO3btwMAZs2alZub6+Hh8e2337q5ueXn52dkZMhksh49ejzSRHtqrWZH+omdDamlOgWPwR7oFT3AO6aDa0CwyBO7b3ZenCAKNFUZDcVnKm6ersw02Mx+Atlk19gXInr7uHk0/SurqqpSKpUBAQFSqbSmpubzzz+vqqqaN29er169bty40aVLF2iUjB49+tatW9HR0QCApKSkCRMmAABefvnlhIQEPz+/kpISyO6ZmZmRkZGQ7I1GY9t0j+6VOQCg6XoOZZ6vrclRlraynj8FuHTp0ldffbV//36LxdK+ffuxY8f27du3S5cu9+/PAQANDQ3Xr18/f/783r17s7KyWCxWfHz822+/3atXr6dWWGSr4+eff5bJZLdv3zY0Cw0NDevXrxeLxQiCDBw48LffftNqtXizoNVqz5w589FHH0mlUgDAgAEDrl+/Du+SnJwskUhOnjxJ0iBJrV635tSOHnsX+ibOiPlt7n/T9+SpKppdW56q4r/pe2J+m+ubOGPc8c8v56S1SCMVCsWhQ4c2bNig1WpJkkxKSoL0XFxcTJJkYmIiVPicnBx4fkxMDADghRdegMUpU6aMHDly48aNsHjx4sUbN27U1dU9XplH/m+2X+LMF0+u+b/Sa3qruXlV6a3m/yu99uLJNX6JM1tW5nV1denp6SqVinqteXnTpk3r379/WpqjcjjwHxcXB4sjRowAAHTq1AkWx48fLxQKnfIvLCxMSkq6du0aTJLYRmSuMGnamp4/fbhw4QJUFZlMtmTJkqysrGZXlZWVtWTJEpj5o1+/fhcuXHgqJQaeLM7ev3+/l5cXgiCTJk1KS0vDWwharfa7777z9vZGEOTll1+uqqqimduJPRlnuuxe4Jc4c+ThT3bcOWtoLnn8CQareceds7F73vH9Zebs899WK2qaemFjt75+/foJEyZ88MEHjnbu2QOJ+dq1ayRJnjhxAhbPnDkDuwY3N7cuXbo4SeWEHUVFRW1Z5nPOf5fdUNZS1WY3lK1J39sMmTcPd+7cOXLkyKlTp2Bx0qRJcrl87NixsAg99eHDh8Pi0qVL4fs6ceIESZI5OTnTpk1buXJlWVnZEy3zZuv5s4CdO3d27twZRsK///57vV7fItXq9frvv/8e9ueTJk26ceMGTdvNR2FhIZPJ3LdvX/M4e/PmzfDD/uabb/BHAIVCERYWBoe9a2trDQbD6tWrpVKpRqN5Zr+rH7KP+SbO8E2ckZB35lHU32DW9TvwoW/ijJ6/v6fWa+9/8meffRYcHDxy5EhYjIuLAwD07t0bFp37sR44cIAkyVu3bgEAQkNDL168SMu82TJvcVgsFvhHt27dAAAzZsyAxeHDh8PXl52dTZLk/v37YfHy5cskSZ49e7Zz584ff/yxQqGgZf50YMOGDfAVt2vX7lGEterq6tq1awdvsWHDBpq2mwOlUtm1a9d33nlHr9c/KGHrdLqvvvqKwWD4+/sfPXoUf2Soq6t78803EQSJiYnJz89Xq9Xx8fGjRo0ym83P2keF4/ja0zsDd8zq9fuic5VZj+5GKrNuydVEv8SZQw99nFNWSJKk1WqFh7Zu3Tp+/PiZM2fC4siRIwEAMTExsDh58mRoY8FiRUXF0KFD33zzzYyMDFiJWq1+smRutdkel8wfC+BEUfj3smXLxowZEx0dDd+a00aH3nZCQgIswgjquXPnJk+evHjx4oMHDz65ev7MAsfxFStWMBiMgICAzZs3NzQ0PDoFe+utt1AUZTAYK1aswHGcpu0H87Obzdn19fWjR4+GhrlKpcIfPU6cOOHp6SkUCo8ePapWq1etWtVS0ZsnBWqt5qVT630TZ7x3+SetxfjobkQQhMlkslqtF6qyO+9ZEPDz9KBZgyI7RcOjr7zyCpzGDIsLFiwAAMjlclg8ffr0L7/8kpKS8nTI/NCti112v90KMncCyjzif28eutXmAhJ37tzZunXr4sWL4SL1jz/+GC6Wgwb0mjVrIIvPmzcPnh8eHh4bG7tlyxZnh+M0/tqCnj8RMm+lvkWthvb3rFmzWsewLi8vnzVrFgBg5MiRT5wp/zhpu6ysbOPGjc3g7KqqKrgCZ9u2bXgroqKiom/fviiK/vDDDwaDwWg0PjWW2r+isqZq8MGlwTtf/a3gfItXbrFY1Gq1yWSCDnFaWtq1a9dg5LNGrxyy50PfxBlen48tqyyHvXNwcPBzzz0HI6tVdjyVMv/+0j7/xBnh/3vzUcj8PqgxKP9z7HP/xBnfX9rXPKtLpzfBT6O+QXUts+jC9TyDwcF/R89l7jx45dzVXFj89eCVr385eST5JizuPHhlU8LJ/zuTAYtXMwr/dyjl9+PX6xpUJElqtLqcgsry6gaLnX1xHC8qKkpOToYnf/nll35+fhiGffPNN9TJGg1chv7ZZ59BvWLZsXbtWnj+7t27MzMz/zTa9Uj1/NHJ/IlGRUVFdHQ0i8X66aefWvnWP/30E4vFio6OrqioeNLF2Brrtk0mk1QqhfbOA0GlUvXt21ehUJw8edK5BLZ14OHhcfTo0ZkzZ86aNctgMMyaNUur1a5du3bRokXCp3pX/IrqqkkpGxvMmp2D3uvmHvrwFer1erPZzGKxBAIBQRCZmZkkSXp5eXl6ejIYDNjbwpRe7jyXrzvNOKnK+oZ57MWrX/+v+7yFdtz7Upx/a7S6smq1WmvsHOnL4bABADsPXDEIIgPdWINiOACAr/5PV6kkonwZ0/rxAACLd2hK6vBuwcwFzwsAAF/s053PMRMk8tWLlrBAjxMXsr4854ki5Jrx5sgQrwvX73x70Y3FQBYNM0YEe97KK9+d4cJlgjAvbEw3LgDg9OUci9Xm5+kaGdoCK5I3JP+2rvxYfEC3VbEviVm81nzd7lyXHYPeWXjlx5WFBwwW8/x+E+BCJri67NKN/Oo6tU5nGj2kg0gouHar+FC2VGsmFg4jPd1djiTf3HTRhwTg66m2YD/3Kxklmy75AAA2SdUh/tQr2JfjU1xH9GrH7GvP/3a2ql2JgujNZcJB7PPV4UW1eE8uc6S9eKFUdvymGAAQ4q+TSsSpt0rXnJYDQH7xn+qYdj5XbxZtuSQVcSWefjWhAfIxE6YKvDoL+RwfT1eYNuuNue/lZV2H09zy8/NhKhs4o1ihUIwbNw4A4OPjU1ZWBgA4ePDgnbKi372rWlDPH1LmzwLKy8v79++vUChOnTrVyv05AOCVV14JCQl57rnn4uLizp496+PjQ6db+Xv88ssvwcHBnTp1asa1JSUl8fHx9fX1Z86c6dixY+uLhsPhJCQk8Pn8efPm8Xi88ePHZ2ZmBgYGJiUlPa3ruRUN9ZOvblKadb8NXtze1bcZNcBcYEaj0cvLC6YTKSgosFqtbm5uAoEARVEul2swGPR6PTwfngZXagEAwgKDQ8jgfv6dJp787+Srm2aQQy2kx7gBvhIx/8K1vITr7hoj+fk4PMDH7fz1gq8v+QLA3SRVhfjLKRqoCS++ZesZBiBt51XhRbW4gOPYglprJFV6Umt0ZClAEIDbk6fDtAUkoP4hSARFqR/1BnODjgSAhFt0lFcrU+5QLbTirDHdqF/2ZHsV1uDdQ5jL7R3+gp/VVSqiZxhr/kg+RVdXDaryGxIxv2/nIFeJGCY7+yeJbb28f135sUnBcau7vXT/pdgtuuzTsfuI3kRYcWxlp1lcjLOu4NjpBAFa2yM2iPnhWMo2/eW6W7GC4sXYDlqRUKDWGFLyRQCABrXR092Fw2ZCaeqNFvv34thFxmS2OToXBmI3Ahw3xey3vCdNBPUn2igYg8VxhGuvR29wJLAU8Tl2zdRWqyTVKoDaK8ktqN5bEA0A6Gli9ulC0TMa86GLP3HbxhoKgLu7+8R5m4uKS1x9ouBwOKwKkjcAYHvSjosdba4m+W9DKD2vra21Wq08Hk8ikbSO/NkY86uer0KZ8y6zX+0Z/yzkURk0aFBDQ0NycvJj6c8BAH369ElOTh44cOCgQYMuXLjw5GZlYTzSnCpwj5BmXJucnDxq1CgWi/W4ONvR0WDYt99+q9frX3vtNR8fn4SEhM2bN48fP/6pzMRiMptfTf2u2qjcNXhR0znbYrGoVCqdTuft7c1ms41GI0xXJ5FI+Hw+zF9rtVpNjfsbwlUZMM+G0UKy+VIURbh2cq1swA1mikZDZD47B70z/uR/P9MnB1S/0T1CKRHzCYIsq6cYQKnRBwA3sdDB9Bqdo2YeG8FQ4CTIUE9MwEECZI6coH3Cme28sCAPh8L3DGNIRQBBLK4iFgAg0FM4IqxMKAmQSihf3NtDMqIjy2wlpS4UhXDYzCA5ZrKQ7qJGI8BAtUTEcxSVekJtIM1WB/EcvG6tVEYCAKJCzK4ScOz8rS0p3jIR+tHzNn9vt6LSipt5tV5yl5gw75P51z4tPBAf0O0RcTZBkGYrsBGkXTiI0ULUakgcJ7ksxFNCSaZBR5isgM9GVnd7yYib9hft9cX4Sr3DzhbzUADsMldTZpa7VBQsp6TKZFDXBvu7j2lfg1kU7i7Uw3Zo5/URs5bLZgb5OIIiy8agJInyOI50NBumCxHEwbsAgM2zXAjiLonPH858tR9pttg8ZJSh0DXS+21mpc5gkksp6vWUiQe0Z2mMhJsrpTn1aofZ58J31NagJ/QmkrBbYa6uruyQF13lRI6ONQqAnj17vrjsbEFeptItplqhdhFxcrqw+HLx2qipUM8bGhr0er1QKIS0XVpaarFYXFxcHunG/xiKQpl/WniglKFf0mEc+1Hm7XnMfYvJFB8fX15e/hg5G6Jjx47Hjx/v169ffHz8mTNnnNuT0LQNHnJfr8rKygkTJpAk+b///a9r166PV0AYhm3btq2iomL8+PFpaWnz58/v1avXU5lD7YMbO9Prin7qPy9GGnif06xWa11dnV6v9/T05PP5VqsVBh6pvpLNhjtTYRhmnxAECJJ09/Bx90REfOrzUGhwg4XPxoDQ3u/XaXGTBXBZiICDQecL9uI4TsZIA7/u9cascxurXX9XawYCAHy9pH3CmUIuIhZQhB0R5L6wf4VIyA0LkMOG/XeKELtn27EFzwnubfaLff4QfO4bwekbcbcYGuwfGnw3q3ZUqHfUPXHT/t3D+3f/gxDWTcbq1XoehwSAuktcYJ0e8Qz1dJgIWhMO/5DLKN+0uk5tsnqX1RMiAUU5VzMrfs4IAQB8OKXuvVuJUS7B74RNa9CSUiEJfX0bQWLIffzzv6dngCAoAqw4qdQRVhxIhSiHiVhsoLyBaoyPK8ZlUzaNxUrYwwYOvmRgCLCSNpJikbU9ZlTpldfI/3kIEQDiAACzB1gRBBHwOSJ+EAAgup3P144FNdRz+XlKX4uXAuCQo1Qi7tNFfG+r3CR/GE5i/GVTOBS9+5ACHkfAu5vH29ND5ulx1xnqGh3YNfruhZNH9YgfbNFoDY37xIL+ARVWdmCYRAmAgCAIpd2uEoh0AAjYbLaBH+0aFV0DAJ/H/uDGTr076+PI6UGiaBtOUhJAUICgGJNLEABFgVqttlgsTCYT0rZarS4pKeFyuf7+/iwWC27cgraEjdUoc9X2vFM6m3l9z+lPK23PmTMnJSXl4MGDj70/p3TJnrt61KhRb731FkyJ+MQBW758eZvibKvVOnz4cJvNdvr0abgw9/GbNgzG8OHDf/7550OHDk2aNCkwMDAuLu4///lP165dn5odR/akn1mfd+jdDmMmhfT90yG1Wl1VVVVfXw+zDBIEkZ+fbzab+Xw+j8djMBjV1dVwsxYWm2O0omyeq5+/j4DHNdvIEgWut2A2EnPhU92cxkAa7bFQWDRZSLMNoIijCEjAZgIBB+WwKNcwSOSBIthp1am+HoGRHoESES8ugt09lCURU048j8sJ8pV5yyUsFvOvHPCoweex3SRCp8ffKVTaPZQV4uFoyfie3Oc7kIPameVuFI2ZLVYXsdhdjA7pSHH8+Sxtbh0fQa2nye9sgNjS6x1g45mswFWAQq4ursEbdBQ3cNmIPbxPkTLa6KdSDrQNWGwk0x6C1pnI8nq8XkdymQiLgeAEqFFTtM1nISwmQgKg0lMC57IQNpOq3kYAHmUnoWwmAkMUrgIUyp+BYv29ovaWXKpiVUwI6M3AMLGQJxZyuWxma8q2iWAxMSGfw+M6PNQu7dy7hbCCvUVwY4LxPVmDI6zRHiifx7XYbEodKeIhni6oAb26Pu/Qy0HPjfIZgGIMqRBDEIBxXHCmjGDwXYUYAKRaa7DhBMYWuYoFCAI0Go1SqTSbzXBAR6lU5uTkqNVqiUSCoqjNZsNx/N792R6sb7HL/EL17XNVmX6EKNIj8Onj7J07dy5ZsmTlypUzZ85sI00KDQ1lMBjr1q0LCwuDGXmfLLR8TvKH3D97w4YNH3744fHjxwcOHNimJHX69OmhQ4f6+/tfvnxZLBY/TXnLa+pqB51eGSnx/XXQQgxFtVptXV2dyWSKiIiAW6tVVFQAADp06AA3mbh58yaDwZDL5WKJa72GMFpwmZjBZ6NWG1msoHw7DxdUyEVxgiyswe2DmgBGp1V6wmghWQxEKkShW2nvuf6REnCCePHU2mxl2amBS+Vu7k9HL2a2WCtqVF/evnCw9v92Dno3WtROZaA+Qn83zP7IDqG5i1AxHyVIsqCaKvJYiLcUI0lQorBZcYChIEhOidRit43uOR8U19qYDIqM+WyEJIHJSjIwSshNdN8vVudMPrXuVVnvJUOfNufvZtHtyanfREp8fxmwEMcRnCCFXNS+NQ6u0pMYBgLdKZEq1LjKQN5VWrWmtKKOIGxBQSEiHlpRUVFdXY0gaMeOHVEUqampKS8vZzKZUVFRKIqazWYcx9ls9gMRuYWwTT315VOm5xDV1dWRkZEdOnQ4efJks42bRwEcxwcPHpyRkZGdnf3X3SDbONA2xdllZWVLly5988032xpnAwAGDhz4xhtvFBcXL168GO6OvG/fPjiO+6Rjxe29Jpt5hqQH7NgtFktDQ4PBYID72rLZHAaT5eLiQnVJBFmssHFlET4B4VKpFAVAYyStOGq1NUZc7bO97HFEgKGIuwj1lKBeUsfn6sJHPSUY5GxI2Iz7unEYiq7pOd1CWFfc3vvUdGRsFtNEqg/XHZkWNqC3R4SIh/q5YZCz4bbZQvtIv9o+e87qCLcDg4UysG0ECX/BCcrtJgiyvM5hGLFZdkmSZKA75ivF+GzHu+CyECb2ACH33h4R08IG/Fh/Obs0/2nij+zS/HEpGyyEdU3P6WwGymMjkLMBAG4iLNiD4df4CthMRMBBeI2TGTk8IVfix5cGwRg/TyBiCWRMnqvORMKFEvbXhhL2GY4KhSInJyc9Pb2+vh6GplQqFZzWfr/IAcp4+vQcYsGCBSaTadu2bW2Ks52jnyaTCWaDeKZpu76+vtmcDQCYP3++i4vLihUr2qawVq5cGRYWlpCQkJOTA5l78uTJ//pNtkGsWbNm6NChfn5+BQUFV26nHyy+Nta1swzh23d1JFEGB8WYcHqOUkfUmQQ8WURgUBCfz0cRYKNoArHYSBiX5rAQPhth2PUIQUCgHAuWM8R8h16J+aiAg3KYzQ+x+gtkb0e/cLD42pXb6U9NX7Yqb7+QwX03ZjQs1qrw0jpcqYeDpgjXTsBmK2kjSBZGmT6QmHGCxAlgnxUAPCWU+2zBARykxhgAClmhIQpq8MoGB9tbbKQVf+CA2sIOo4UM7qq8/U8Tf6zK22/CLW9Hv+Av+Jv5wwhCWZnwbxGPMi49XBw0w8SAhwsqFTiGFdgcPkfkxRF7s+yDFC6u7myRJ8Z1M9u/COeOqDaSCadiFRQUZGZmwp3XbTabUqmESQueBT2/ePFiUlLSsmXL2uZgYlBQ0LJly5KSki5evPjs0rbJZHrzzTebzdm3bt06evToihUrWm0ZxoNCIpFcvHjRy8vr3XffvTfYkpube/r06bb8mn/88cfRo0dPnToVFs+dO3fixImysrLU1NR1ZcdkHNEY91ixiwuKoloTWWdgC+SRPv6B9lhf48u1j0kjCAJ7K0OjrcJiUI5gvc7RDTVoifxqW5HCsQTIbKO889J6XG93TQiCVOoItYGArO+YS/VvmB4+2IMnXld27InuwkiS1OiMAIALt65dqMme4v+cxeSYgWWwkmYraWpcAcViUCTNYSEEQV2FoUAmQv1kGANDmBiQ8FGpEGXCFe+NwnNOzzZZKUZonHBGsXhxLV6hdLC4wUzozaTZ9i9ELmbx3+s45kJN9oVb154O/oAy7+AaOD188D+dQ5CkUxvNVlJvIg1mEgaNeGwERYHORFpsJJeF+koxNhOBkmRxeByhO4vvZsOBjSBlnn5ciT9b6IEjHNglwgqtgA1d88LCwqysLOijm83mhoYGo9EIp7k9HXp+Lz766CMvL6+5c+e22RbOnTvXy8vro48+ehZpOykpCW6P+DCVLFmyxMfHB+azbLNwdXVdunTp2bNnb9++7fyxtrZ23Lhxp06dajvtPHTo0LRp00aNGgWLly9f3r9//+HDh0mSTM0s4rq39wiInjBhQgFRn1KbN9FvuJtnBw/vQB6P55zta7T3WZCk7119y2H8kW5JQJKAaCQQqAJO59pmA1YbMFscK3NwEtRpiVo1AddK2QiyoAYvrLbpjIS93wQqPaE1EkbLHxSJi7EWxLyQUpuXcjvjCfq0zBZrbb3GEd44oBu7VrXuMGXNbK5JlrLEz3n3NdltG62Rkg1qj2ZD/7i8gcBJIOFTFpKNAFUqQqEhIKkTJMXE9VrCYheg06jC750ZDoCtsWi2X2VtNJJqNURlA16qwOEiaYuNVOsJg5n8q/E0Pqi3J0+yuSb56eCPzTXJHlzJz/3fQUnHtEGtkahV4Qq1w6CpUeEF1XhZvaOo1BOVSrxWgzcyOiV2hYbSW8ovxyheb9BRb0HAQf3tiwxr1ZQkORyOUCzhiuR6C1qiwF1cXASyEI7Y22hj6oyEk8XNJAe65kVFRdnZ2VqtFur5K379UmrzzqRfeTpc7eTk5GXLljmzMrRB8Hi8ZcuWJScnX7p06dmi7e3bt8+dOxeOgzYbpaWlJ06ceOedd9r+QropU6a4ubk5syLDFQX79u0bP37842Juq9W6ZcuWt99+e+jQofCX1NTUX3755fDhwxqNJvlqroHpK3ALHD58uE6n235Vqg1e1Out5KSkpHJfxIUlGOHVx97X21n5jwFtFuYIITrBZtlH/tiOnwQcxFWASHios+gmRJ1FDANCLnU+E/tj5g37cXhHvDH1hxUnFRqiWkXUNnam9VqKZhq0+OiAnq4c4Q/VF6Ff0jah1Bi0OsqLyi+pmfa1cvRa7Yp9FB2eT83Lq7SZrGRBtS2nrOBCdc5Y34FsjOnCReDidRsOUNQxnd65sIgk7grqr/bQX4K8fxCsc8IAx24KwCJBklYbuDfIYTSTtRqiosHB4kYLWa8lNAaCIEg2xnw9cviFqpycsoInkTPUGt0PR9M3HdXfyCqhZF6VM8qrf4OKVdUYeDBaSLWR1JnJxnCFg54dYkTuyvw+YkfAH05DEcBno86JBZRJiyCuYgFX6Ga2gjodIZPJ+LIwrsRPqQdVStzB4giqtvJNVpIgiE5ALkTZPxafgRWuXr163759tbW1T+Ir2LBhg0wmmzJlStvvz2Uy2VdfffUEyfZhF4A95By0u+bw5s1XrlzZvn07TMTRlsFkMrVa7datW9966y2nkeHt7d3Kq8ISExO//fbb0tLS2NhYDMNeeeWVgwcPFhYWTp06Ne129Y1yXkbK8WFDBgwcOHBfjnuepUtAr9f2rJ/KZrMLFOY7VYQNB1ER1Z+m7Z4VMaSDKJLJBHw2wmYiKIowMCDiIVz7KiwEoVhZKsTYjXTOYSJCLsrnoI0RXYTHRiE9wCKXhTiLDAwRcFAhF4VeIAODy40Qe4wXAQhgYgibAfgcFEMRi9WRxQzeAiYDMVhIEiBSAVNrNezMP3/6ROfCKjQukhJ7Zm65Tm8SCTloayUX+xP0BpPBYORw2LX1mrd+MiSct/GMt73lki+PoiV1FOtqTMS47swj2bxrhTYEkBMi8s8S+beUhR9EzuRgLE9XzO7yAgtOMjFEZLd1EIAgCCnkoBx7ghQEIHwO4sJHOUzEDiDho65ClM1A4XCsVIhSIuU5FnpzWYiQhwq4KJzrhyLUG+EwqZeCIIjZ6pjRJuFTb0RnIkxWANOqMBmI1kB5kHozyWFRjr6MJUu4c7JYpw+2eXi4idvgl0gQZGWtymw28XlcpVq/bLfp57MGouFW+1Bvo8m66oDgThXuRuafY2TcVlcsjqBkThLA1T4j8s9iRyitE3AQqOcsuwaK+Sgc8P4HsSMsexFFECGXqge+I3g+FDuPTX0pJitpsQE2g6qTwWDigEOQAEURuZtIh4uYbBGJsjUGksBNelWDymY8qcmTqwIJrXL8uDFJSUlyubxXr15ms3nlypVarVYmk7X9TlKhULz++uv3OhJtuT/XaDQ//vjjG2+8ATNEPeXe9vbt2xcuXHjs2LGH5GySJLdt29a3b1+4MrjtY8iQIVar9cqVP8SyYmNjExISHp3PnZyc/Mknn6xduxYW165d+9133+3evdtsNn99WMfzjkUQpEePHmq1+o4+4A7ebeAHub/sSPL39w9wsVG9CYmUVNRT7ZQrpvTlLniev+jyDhuJx3lGBXkw/N0Yzom1Yh4q4KDQP4bj2S34FLDXg2OxDJQiJDcRBu/FY6OB7piXK+ZMfQXXKzPtHn8/z2iAEA2MAmdzfrgkmrODsTTJkTCruLh427Ztqampj26SoNVqVSqVAIAqher1raoJG/QJ+1MMJsvrP9lq1JTBUYNEiYTcvGqHSzd7CJ8kEZ42jYECuQv2/IAOh8rPdZK28xIJXQQI9NIkAjTQneHTONkeQYCrABPzUTg8AemEzXBkXUUQ6g/0j8lYEOTuO8JQ6mR249AGn0ORjUTgeLNerlioJ8NfhsHKufa8cijqCLZbnJF2+73YgB8uDrxSVZZeIwUAaPWm6d+oPk7S/u/Q5ccVUsrMzNy9ezcs/nJO//wXylnbyD3H0gEAIiE3p8LWoCPVLH9KqmI+lw0EHITn0flIWXqsLNRDIBRy0X8SO4+NuvBR5yfAxCjSZd3zCfyd2B1FJ0k7V7f/SeyeEixYjrmLMRRFJAKUxQAYSmk1CYBQwGVyHElpRHyep3/7nvIuBMA33ag7c60E2qN7s303H9Hs27dvxYoV8fHxx445Br937Nixbds2Z+rWNoXdu3dbLJYhQ4Y8Ef350KFDLRaLU7WeZtouKip69dVX169f79yKvNmoqamprKwcPHjwkyK1Ll26CASCw4cP/+n3AQMGzJ07d+LEiXCwqkVQUlIC/1i6dOny5ct//fVXAMCZKzkkizJxsrOzGUzm/6VbWOGvBQ98f8evu7p06cKylaEYAyBI1p0KAECIa920ftztc1wCfNwAAD06Bk/ty/V3rcxWF/KZnChX/7YjWAaG8NmUjwKLHi6opyvmYveHolz9uRhLzy6QiRxHazSUR+ssZhWrd1WPXno8KK+4Fu41YrZYW7BtX3x/eNiCE4knKi1W6/TvbKUKgiARvbAHj8OCPhmfjfjLUAxFJY1mR4yngc1i/Gd41z0LXX6a7VKtVdYY1IP9Ir0kmJsQQx5TChMWZQTY2YWNBsgwXynGtBftQRSEgTlY3GwjO7m0MzNrbZxqAEBpZX21mkgtsOYYoih3ql7Zb/Ln81fuzMgpfaStdc6Y+X5//nsHvLblDrBYqdfKNNXAIyZRV7hWEIpdpXeMpG573WXXO5LYUFONQR3nFeUjxTxc0McldhRFWI0ZKb1cGb5umFSAsjDEmzJSUR4bYdrFzmQxO3l2ZKOUnv9nWNfnZ34uDY5juAQdTLPdqXN42J/+eClx3+Xaes3WrVtnzZr18ssvw99bsM95eJw7d04oFHbu3PmJ6M87d+4sFArPnTv3pBBQc5KbwsUMEyZMmDt37tixYx/eG4PrqYYPH/6kSI3H4w0fPvz48eN/+TjRd999NyMj4/XXX9+5c2fzKncmXfr00083b97s4uKSlZVVUlEn9YkG4HxeXh6O41+d90CDX+ofNuyT13piKCrkIkDeTih/L6e4LCjAJ8IDG9mRwdOnh/lTPWzvzqG9/3KX6/lZCIIM8IziMdpuJmQWA3E2jsdgDfKOuc7KG9PJAgCfIMhwT6xYAcRkBQCU4Vhr4EJV9PWkvMOj57MTb4UGyNDlYxiuLnyNVsdgMHncps6c0Or0qZmludXIxIG+twuqjhfIrzX0YHuBOqprZbq7YAotiaGOsWS5GFWixOAY9mj7/mDvDtZJXQRyNxHM3Q1zmgIAruZcQxCkv0dUGzLbUYTVaLrz2QiffXdxrZSPvhDUJaH40BH1npngPXuoxsee18VutZcreVGv5QFw5DazQwSoV6oPpmFsQ1b3DkFBvrKH5Gn4Hi/dyN+f415QbfvhVY6LiCfn6xBEDgCoqFEF+sjc+CbKaeYhIp6jzVDsXu4O2obObkrO5bYmc8Q+NuQsuonu+k4yESbm8fp5Rp+z3Za7Cfs+/yYncpbGQJkng3u3/23Ywoo7KZ693tuRLQiOYMNZsQQ/4NdDKd07BE0cO1KlUr388stLliyBi81gcqTHgpSUlOHDhz8pMWc+nz98+PCUlJSnmbYvXLgAAMjMzPz9999bJIK6Z88eDw+PFkwyl5mZefDgQblc/uKLL/5pHqPVat2xY0dlZeXQoUMfJkHuiBEjdu/eXV1d/acMO0wmMyEhoaqqiiCIBxpzNRgM06ZNu3z58vvvvz9v3rx6la6sAVRWVlZXV6tUqiV7sTJmXMRAxvLXexMEIRehluh4PhuJi5MAAF7owtGbcLYuvUtEOACgZ6eQnp0ATCv9T7jKolyoAd4xLfah1qXlaAuC+X59ZLF/qxWp9RlyjsyP79XsWwzwjjlUes1gMwAgQVFk+QQYXXSBR0M8Rf0tLJWBEAspmqxDI6w2a6kCdxFRp+1Orthz081bavx6hoDFZED30dfT1dlUG47fLqhKK1cNiPSqV+m/vygqrKFIIkxewmRiKXescAqS1kS5+JE+zFoNHhvMhKnO103lcdhMZzs7hPv+k8xlXHE7F++WCRoTthPVF8oNVd5c+SCP3hzsrkVCkESWOi9LfUdvM0SIQnu6dWrGd8plI7EevjKu+KridklNRa9OgWZLnsLI6ywnAGh/p8YxEuHOrAZAeCWjOOmKLwChShZ7tv3pfztdVGsWBXLLh/WJYjCwpvB0xu2yHdfE+dW2/463hvjLbTh+s8RGmfUFVT07BYcHe3oUoYHuGI5TP/brHtY3FrBZjPuLvWVlfh89N+GWaw0ZBboyC27x4XkM8ujFQlnNM1WH+XU4XnG9qqF24Qve9UrtzdyKsqr67h16vfj6x2klVq0BMBlIey/boKlLTh87aZMNTLgZWq6rv3nzpsViOXG9wftwdt9Iaf8+Xdzc3ObOnQtTij5MBtZmBGKLioqWLl3aIrVZLJadO3fev8e+cuWKSqV6GMdvxIgRu3btKioqCgwMfDpp+/nnn4eSkslkLTKzNzk5uV+/fi31SOnp6fPmzfv999+3b98+adKkAwcO3Hv0lVdeee6552bMmBEXF5eQkNCjR4/m3SU2NhYAkJub+9fEeEwm08/Pz2KxsFgsBLnfphBwNt/QoUNXrFihM9rOnLvUoKi6cuXKvHnzVu3D07QdvWPGLJwehyBIkByrazcEDR8yfrwEQZDBna319Vxfdj4AFG1PjYP+3ANsYXtNkU/1dK4BLSLzQxWn7uhKXg2a+EX2d1XG2gn+z9979I62aHvhnnO1V9d1XvIwtA1bm5Kb4S//m164byePvvfsEBstrQJdvUnCsetDucmLAFYrDiBnlyhsb/yM8NnK3j6Vo2JFGIv77Vl2ZikPAB7TcKdDhB/MMIoCslbPHhor97lu83LFgoTVL48IBQAsHvOHfUru5ez7y7yne1hLzRVYnfVND1nn6UHjd5cdWX5z/eedFjsPZShzVmdvXtfpIwbKfDVl8YftZ/eSdWmWX4j0dA87UJKakpsxIW7kmKF3KxnVy99bXFLaQPaPpsymQqPjjcjJHAC6EgSZdENssAA2029EHPW8Ww/kEmwPb1bx8wM6OCvZddmQnG0VcJDPp4jsE8EYmaUUJd/Kqwjxl7cP9Q7JxIPlmJBDuZtRYT4/hcHrKDuM2TRXsmVlfh89319+PEudt6DdTJVF80X2t+XG6leDJz28nkslwgE9wuHvH4wREgRRXFFfVasSCUOnvzJTFvVSXhVOksCDoxj92tozJw/rhLG/pXuUFadU2PF/6Tj7aF7XYGaP2E5SqbRHjx6//PLLo57CCRdTdevWrUVqmz59+siRI6dPn963b9/ExMS/9thVVVWjR4+Oj49/GNqGrb106dJTS9sQcP81s9lss9keRg+MRmNRUdHs2bNb6pE2bdr04osvSqXSWbNmLV68uKCgIDg4GB4qKCg4cuQIVNwXX3zx+++/bzZth4eHczic69ev/5PBQZLk+fPnv/zyy8TERKHQMevkxx9/hDP41qxZg+PE0eNnbt28zmazSyvrX/8Z4QeOiIhx2IxhnsTtgJ6uAT1feoUlFgs6eRbwWO4enHKcEDMwbEIs3FKwwz+E2YnV+/RqPTmhY31szN9ooc5kKNPViVi8YJFni8j8p4JdqzstEjD5o3wGr8769k+0XW2s+zh63suXFz5k3xks8mRjzBxeQ1NO7hsbdu+mKIMCq+UMnCnyu3Atr0/XsL1XTQAAvRkcL/AScGs7BtgySx2+SD3W3t+bFSw3hnpivXwVsdGU8mx94y5hPIzMX2nXMhnsKwzVl+vSlkTNRRH0Be9B3+UlVhiqvXkOCzLSJXRrt8/FLKq1QQLfGlNds2/UyS34QEnqX2UuEnD7dw+/aw3HCbp6VBSU1g7qEQUASC20woQ8wXIURVG9wbz3lhsAOBPzTanV6oxkuBcD15UUGbwLanAOE8FxAsPQ0AD3cC9dgDvm5+kKAJC6CDbNcERS/t4Ps9r+e8DYajK/v54P9+r3gs9gLsaRsMXRknB7TKjl9RxF0SBfGRyGGBzFHRzFhUTuKooW+XRy7/RyUa0NJ0B0iPvQlz69dvFYFR6844ZbwZ3zajsa9OiW/bkRXsiuhE0pKSmDBg364osvHqht/6rnlNWYkcHhcMLDwx9e4Pn5+YcPH4Y99uTJk//aYxMEMXfu3KlTpz7k0D7szzMyMtr+irUW2LgTx/GePXsmJSUFBDTTbysvLycIIiwsrInnL1u27NNPP0VRdO/evc8//7xCoejfv39ubu6nn376/vvvQ6WB8QCRSCSTye6l7du3b8NtfAAAgYGBfx2cbjowDIuIiPjTZPI/ISQkJCUlxc/P76WXXtq4cSMAYN++fQcPHgwJCVn9+eeT1mu0gm7B7VlxcXE+HhIMVbWPX9PBnzHN7nkEcctj/AL8uOUM1BcAMLovfISIprSttl5zMZcAAGSVifvma1/ug3u5u/zhY6goIQA5zKdjU/Z4thK2Remrr9dnAgAmBYyaHfoS9RZufnmm5kpPt86fdXjPiJtqzfUylhQA4MGR1ZnrTbj53phtX/dY+2Ik9D4Lj5skcxQNEXmW6BqafglJkoVldf7ernweu8Tskn7FRAK3nwPUff2UZ7PEMFlbid5LXH4bBtvfjNO90MfvXGpuYbXMYCaHh3PttqkFJ4Bzs6mHkXmgUN7Elv9YkPRz4R4EIKs7Luol66Iyq9+6vqxMX/la6OSpAaNL9JVubIldpIDP4LmwhBWGGidts1EW3Ly5wlBdqq+A8m8eYIP/VeZCPqdnp+CenRwfWucAbONk683cMpZb5OZj+uwK3PnqrxVYEQBuV9oAkIt5eLQfw1+GfXvCyGUgbiB3+dhQsUgAt0P9V9ypJi/mWltK5k49l7GlX3ZZ4s/3ztUUvHtjlcaqb4qei5lCE27JUuel1KVXGmrejXitdfQcEjkAIL4riO/Kte8MpHYRRhu4EQF936qst9kI0KNj8IiXP7t+9TxXEnAgR56vxS5evJiRkVFv4kfE5XcMZH35+ZKamppRo0bNmTPnIfsW2M1GREQ0JSZfVFT00ksvXbp0CUXRffv2wf48Li4uNzd39erV77//fm5urrPHDgoK+muPvWHDhvj4eJVKdevWrYfqW+z9+b1JtJ5m2ubxeIsWLYqLizt37lzzmLuujnIFfHx8mnj+J598kpaWdvz48d69ewMAZDJZ+/bt4+PjIWfDTe+dGsPj8e5dDqTRaJiNO/TyeLyHTBETHBz8p9dss9nS0tJSU1P79+8fGRlJEERNTQ0A4JtvvomPjz9ZE5tv6yRyvd6xY0dAkihGRjy3yl2ErpxD6X0Hf4YVB5096uBmxsPiooc1maf/BE93lyldCnZnuJpt5Lnb1isF4IWIvKlDAthsB/GUKaoAAD3lTaqciTJWRL8z7dKCOouyi8Qx/6CTa1SdRbmqw0IMxbRmQyMrAzbGsveA1ntpuwURIHTPV1ff/xyTyYxiaEOD+vdLipMFHgYL9t//VOUVVacVOMjgRlbJiH4xMVkaKw6iZYoxfbxqGgLNnMp6Y8Co3pSRlFcNSARUqQlPdzEA4OCZm9tuBMlE6Atd2eN6cKGN/6cI019l3rudfni7hph2vvfK3JPX1CWO04Mm5GmKrjakR7m0AwC4sMVBfL84WbepAaMBAAbcgCF3G8DB2DbS9qcalGb18syvPu+02I3d/HWVsMFluvomnn8+NS+z1FaL+y58XhwaIP/t8NWD6ZSvPH+QQamo4Ik8DmSJeWwk375Grm84463hwtSbRR8fguvC/duH6sUiwcWbNTkl6nAvJDY6gM36xwGI9r7MKV2U/6rnTZS5U8+lbLE/39seqPCXsMT+Ap8m6nmloTqlPj1XU2gmLFqbzpUtfqR6/k+A28VO6cuaYg831dRrZJLIOiQ4Zshb2WU2G0EGydHKzv1L1XyGZ++kDNcKE/PYsWO1tbUKk8A9qFuPTiEL57/B4XAiIyNfffVVqVT6QH0LXIrZRFc7MDDw/PnzL7zwwvHjx3v16uXsz0ePHg37c41G45xYx+PxnGnmINLS0q5du5aYmLhp0yYEQa5fvx4SEiIWN1PsISEhzwptAwBgputmM7dGo6FUTS5v+iUbN26Miopas2bNZ599lp6efvv27YSEBOdRd3d3Z8BEo9HcW7NUKm1ocNiwWq3W2/uhJqp4eXmdO3eutLQ0Ly/P3d09JiaGJMmhQ4eazeaPP/5Y5hX8/XkBz8XHoq+LjAgbN25cn3kXfHvObjfg7V3vSSjmC2TmVNg6BzhewacvimD0sUXe69RhwYM7q366wDifbbVYwe6bbueK9S/3rBvYxcu+NSElhAiXpppKQiZ/fvjMpTfX/ljwW6w0xoib/1dycG2nD5ko1XgXezBWjxvEQGi0mVgYU8B4VDNI5TyXKzW5f3vIhuNXsup23+AUVOML+tegADmQI4dpu7PK9LFRgTtuISEe6KBQbb8OYQCAlZPuCjyQxw30uTv/uXeEEEPr9JgXnAReSYQDYFFoCIOyAoAQmw2fvFHt64aN6g76txP/k8zP3DKfzeINitZN62GRublCmbtxhE18UgRB3g6fOeXS/F9LDrweMvmOtqhUX7402uEMiRhCjVXvPFlvM0r+SBJaq/6jzDVvh88IFwU/jMBhg+tM6n86QdGgvZZZxHQJG9yBAwDYlSm/Q1GyNT27qk/XsC52sYd5Yp5icnj37pRTGAeMRtOt/KrscttI+1hPVoXD4OCwEOg4br/MLqt3Q26CHaFWNot5MaOmprqsU3v/e99R0/W86TJ36nlKXXp3t44HK07UmVWrO77fRD0PEvoFCf0AAInFv6/J2fJ11xWPQs8fuCoppeFT+nBBHy5JkiaL1WgwRvqudu1lKVLYSBJIzDfaxw7RX71mEnf/KT2kUKXYv3+/xWJBMaY0sOfg3pHXbqYe+PXXHj16vPrqqywW6/4yh8mem76FI4IgmzZtioyMXLt27WeffZaWlpabm5uYmPi3PfafvLvExEQcx2fNmgU3aykoKEhKSnrI/vxZoe2HZG6DgbJhH8hECggI+Pjjj5cuXTp16tTZs2dv3bqVw+E4jw4dOvTy5ctTpkwpKipiMplwDP73338fOXJk165d6+rqysvLfXx8rly58sILLzzMU7u6uqpUms7d+xnUNZMmTfp2yw/H0/QSn5jaohsFBQUWG3m9mOwx+xRXIN06E71zO3PO2r3ePd4yW8nSyno/L+mkrqZDmgxQD0rL2/v5eJaWV+0/nUX1awOpIgBg7/HrFdVKbw/JWPtUoPsXU9ILrt4scl4OaxMAMHdQu0NZosIavFZDrjnGOZ6jmdHboDFQZo2PQNr0h+3n3u2NkMlb8n89XnW+SF822meoD88xLs7FOJGikFx1oRdXnqcripN1QxBEY9XdVud3c+t4dzyFJEjwsBMYJSyB2mLclHASPvjhy2XJBeJiBR7ELRjazfu/R9kAUG7c3kuqOeMiEARnYgibCSp0Xr2Yll0LBNU1dftP3y64A7rFBHbvGHwfqU5/7m7RKOw+rhe7qp7wlvE2JZw0M+Vak3d2Od7etS4zJZUl8LlW6xHpg7V3KcktrL5X5iSJnLxpuXQbGRudr0OoLl7EeoD8Vh5c2czgid/n/zrMI25t9tbF7Wc7JyeHi4NVNo3CXC9jSyuNtQyUESKgvrtztSk93DozEcbqrM2zgia1F4eprdpLiusjvPo3T+BCe4PvlTnFzUdSqxVqWPzmJEjJ93HhGzU1WWOHdmnnhdppGySdr/fzqAr28/xqsuLQ6evnrgKJgPEnPZdJJaXlVRpUHiwnXXjI4HZ6FJXsu1Bc1kAxjacrKhHx9h6/npgZZDQHsW6CPe/gB06lV1QrXcX8cSO6slnMpuj5A8m8n3u3btIOX+VuW8v7aFfpkW3dv/DiyZui55cVN7x5cj+7mw5IwEKYLajnTfze/7UIL+eyWcrU6+Es5ZDeoX1jpCjopGB8y+7lSHLgxqjxix5WknNRGtxvb0H0/5UASd7BxMTE3/YcbNdxQN/Y0F2/JWVm3pLIA+YOeu5PMh8SVB7XLUytVv/JR//X/nz58uUfffQR7M+3bdvm7M+7dOlyb48dHx8Pf4f9+bp165yh8uzs7C1btjyMzKVSqVqtfoZo+2GY22ajbG0W68EWS8yfP/+nn34aMGDA1KlTu9uteCfmzp07fvz4Dz74ICMjIyEhAUbFZ86ceevWLS8vr02bNk2bNq179+5Go9G5I1bzwOFwLBazJCTWoD508+ZNHCd/usgOfWHzqGCPDTOk9mxTRsB3w0lQUW+NjY39dL5wcwrl/VXVqvy8pLV1msPlnQEA3eqUfj6gqs5wb5H6MmtDb5bbYlDGWPDvxTsaz8Plkr/WtjxGuWm6cNuhO3tvUZ5KRqltQTmL7esOABAwHqA7QxBkSuCYckP1xtyffXgem2NX3Xt0QcSs/2ZvKTKUZapy3498g7K4TfXrc3/61W0DXDNzTpFaaajeVvBblubOVP/RDLSZisfBmDbCdri8cwzKqDup//0qHwBKf9KNQWM4OI/l2JqswNRO3VC/5RVJpdKyfB/rZLa1T4DKz1PqFIskgNMdNFnIfuT7Y/j2vrIWXt4jhFmvI3x8/dbfhHMDifIGwrVX0OFyyuHogDH6RGBDYlj7rppq1KTBQiZed22Q6IAIMB/wwcf5jfi/ijNzrn08zKtfhPjuzCwRU/BOu1krMjf2lHVOq8/6OGoerHl11re/9PoyV1N4QZGa2nATBnKnBY5ttpKz7NU6ZT4WgO9P6n9PoyweWAwS1qQAV5WeTKkNHQvAxG54YQ2WXYHnG9tV2VXx/npeVWc4cp1tdwc5/TtThuDlYldA2mRC9JVeJvgKjGbqFbfzZDAwDL4RUA5OV+m3veHSFD1/IJkjCPJ2uxkvX3n39asfLo5808nZ/6rnFcaa7wt+HeTRq0hbWmdWvRMx66H6lnv0/IG+9/sX/1rb6DiBfUM/DQAg0ht7Lc7oIe18VZlQWoeTOEXkYV6MqhySyZOKvDusS/b49aa+6uD/s3fdcU1dX/xmh5ABhABh76GAIFNQUVFcxQGIA6QOrLN1tXY46rbuurVuW61Ii1ocuFEQGbL3kk0CYSVkr/f7hEdTfmoVkF3OH62PJO/d933nne89955x7f79+wRNs/uPZhxbSFr6/S+vCoTqRu7pwDK9XOd6Bk8sFrf1o9ppzy9cuODl5TV//vy2IehUKvXEiRPBwcEjRozg8/lKi71o0aLs7GxdXcXr1tjYeOfOncrKyk9M32qx5+L/Fm23Ze7ExMR306I+EFIBh7Z1KBwdh8Nt3Ljx888/d3J6O7OFRqNFR0c3NTVRKBQ48aO6utrOzo5Op8PPe/78+UKhUBnd3WmRSqUIJMrce4PrjO+vb3RAIBAqWAA0TZv/rs1lQkMU1kAtKbAoAICpiSHojYT+6LSauApt0OLpIiAw0hLDg5pfC4EYkqqAjs2W5pv43al+ak40RiP/L97Emmx23m0vV8pfZBoI/6WSzxinPQL+t5umo5um4zefEKQDC1cor2TzlaX9tEEBAP+UeIPEnK+9IY4Y//OT1kx9A7pGdU0xAF1fT2aSZa2bg1lCWjGcgGeug6phy8z1Whd708uk6WVSHQqyhi2HQ7FwaISpBpkhBTIIQiI6xJrYz039d2QdfXet+zO9cZPoXhwJd46hL7zhWidqMCUZULHqnjTnFxNudMmdylqLlP3zbr4F+3hH8qtKZCmrdR1FU0MNjeJ8+nXp6shRw/6xIWoExEwHYdstJAud/9PA/U80/HjC9+p5RzE3UNWdqDPqfvVzU+LbNZs/oOcBhpP9DCZypXwimoBEfGqGlRSSdW1X5XaRAQphZaLTUrKeU1EvR6CxoR5scx10vsYilvkuqahZATsdlc3mAQRK3dB1zz2MTTr3bvhpRkm6uomn++K/zHRQTvTayyiUTCbr0KVxONymTZvmz5//bmb2uxYbtudKilFXV3/06NGn375UKu2x1PZPFMQndtt8V548eeLq6tr+Aj2RkZGzZ89uaGjo0Dq5VCodPXo0Ho/Pz8/Pycn58G/j4uKsra27vOD5pk2b9h06NmFLmQoWXF2p0hK5ylPBouhU/IdnICgUqqOrC52TwtKaC3EqaaWtdGKqhVrg2uBib3Ii8upeztP4Gft1VTuGycnCX3PZRemNub+47bYmm38Ic1ayu6bjp9uvtiIQQz/E/36zLHaKaM8it0YjPeqj1zX2xngrEzoG08vvm7JmyKVofljcP4EzKCQkkyv+zqNFlxLuZs86TurImq1MLluZtBmDwlTwqn/z/PnDQQPZ7AIDgi4ZQ+zC+2oWC4aGr0LKcTYVO9d7Mcd7DmE1NMOw25jpolA9TS1lFYxHaZwKvu4U+2Y3G4WzteBEI1wQ/v+ol4r8aTb695jbezlPO4p5rbD+65SdIrnYRNWgbTZ8j+m5YhaSHnEh72nu7ON9hCckUunrzLJGNk9bj5r/RngxDiMTc3EkHZlEFL13qETQaOq11m3mFlsDtKtOqf9kz1WrVu3atatD9nzUqFE4HC4/Pz8vL69X7PnGjRuPHz/eL9bJu/6t8/b2JpFI7XediUQiHP7dMf44eRLOvufxeDt27Pjwlz08PLqjSQmTyaRqUDd9Jj4W0jpHMddT1aPhP3rrMplsxYoV3drlk83hnnzQuO46BuZsEgGEenCOLiTBqZYaJMVb8YbD6NA5Iyqi0htyDg3fbEM2259zVg59aKPag+bU5bYMhwZCOV9Thbj5M7GznTFNgzTPx9zWUr/XORteXIUx/zP+H852NUd/7SPGtWjHcF1NAECjmNsxzCuj7DVsfrRbw5cJL735SKuDoRTLruVs5YApGGKwM2uoGQ0AoIS95zkbAGBkQA/1tdo2mwRzdiObz2uTDkLCt9ZVqedCFBIB1vOOYn447/wyi+C11qEv65J/yj7Z83oOAGAJOOq4PtSmGoNGj3A0mzLG3slCb+oIbW8HdRxZ4eyiMLhxGws8v3pp4Pp5I0+eVyUhoQVUKrWjzUZPnDgxatSoa9eu8Xi87du394o9r62t7dCW/ICi7dbHjMEEBgaWlpZ+9JvwA6iqqmr/yUtKSo4dO7Zx40ZdXd3t27cfPXo0PT2957ErKyuzNDMYbkHRIHU4/GTOnDnd1yuMzxd+eVkamQxJ5QCJBFPskb8sxPiPMVbaWV0NLQBAEqsDrZSja+KP5F1cZxOKQaLXDVlS2FzyV9WjnlZWJKJJ1mRE1qDr0Prai/Qu5mcWQNsCyWOG08PXkXfPaJ5kSAYA1PCb2n/OakHtH+VRn5v4a+LUl5jPCS+7V9xc1sP3BQ/YXEMjyMeqr8Fe38RdfUXMFUJwn/Ip9sj9wcjRQ7DqqghXMzQKhYT1vEOYR9fEAwB50JzcNR1H0pzvVj/reT0HAFTw6tqfK9jzev48VwKgVswvLEFvn6se6I4ZboIOHq3i5uqip6dXUlLSOXu+c+fOI0eOZGRk9PytlZSUtD8PeWDSNhKJnD179ujRoz/K3HCClrLPVXuWU0JDQ5csWUImK+zg0qVL1dXVly9fLpFIehi7goKCTnc/c3FxuXXrVjcxt0AkbeIpXIRhhujDs8VffqamRvm/jXwTHYV2RjMy23nCOlHjgdyzC81mWbXssFqRTEdpuZ4qvFr7CeW3OidvOEwjIq0PvkjvYm6oS1V6Ko5DjIZoa7VshbYXMZlctjfn1DR9b1W0wuuaru9DxhD35ZyRyqU9eV/wgPsm5s1i3FuYG2lRvptBvLZafcN0olLP2485rOdzjVvDlReZBQIABvX8w3quq6U2zt1mhd+QXXPJPi1JgGZmZvn57c1eEwqFixcvXrJkCbwwvnTpUg0NjS+++KLno8Py8/NNTU3/07QNR6gdPnzYy8uLxWJ94GtaWlpEIrH9s7MTJ05ER0criwwjEAgIghISEo4f79F9ILFYXFVVNXLkyE6fofv6c1PViYcXkPfMI/0UTLY0eU9soAGNTkTj0+pLxO3gAAiC9ueeYUs4bSNypZCMLxUcyDvXo5jLpUx+kzFZvQ++SO3EvLLddUv+qLif0pClDKVCAAQEoBxO4R8V93uUtlsG3DcxN9bC/Bvmrb3gOoK5Us+Vi95QS9L/oJ53SM8BALa2tlVVVe3hXTabPXr06GfPnik3VREIhFwu7y17bmtr2y9ou3s7uwUHB8fExMyfPz8yMlJZnuxdv9zMzKydpekEAgEejz9x4oTybOnp6fBeCBKJVIYF9YyrDUFQp0u6wqLsz11SUvLpke1txUznQ08WgUAYk7SyGstLODUfbY7EENR6ajp5ajoBABrEbA0spVZY76k53FNzOACAJWyg4XtoNa+EUwMByFzQR/ef2oN5blNF+wy3WAWF/8bmC2XEfjG37Avzua383YN6Dg/4v4C5Us+bJa174TWCOmX6w6CetxNzAIClpSUEQQUFBR9lwezs7NAWUYYwp6en7969W+mP9bA9b3+N7YFM2wCAffv2+fj4DB8+PDIy8t9IzsnJ6d69e+05m4qKytKlS9/yWeFmXD0sr1+/BgAYGRl90lrH3/25g4KC/vjjj54JL4fFSk0vq7E8o6H0o7StS9CeRpjwfwskeOo0/Qk9j3lGQykAYKihOeifYqWm94KZ0x5jhEVip+mPb/sXa7LZJ9Y764RAEJRQW/gfwfxdPR+l5dorY+7veg63YE5KSvoobXu0SF+w50lJScqR933p9lhQCoXy8OFDb2/vD+xz+/v7M5nMzMzMfqSa9+/fNzY2bn96+r8J3J8biURevHixJ8fvKlaM/FlVRj/C/FlVhr4q9b1dO/uFuIp1WAJ2flNVfxlwflMVS8D20LYexHxQz9svJi1y//79/mXP4WEP0vY/zH3mzJnDhw9/8cX7C244OjqiUKh+9Jj5fP69e/dmz57dJWfDYDC//vprSEhIlzQvb6eMd/RAI1BPqzP50v5RGIgvFT+tzvSm24J+K+MdPZAA8ZTRb6ZKTxkZSIDY6jR7EPNBPe+QTJ069d69ezwer1+Mlsfj3bt3b+rUqf0F3p7LvAwODn769Ol787nV1NS8vLwuX77cj6ZmfD4/ICCgq04Ib+2IxWImk9kzIZQ0isZa+2l8qaj98eS9K9GMTL5UNJnUj80ZjaLhrm0VXvyyy2scdYdAEBRe/NJd28pa3XAQ80E975AEBgbyeLyoqKh+MdqoqCgejxcYGDhI2+93K3E4HARB7ybjr127Ni8v7+XLl/0CtdOnT5uZmQ0ZMqTLDeWOHTsCAgI+seV7O2Xl0CmGRNpvBc/6Bea/FTwzJNJG2Dj2a3M2g2pfzGG+rivq+0N9XVdUzGHOoNqDfi79CPMBo+cjR440MzM7ffp0P7Lnn5IWNJBpG5aUlBRnZ+e39rlHjRqlqal59OjRvg9ZRkbGs2fPvvvuu+6IctyzZw8SiTQxMenWGmqtzx6BnKfh/JKZl9tY2ccxz22sfMnMm6fh0mORpd0k0228NHDE83mP+/5Qz+c91sCRptt49Xfa7keYDxg9RyAQy5Yte/LkSd+PWMrMzHzy5MmyZcv6EebIXpmIHT58+K0INSwWu2nTpoiIiOzs7D4O2d69e8lksp+fXzctSFy5cuXrr7/uvhpqbSXIwYeIxp3MvtvHMT+ZfZeEwQc5TOjvFKKCxwdpuEaVJxf07SCpgqaqqPLkIA0XlQ62curLmN8qjR/U8x4TuILKnj17+vg49+zZQ6FQlixZ0o+wRfbKVeFKLG8xd3BwMIVC2bx5cx9fTgkLC9u6dauKiko3XQKDwaxevbr7aqi1FQqJvJDm+VdZUlZDWZ/FPKuh7K+ypAWaHhQSeSCYMxdfIkZlf/rNvjzI/ek3iRiVJS6+YEAIjPmal+cG9bzHhEKhrF279vr16ykpKX12kCkpKdevX1+7dm2HGln9R2n7vcxNIBD27dt3+/btLunC1h3y6NGjlStX0un0zz//vLuv1a3VT9vKMvfpNDz5x6TfP9wyobdEDsl/TPqdhicvc58+MChEjUReqTv2QWVqDCOnb44whpHzoDJ1pe5YtQHBH0rM5QAa1POelHXr1tHp9NWrV/dkjkwHMJfLV69eTafT161b17+ARfbitd9l7tmzZ9va2i5durRnYrI6JM3NzXCll1OnTuF7ZOUQZu558+Y1NjZ231WIBNUfLKYl1RVeLXreBxX0atHzpLrCHyymEQmqA8achbr7WqnpfpdwmSsR9rWxcSXC7xIuW6nphrr7ggEkoe6+vkYug3rek0IkEg8cOBAbG/vLL7/0weGdOXMmNjb2wIEDcBfKQdruGHNPnz5dKpXCeVDXrl2rqqrqg9OfdevWVVVVnTx5csKEntt5cnFxycjIUFXt3jfZz36MN91uR3JYEYfZpzAv4jB3JIeN17P3sx8zkCgEg8bssQhk8Bu2J1/va2PbnnydwW/4yXI2Bo0ZYJifGLmsb+r5vYqUAannAIC5c+f6+vquW7cuLy+vTw0sLy9v/fr1vr6+c+fO7XeoInt9BMHBwUlJScq6nubm5gcOHLhw4UJAQACHw+kjMF26dOnChQsHDhxYsGBBD1+aTCbLZDKxWNzU1NR9V9k3LJiEUVn24gRXIugzbp9g2YsTJIzKXrsgMODE2dJuJX3c9eKY8DexfWdU4W9irxfHrKSPc7KwBQNR+qCeh7+JHcB6DgA4d+6cmppan7LnHA4nICBATU3t3Llz/RFSZF8YBIVCweFwSCQSXhsPDQ2dMWPGzZs358+f3/PtON+V2NjYZcuWzZgxIzQ0tLfG0NTUZG1t3X373DSq5jGnxcXNNatfnpPKZb2OuVQuW/3yXHFzzTGnxTSq5oA0Z2u9Zo+h232fcCWxpe53r0tibeH3CVfG0O3Wes0GA1T6mp7DmOPR2AGs51paWmFhYQUFBcHBwX3BnkskkuDg4IKCgrCwMC0trf4IKWrr1q19ZCjFxcUuLi4zZ85UV1efMmVKRUXFzZs3KyoqfH19ezGjLi0tbeLEiRYWFhERET3Z6uMtweFwnp6e/v7+zs7O3dQU1kBNS1uMO1PypFrQOEFvWC9iLofkGxKvRJYl/mQVOGXIiIFKIQgEwps29CEj47fCZ2Po9loqvRnLmt1QEfz0gCFR67LnKjwODwau9B09V2J+c/Q3Q3VNBzDmRkZG+vr6Bw4cqKqq6l17LpfLly5deuPGjbNnz06f3l+j//oQbWtqatLp9Llz58KZYNOnT8disT///LO+vv7w4cN7ZUgikWjUqFFsNjswMNDHx6d38/H19PQcHBzmzZvXfcxtp2uGRWF+yX2gQ9Cw0zDqrTv9vTjmaGbk9w4BC4dNAgNacFjcBE3bO1UpN0tfhViOQyF7Z/VLLJPOfLibiFG5NnKNJkUdDHTpC3reFnM9qvaAx9zR0RGDwRw8eNDAwKC37DkA4Pz589u3b9+7d++qVav6L5h9iLYBAPb29kVFRWfPnp03bx4CgXBzc0tMTDx//ryHh8cndrbuhAiFwqCgoISEBFNTUwaDQafTe70bq7GxsVQq3bBhw/Lly3E4XBfPUcTiCw//OBUTIaagXzJznGkW+sSeXrUTySRn8x7sS/tzhJb1HreQAW/LmA01x//6LRFUN4q5+ewqLx1bfI8HgolkklUvz6TVl1x0W26lYzTgMefyeb9EhZ19eUtIRsfV5PaWnv+nMK+qqjpz5szdu3dlMtmtW7c8PT173p4DAJ4/fx4SEjJ27Nj+UnX13wTR1yrss9lsHx8fd3f3Xbt2oVAoNps9ceLE3Nzc06dP92Q4GJPJnDNnzsuXL9euXRsTEyORSDAYzNGjR+3te7lEs0QigXuFdUl/brlcnlVWEFuZnSStTGAVwPlIe6wCLzFfljQz97iFzDLtuTq9tYKmFTFnElkFVhS9K64r6Fo6A9KENfGa43NTE+SVyfXFWQ1lUgAhEWCt3YzDGbdU0LjtLvN6HvPXrIKNptOWjJg+IAGHIKigqjQ+N7VYTZDPrkphlYjkYgDAOn2fu83ZvaXnAxtzAEB5eXl6enpGi5SUlMCp20eOHFm+fHl+fv6ZM2d6OLz30qVLS5cutbKyioqK0tXVHaTtbmHu+vr6yMhIY2NjgUCwePHiW7duLVq06NChQyQSqbsH8PTp05CQEC6Xe+PGDS8vr4yMjK+++gpm7kWLFs2dOxeDwfRf5uZwm2NzU15BFfns6pymCo6Y3/ZTLBKdMfNnqVS6KvF8NCNzjtmoLU5ziJhu3+x8ycz9Ku6sQCL83HL8cosJZCJpgHl4zzITElE1r2vzc5sq5f//0tmqG92bsuVudtyPeeG1Qk7PY77fNnjqUI8BRhv5lSVPSpJT5MwkVkGj6O0OkkgESJq6H4fC9JaeDzzMIQhKS0vL+FverTahr69/69YtDoczd+7ce/fuhYaGHjx4kEwm94Cvv3Xr1nPnzk2ZMuX333/vgSt2t/StRXJY8Hh8YGBgcXHxhg0bZs6cSaPRZs6cqaWltX///qtXrw4ZMsTMzKybLt3Y2PjNN9+sXr3axMTk2bNndnZ2AABtbe3hw4c/fPhQIpEkJycXFRWNGTMGhUL12jNDoaZPn56YmOjq6trRQgHlLMbYx1sjal+nN5RW8upFsrcDO920LOdaeuGwuOlGrlCD4HLFi1ulCZYUPSMSrbtmaWLerpTwLa+vGRI1L7msnGHlgcPiBpg5mxS17Tfmq/T6Nywh591psj952CgzB0stg0VWE0BvYO5hbj/AOLuEWeETvesFu6CYwxTK3hO9bEc1XmI7qRf1fOBhfufOnfXr1ycmJpaVlQmF76kjNHXqVA8PDxwON3fuXDQafeTIkWvXruFwOHNz826qFQ3b86CgoPT09K1bt/ZYpaz/Im3DzO3r66urq8vn801NTREIhJOT06xZs+7cuXPo0KH09HRbW9uujd0XiUTnz5/39/ePi4vbtWvXqVOn1NTUlJ8qmVsul5eXl/cF5p44caKKigoSiexQoFxpTeWlsucAAAwSbU6me9FtZZC8XvRPTbpAdSd346FwnLOHiZ0nzuRFU94vuQ9zGivIGBW6qgYa2WV3LZJJrhfHLHl+4nVdUaimx3HvlTrqAzMH5kxuVLNEgEWiHTVNJxsML2muacsl31j5GtDoChcQiXwLc2s1PSq+K50Djpgf/ublgMecJxRcLXkhgWR6BOo4XXs3qnkWu7LtymIgxdHT1P69et7lmP9H9Ly5ufnx48dSqVRPT2/UqFE+Pj7FxcUCwT/58StWrNDT04Mx9/LymjhxYlRU1MWLF8+fP08mk+3s7NBodBfa83Pnzvn5+cXFxX322WcXL16E46UGBtSIvt89XiQSKUvaSqXSsLCwDRs2sNlsPz+/r776ytPT8xPP39DQ8Ouvvx46dKiysnLSpElHjhwxMDB47zczMjLWr1/P5/PhPmY7d+7s3dVy+AW4cuXKggUL2r9a/io3VSQRu1raE/AqB55eO8r4v1zwv9y/djCzafsXiVRyLj7yRPUzjoRPJ6gvHTLJz2SEGvaTCrc1iXkRJa/OZEcxBI0jtYdsspw+xNAcDFxh1dcVsyqHGVvL5LJFL4/H1xYoPyJhVNL9f0aj0O/FnCsRTDF0Wmg9wVnT7FOMDgRBr+uKz+c9elCeIgPy/wTm7AaxVKJH1c6oLvz81Yl64f/VS77puvatkjJdjvl/UM9lMhmPxyOTyQ0NDatWrSoo+EfPiUTi48eP3yJmiUQSFRV17NixR48e6enpbdiwISgoiEqlfsoY6uvrr169um/fvqqqqgkTJhw6dMjWdqDVDuoHtA0XPKFSqcrgQz6f/9tvv+3cubOurs7a2vrzzz+fPHkyvKDdfsnMzLx///6DBw9evXolFot9fHx27Njx0QfM5XJ37NgRGxv7LnNXVVW9fPly6tSp3V2LtK1IpdL58+fL5fKrV692aNe/pKLsm9zriSzFe6WtokbFkXKaKtRxqmn+R95rqpqaOXeSnt2DimIZuTg0apKB02eGLiO0rchYQodcvVc1+XfKk6IqkkVS2Ui6zQptr5G2zuC/IexmzoK448l1xQAATx3rtLpSnlQ4xWD46dEr32/0mzlnkyKvNiQ1iJrNyDqzzDzH0e2t1PTazyUQBOU3VT1lZIQXvyzmMDVwpPF6w2aQ7P47mCdX5H3+6gRHophqj9G1rRM0ZzWWUXGkFP/D/6bnbTEfp2fvSrMc1PMOCZPJXLFiRXl5OQDA29s7Pj6ex+ONHz/+p59++refREdH7969+/Hjx1gs1t/ff9asWWPHju1QVy42m/3s2bPw8PA///xTLBaPHz/+hx9+GDNmzIBEuH/Q9tWrV9esWfPixYu2aQNisTgmJubw4cPPnz+XyWQ6OjrDhg2zs7Ozt7c3NjbW1dWlUqkqKiooFEosFrPZ7JqamsrKyoKCgsTExOfPnzOZTBQKZW1t7efnFxQUZGho2M7BSCSSTZs2vcvcISEhxcXF8+bNW7lyZU+CA0eoxcbGhoWFeXt7t+cnxeUlQa9PVgsaAAB0FbXf3L70jzvcJOb6GrmcGLnsw7/NrSi+xoy9V57GEnJQCJQ91dhdy8JaXV+foKlNUFPHEvFoLAqBkMilHLGgWSKsF3Iq+XV5jZXxtYUZ9aUySEbDk6cYOszTGWljYAb+M9LAbpofdzSzpXHkOD375SYTZsUeBADsMP/sc7eZH/ihQCi8nfv8Vn1GfE2+HEA0FcoILUtHTTMTkjadoKGGJRAxKm0xrxM2M/gNJc01qXXFr2oLWAI2EiDcta1mUO2n23ip4PH/HcxfvkkPTfqFJxUiAWKT6bQ5juNd/vqaJxH5mYz42SO0PZgn1hZKIdlH9bwt5lmNFWXNrP+snpeVla1YsaKmpgYAMHPmzMmTJ3/xxRcAgG3btk2dOvXDv83Ozj537lxYWBiDwUCj0U5OTmPGjLG1tTUxMaHT6VQqlUAgoNFoqVTK5/Pr6+sZDEZJSUlWVlZ0dHRycrJUKqXT6bNnzw4NDR06dOgABrl/0DYA4Lffflu7du1bzN06QW5qSk1N/fPPP1NSUoqKirhc7gfOg0QiTUxMvLy8/P39HR0d225gd4gp32Xub7/9NjY2lk6n//HHHx2dnObn5ycnJyckJJSUlNTW1nK5XIlEIpPJsFgsmUzW0tIyMTFxc3NzcnKysrLS0dF5dzwnT57ct29feHj4R5m7sPTNvJSTNYJGAICeqsY1p1WNIu6MhEMAgN30acHj2pWRIpfLkwoyn1dlJMsZGQ2lPKnow99XRePsNYydkHQvPXsXSzsksjer6gqEwiJGWW5FcS6hoYzbUMGrqxNwuBKRGBIjARKPwqnjCHSChhGRZixTHa5h4WQ29BPZjtVQH/zqaG5TJQBgir7jMc+lx2P/OFz1GADwatLudlbbYLEbHqfGJWKZr1lFFdw6OfjQm4sECAOipjPN3FWsM97Rg0bR6N33VyAUJhdnpzQUlqJ4ZVwWg9/QKOILZSI5kGMRWCIGR8YRNHHkLsT8cX7SipTzQrkECRB7rAPnOvnsTf3zRM49AMDPxoF+nhPb9aZLpSlF2e3UcxhzKzU9S6laX9DzkpKSuLi49PT0vLw8BoNR3yICgUAmk+FwONiwGBsbW1tbDxs2zMPDw8TE5FMuJ5fL79+///PPP8Mx5CEhIV999dWxY8cuX76MRCIfPnzYTmMrl8vj4+MfPHgQExPz+vXrj3aDJJFIzs7Oo0aNmjhxoru7e+9iPkjbHWDutquCNS3S0NDA5XLFYrFcLkej0QQCgUwma2pq6uvrd0nU4rvM/eLFiy1btgAAbt++ramp+dHVy5ycnD/++CMsLAzuW4rH421sbMzMzHR1deEi7Wg0WigUNjQ0VFdXFxcX5+bmwvGZxsbGs2fPDggIGDJkSNuFvqSkpBkzZnyYufOYhUEvT7KEHACAh5b13iFzjPQMDkdfP1z1qEMU8ta9VLAYJczK6obahma2QCyQyyEsGkMmEEkEVS0K1URH34BG7/V4kDpOQ2TOy8e8ggRWgVgmBQDgUBhzMt2YpNXqP6EwUkjGl4pYAk4Fr+4Nh8nkN0EAwqLQlmQ9J6rxZJLtCBvHjt4Ik1UzL/5YEYcBAJhu6PKzxxIUCuX3cM9rVpElRffxZzs6cS9cIb+oqqyCxWjkcpoFvLaY0ygaBjS6uZ4REU/o9Xf2LcwRAKFDUDMl6xioatJUyAQ0Do1ACWWSRjGXLeIzBY1tMXejWY5XtfQd4qlJ7vCcIzIrZnXGrwpHGYn62TZ4ut3oJl6zS+Q3IpkEjUCmTD+kpkrqQj3vO5hDEBQbG3vjxo27d++WlJQoDYuenp6Ojo6WlhaRSIQNS319fXV1dVFRkdKwmJiYTJ06NTAwcOTIkR1VcqlUumXLlocPH8IBNytWrFi4cCEAIDAw8M2bN8OGDTt//nznbqesrKy4uLiqqqq+vp7P50ulUtieU6lUPT09MzMzIyOjARNrNgBpu53M3ZOr022ZOzQ0FC4gcPDgQXd39391OwSCiIiIn376qbi4mEAgTJkyZfLkyS4uLtbW1h8OTZfJZHl5eUlJSffv37937x6fzzczM/vuu+/8/PyUE5EPM3dOVUlQ/BE4Nmet3oS1Y+bAf//61cUbb2I7TSF9XxLy0i+xXj6oSJNCMkuK3mTD4TbqhuYkbTMy/cP1RJvEvIz60iRWYWJtQXp9KV8qMiTS5mm4BDlMoJDaFWxcyayel3CslFsLAPA3HnFwxCLYG3CJWF8jaFpiMX6z69z/COYuNAt7qvFHgxmVmN8vTylgV6ERqIkGDgtonm7Ww9p56bCUx9/lhsmAHIdCn3BY5GPtppiwVrzxebELADBC2zps/DcDD3A2m3327NnTp08XFxerqqrChsXV1bWdhiUxMRE2LDwez8zMbNmyZYGBge3cOhSJRBs2bHj58iW8nLlhw4aAgAD4o7FjxzY3N69ZsyY4OBgMyn+Ttvsyc48YMSItLU0gEEycOBF2u98SoVB4+fLlrVu3cjicsWPHLlu2bPLkyQRCZ6bnfD7//v37p0+ffvbsGZlM3rp1a0BAAByBmZSUdPXq1TNnzrz1k0xG4fyXJxpacr2+MZj05ehZyo/KqiouMGKmqw0bbj7QNoTi89IOVjxIqC1Qx6oGW46ZYexuQelkgSS+VBzNyPyt4NlLZh4Jg1+g6bHMfTqR8CESKq0sn/v6eBWvHgAwT2/MHq9gpVvwsjjlRWPRcqtJaiTyQAKcy+edjr/9Jzu1it/w6ZgXsqtvlcb/VhDdKOa5aVmuN5jobu3w4Z+cj4/c8eaWHAIEFO6s6xejTP/5flxOygtRaaDmcFMD4wGFOZd7qEU4HI63t/eyZcsmTZrUucBYHo8XFRV1+vTpJ0+eQBDk5eW1a9euD2frcLnctWvXpqamwp79pk2bJk36p5VAZmZmdna2n59fL/ZhGqTtvsLcdXV1S5cu7cUxsFgsBoNhamqKw+GUzA2LmpranTt33lq3efTo0fLlyxkMxuzZs7/99tuuKpKakZGxd+/esLAweDPpp59+gsMvUShU2/ckraoo5NXRppZaUd8ZTVkx0n/Aa3ZNXe32vIjI0tc6BMoa+2kzjUeooLvGcOQ2Vp7MvvtXWRINT/7BYpqf/fujVR8kx2wpu8UQNAEAFqq7b5uyZMBjHpERvbvwL5aQY6thGGTh1VWYC6Tim6Wvfs74i8ln+xo7b7H209Z8f82GYy/C91dEwWl1F91WuhrZDHjMf//996+//prBYMyZM+f777/vaELNv0lmZmZ4ePiFCxeqq6tnz559+PDhd0Nq4HomX375ZV5eHgDA3d19x44d6urqg7Q6SNsfWplR5nP3sEil0qlTp3K5XAQCYW5u7uTkdPfu3bahE2FhYfr6+q0uV2np5s2b//zzT09PzyNHjjg6Onb5eFJTU0+cOHH9+nUcDnfp0iUfHx/YI8/Ly/P09EyvLJgfd7xJouDszQO6DLJS/kx79mNBhFguWWM3baH1eBVU18/0sxrKtiRdfV1X7E232zcsuG2zZAiCNsX/8uubRPhwuZbX9xMGeFsUVn3dhvTfnjAyXTQttrnMte2GtloCmfhi3uOfM//CIjHbLP38Hca+9YWfHv96siYaAKCBI11xX2Wvbz6wMa+trQ0NDY2MjBw5cuSRI0e6o60Wn88/duzYtm3b8Hj88ePH582b938z45qalStXwqE53t7efaGOxSBt9wMpLS0VCoVGRj3dQgeCoNDQUHiO+V7ZunXrhAkTxGLxjz/+eOTIERUVlQMHDnzxxRfdGuVYUlISGhoaHR29evXq7du3FxYWTpgwYfvlI6cECc0SAQCIbeYzFrp9NrAVWigSfZ9y7c83se5aVvtHLDQi0rrvWnJIfrXo+Y7kMBJG5djwxR4mtnAc7IaXl2+Ut66+rNEdv27s3IGNeVxp1pfJ55slgs1Os4PMvZCIblTyMi7rm1cX42vz/U1Hbhs2i0wgwu/j5oRfrhQr5kk6KmpXnFZaGw3k9tVCofDChQs7d+5samo6dOhQdxuWN2/eLF68ODo6evHixSdOnIB7D1ZUVKxYsYLBYAAApk2btmnTpv9CCPcgbXeBhIeHr1y58vXr1zQarYcvLZFIUlNTk5KS0tPT8/PzpVJp20+9vLx+/PHHWbNmPXnyhEQiXbp0qWdassN1BuLi4ry9vcPDwy9evrQfEY+mqiIRiF0u84MsvAa4z8dihab8klZX4qJlcc17PRaJ7oGLPqhM+zL2jASS7dCeOtfrs/VxZyLKkxWvFkD8MDxgqc17WoYXFBSwWCy4oCMA4NSpU5WVldbW1vPnz4fbC+7atYvP51+7ds3Q0PDOnTvLli2DqxRYWVlFRETMmTNHLpenpaXB1YEcHBwyMzOnT58eEREBAJg4cWJ+fv748ePPnTsHAPj666+rq6vd3NxWr14NAEhISCgsLKRSqR4eHh0qZ/Fv8tvT25tr7mIQqGMjl07Ud+gJJZdL5z05mFRbiENjttAmzRvju+bl2VvlCs42IGpedf/KWFtvYCv59OnTX716paKi8vvvv/eYYZkwYUJMTIy7u/vt27ebmppWrVpVX18PAAgKClq7du0glfakoPv16GfNmiUSiWbOnHn79u1PLInXUcFgMK6urs7OzhKJhMfjpbZIenp6SUkJBEGvXr1asGDB06dPP/vss23btg0bNqxnRoXFYsPDw5cuXXr37t2QhQsaZpmiIVUAwAJL7wHP2ZWVlQHhW5lakI/+8F2uwT3D2Qqa1Hc44L5gc9LVH6r/unDyQaGGCAEABomapO+kWSYBLburfn5+qamp3t7eMJXOmDEjNzd31qxZN27cAACcPn06IyNj5syZMG03NDQ8evQILkhgaGgolUqrqqpgHwvOrpFIJLCL+Y/fL5crYymYTGZZWZmy/9LDhw8zMzPFYjFM26dOnbp8+TIA4PXr105OTlFRUf7+/tra2rdu3bK3t8/Pzw8PD9fV1Z0+fTqVSoUg6MOpNQfPnziCS1HHqe5wCeoZzoab1J0cuWxj4m9PqtJ+qP7r0skHBWoigABmZJ2ro9fqUjQHtpJ7e3sXFRUZGxvv2bOnZzgbNixhYWErVqy4ffu2p6enlpYWrI3Lli0LDQ0d5NEeln6/rBEcHOzs7BwUFNQr+9xIJBKHw2loaHh7e69Zs+bcuXMXLlzw8PDIzc29fft2SEjI9evXe4yzYdHW1r5+/XpISEjkrduZt18AAFSYwpMB6z9ataC/y7rHp6u1oFlmI4+P/EJLhdIDV4RaBAAwSddxm7U/AYUtauFsUXplyZLLJ0cv++3MBfib5eXlpaWlTCYTPoTL0CrrAsHZBMqmC8omRSKRCLaY8CG8oqNcilTSNvwP5d/FYjEAAF7JhLcnAQDKuGJ4BgAAgF3txsZGPp9fUlIC70pmZmZu3rx58eLFFRUVAIC7d+/q6upOmDDh+PHj795+QtrrI7gUCo5wYczqacZuPfmstVQox0d+sdttPgVHKFBXcDYCgTjpsmRgczYAYPHixQUFBQsXLkxNTZ0zZ05PXlpHR+fatWsLFy4sLCzMzMyE1xQHOXvQ2+6k7Nu3z8fH54cffti1a1cvduVCt4ilpaWjo+OJEycWL1586tSpXhkPHo//5ZdfUCjU+fPnTdR17u04vyJmaVBQUOf6c/cLOfvqdjyGMcds9B7X+ahu2GMTi8UikUgikZDJZDQazeVyS0tLxWKxtbU1gUAQCoUGYuJWA98dVXebpcLPDJwv8B7CpAj/HK4PxeFw4ENbW1s0Gq0M+l28eLGvr6+1tTV86OLi8vDhQwKBMGTIEDjztbKyEovFamhoAAB8fX0lEgmyReDvp6ent52zxsbG8ng8JW2fOXOmtrZWGSA5duxYbW3t+vp6eHWKzWbDf4dPDi97AgDgekFwugSDwdDR0Vm1ahVcn0AoFAYGBi4MXbyhPIKEwV/0/NKRatLzTxyHwswxG22nbjL78T6OhP+d0VQbHeOBbayPHj368OHD0NDQ06dP95ZhOXPmDAKBOHfuHBqN3rRp0yCD9or0771tpbDZbB8fn/r6+sjIyN7N537+/DlcaejKlSu9OIeAqyiEhITcuHHj3r17I0aMCAkJgSDo1q1bA6yikFAk2pXx568FT3yNXX8eseRTOBuCIJlMBjcpqqur43A4GAwGbgfHYDCqq6sBABYWFmQymc/n5+bmAgDMzc0pFIpAIMjJyVE40OrIL5J+0eRhrJKEWhQNCwuLxYsXAwCKi4sRCARco6qvAcjlcmtqauD2uImJibdu3aqurobt8u7duzdu3AgAgOfEcB8nHo+38vv1lV7quU2VWw2mWeK0tLS0YJSqq6vRaDSRSOxcNYLOSUZ9yazH+2zU9MPGfoMbuMnBN2/eDAgImDNnTh8xLNevX//jjz9mzpw5SKKDtP1JzL1hw4aIiIiEhAQ6nd4rY6iurnZ0dHRwcIiKiuoL/diFQuGkSZPS0tJSU1NpNFpycrKXl9cAC/hc++rin29iXWmWV73X4VCYDlkfoVAok8nIZDIcGctisVRUVGxsbOCw/IaGBhwOB4d9cbnc/Px8uACkhoYGvN+Mw+HU1NTweDwEQXDNRQQC8awqY2H00ZmmnodHLBwA8DY1NdXW1lIoFG1tbXiDvLS0tNpDnW1KODd6pXqtwss3NDSk0WhyuRyuuQHX0YR995qaGjweb2xsjEQi4UX+LuyprJQBhvm7kpub6+bm5ujo+ODBgz5iWCZOnJiampqQkAC/L4MySNudl0ePHrm5ufVK+qBEIhk1ahSLxXr9+vV7SxP0ijCZTGdnZxqNFhMTg8FgEAgEFosdMMz9Z9qztdm/DVE3vDJ2tZbKhxoVyOVyNpstEolIJBK80VtWVlZXV4fBYODSN1VVVXBTOAcHBzgntb6+HofDmZmZwY44l8vFtshHlyuOZt05kH5zprHbPpcFA8//gzH/etjML4dO5fP5YrGYQCDgcDixWJyXlyeRSOCZDRw/VVNTg0aj4fAOeMVCCThcXxrXIp8+Khjzw0OD383n7u8iEolcXV1ZLFZycnJvOSTvCoPBcHJyotFoiYmJXfIEB6X9gtq6detAuh8zMzMcDieXy3t+OnL8+PHff/89IiKiqwoVdYkQiUQHB4eDBw+SyWS4UnpJScnq1at9fX17d6nt06Wmrnbh6zOOmqbhPt++2w5ZLpfX1NTU1tYiEAjYIc7NzW1ubsbj8fBKtUQiYbPZcrlcW1sbnsfg8XgqlYrH4xEIBJFIpNFoMP3A8dtwc5f2bDE4a5on1BY8rkoXsdijzRwH0vulxHyv2+dIJBKLxaqoqMAONAqF0tbW1tHRgQGEEYZRhStn1dbWCoVCHA4Hp2tWV1dXVlY2NjZqa2vD0QM1NTUSiQTVIh0dGIx5eFWCv7bzhyvO9jvZvHlzREQEHOrfd0ZFIpEcHR0PHDgglUrHjx8/SKU9KQMzQR6Lxc6bNw8u39MzUlFRsXnz5uXLl48bN66voTFu3Lhly5Zt3rwZDg+m0+k8Hi8gIKC/x5Zvz4sQyyX73Bcoc73Ky8tzc3PhXr9IJJLJZDY2NsIB2zDHKOOxAQBkMtnc3NzW1hbmbDKZTKfTNTQ0Pn3vH4VE7h+xkIIlXKh/lVNeNJDeLBjz/SMW/lsMQdtYOSqVamZmpmwHqa2tbWhoCJO0MnJe2QWnoaEBbp8M/10kEhUVFVVXV8Ph9O3EXCyXbM+LGEiAZ2VlHTx4cMWKFX3TsKxYseLgwYNZWVmDVDpI258qCATC399/9OjRPcbcq1evVlNT2759e98EZMeOHWpqanDmLgaDuXLlCtx3/MmTJ/3u4XI4HJlMFp+XFln6OkDTqaGwEs5xgiDFR3w+n8fjAQBkcgiNVUGicLCSS2QQkWZGNbRX12xta9EkRLMEqkxOqwNdy5YVMqQlrFZSr2+Wl9VJGY2yv313qJErZ/PlYimk/MsHBmlEpN2ZvJmEVtlZcHvAvFYw5mvspv1b7TkIguRyIP97oUskgXhCiC9qPURiCBgCFaPSWrOabmBG07MgUFpZnMfnww8Cg8XBpM5msxkMhkwmg2MLsrKy3rx5A7O4MvXuLczX2E2LLH0dn5c2YDBft24dhULZsWNHnzUsFApl3bp1g1Q6SNtdIMHBwYcPH+4Z5s7KyoqKitq+fXufLaOvrq6+ffv2qKgoeF4MM/fXX38N13Hr44+yrq4O9sDi4uIsLCzU1NRSU1MPVjygYkmfUewhCILTliQySI5SReGIWJyqgrYhgFMzJWpbU6itcQZSCCuRImRKuoUUTC8Hyuznlgnf3xeVyiCxBIikSgYCdc3yWrZcJFH8RSqHimtkb5hSrkDeUuUUNPHkXKFc2obLjYha3zjMjK3Jic16PTDeqYMVD7QJakFm3jCGUjnEYsuYjTKhWHEolkJFTFlxjVTJ0408eXWjrJbTOvVpFkAsjryB15qrJpQgRRBBAlp3N3T1TYg6dkQtaymEhR8HEo0HACEFODgGSiQSNTY2yiAEHH+anp6ek5MDr6zAC/IQBC20Hq9DoByseDAwAI+Ojn706FFf7s+hrq6+Y8eOR48eRUdHD7LpIG33J+betGmTvr4+3Gy7z8qCBQv09fU3b94MH2IwmNWrV9+6dasPMnd9fT2c4vwyMcvY2JhGo8FVw15W6hQVFUEQdO7VXwm1BUEmPgS8Go5Ig6uXoJBARc1AlWpGUlf4gmhEy8jIXbkAAIAASURBVKrL3zyMQiBUcQgSHoFGtf6JiEdoEBHqBKTyUJOEVB7isQgiHqGKbf2yWNZKRSgkTOoAnhnA55fIFITEaJTDBCaVQeV1Cj7z1hpBJ6ifrHnezBP2VtubT5GYpIKTz5iHIrkp2WXxeWkJtQWz9H1qG1ECmJgh0MSHmoUQDI5y1RySKzH/Zz7Usgb2f4d//7X1/zK54nEh0Tj4PAQShahlRaLbIZGIlo1zDBpPRmJUZBAaZnGZTCYQCDi81tWR7Ozs9PR0Tl3TWvtpCbUFf7yIgst49WvZvXu3np7ewoV9Ojx+4cKFenp6u3fvHmTTQdruN8xdXl7+6NGjdevW9fFwShwOt27duocPH5aXlyv/6OLiAjP306dPe2tgEATBQxKJxCFfrNeg0mg02vXr1wEAaSydsjLFRykpKQAAMlakYzfDYvx3+ViOBp4UZDmWom1G0dSlUNRaCBWhRUHS1ZEEHKKFRRDmOihzHTRJBQmTiq4GSkcdpfI3E6vikVQSSk0VqTxUJyIpfx9SCEi6OopGQSkPzXXQptoofMvP0ShAIyPVVRFYDKIll6yVi+A5gUQGRBIFn0ml6KVDJsUyctffLpq5n73zz9Zggsz8yuKyWqlM1hcUgy8QF5a2+qw3E4XLzjYtPtUEH2Y06Ea+wj7KFKfnll9mxaljVSfrjmzxswEMKQoBsGjQQqyKiRGVhNAiI3F/I6xGRBpoovSorRhqkpBmOihjWmsggraa4ukYabZ+SsAhjGgoA00UoeXnKKTi++pEJFYx/wIqRLKqhgmRZolpQRiDI2BUqWgcCYNXhTfCZS3CEYAZxiM08KTlf+4nkUhb956GFezZs2dNTU39y3ZlZ2c/fvx4w4YNfd+wbNiw4fHjx9nZ2YOEOkjbXczccEBWl8vVq1exWCxcTbrvQ4HFYq9evdr2jy4uLrdv3+7hxJLa2toWtpMv/PooiaJhaWkpFovRaHR6rWZjQx0EQcnJyQq7Ly00dA+1nLhl7ARfAICTmcr2Hbs3fh9QRuIHm3vRKXgTLbQBFa10qSkEJBGPxPztT3dtYRkEQjEzQLacE41EqKkiNcko+FoEHNJMG2VIQ2FRrd8k4BSMjkeDmSbuODTqNSdJLIOUwzkXR151Fb05jAcf3o1Of/oqt6aO3QPIC4Ti/DfMqBeZ8OGVF3z/n7nrw7DwYkA9s7SMJa9ukAtEYsV9NaeikUCDiBBqGT2oSJtvOdZIA09XR6riWyZGCISpDtqIhibikfBdaxBRFNVWolWQKwqBxyCwfz8OZAt6bZ8JAvHPM0IqZgCK78PuNRqJUCciaWQUfDY8BmFOV0yb4HkSiUzS0zXQ0Tcjk0lwLjhRwwBDoKoQVFXQ2CDz0fjhBnIVVJXUDABQVFQ0btw4DQ2NIcPHlpZXAwDgDkBvtf/pa3Lu3DksFhsUFNT3DUtQUBAWi4Xr7Q9KDwj6v3CTwcHBBAKhOwpUyeXys2fP+vn5KTOF+rJQqVQ/P7+zZ89+++23bVO3nZ2d4Qyc7it9yuMLVPA4JBK5bv/9SweWNdaWwyUzq/mavGaFG5SRkeHs7OzoPoHLyLayd/Gf4wYAmOBhNezyj8b6VCIBrxinnbGzHbgYHymFZNN7tgj2x+e/SATub0TxGISehjKFiTjJwOmBNH2hxWfmBD4AJAiCyusUfra+RitjXc8yrONAXkzkdy0lp7IKKhPzuSY04OFoisN96hMprarLLqyi6mi6W+vJZPKQUzyuAAuAnsdwAZmogudmAchcIoOqapoM6BqWdISrEKOjjhCLxCo47DxftxA0GoVCXoyPhTEnE3pzoo9CtiKGRSGo5H+SxFAolIkBTSJrXZafbuR2LOuubkCgzRA7uBs97HMj9KdIWyzehg0boqOj9S1cXr14oK+j/vTpMzU1NTs7277TLloul4eFhfn7+/dwh6ROGxZ/f/+wsLB9+/YNttwe9La7TPz8/HR1dbu8zEh+fj6TyQwICOgvOAQEBDCZTLjg11sik8kuXLjQVfvcsr9XgH+6kqpn4UImU9LS0gAATRJiY2053EESAODp4TF25pe7zzwyNDQEAJxeO6w44bd7Z1f7jHUHAGjRNGwt9WDOVspjXoElRc+CottfMP/M0EWIaHbVq548orUw+PZpvCXOJW7aChy4fGE9G1LcLKa10UhSPjc8U2v/Ey2RRIHhi8T84/fr70VnSKXtWlQvq6qLfJr2LKt1Qf7HCNTxOIMnOeQWekN6Wbda1fwSZstMyMTftnb1yCp1sgLk0S5W2wJJyycQKWRiy/onFtWymd/3MceiEao4BLyFYammZ0nRGxHoOH80TjH585m05tALr6B9Fm6BxrpUCIJgVUSoDSGpKu76yy9XOTkNt3ab0dDEAwDc/isyOSVV1qtbGPHx8QwGY9asWf1FyWfNmsVgMI4cOTLIqYPedhcLDofbunXr7Nmzu6pueUxMDBqNHju2KwszSSSSD8xYhULhp1Q3HDt2LBqNjomJeW9JQnNz8xkzZoSHh3t7e3fu/GVVdT8cDH8cccZERyU+/pWClmSk6qLXME8PHz58lJtd8eTgcaPd4KKhW4KNtwQfVf4cj/vIVF0gFCawCpYPmdy1iiGVy9BIVOc+/aiM0LZCIVDPqzLcrIfBS/d2Vvp2Vq0UTiTgr6+G8kuY2uqtq0FctD4CEmupIchEFQBAZr3e3VQxHmswabSCk6LiK8rYZH1c6dQxrZ3l6pu46bkVUiTRx80AAHD4ISafYThEXz5WATAwpaNrmyVlrFYSmmonMMBUWpnqmBkqvmxqQDM1+Eiv+oZmdpdjLpPL4CXz937KlwnxSCwS0flJ9mTD4ady7hNVFQCqq5EPrx0FwCjlp1fCn8RmN/BkJApJhcfjwbNYgvYwNbIKBEGfh8xns9l24754HXUCi0Hn5+fnF74ZM9oTLoLbM/LgwYMuNyxSqRSFQr0Xc5lMxufz4dDOTzEsO3fuXLlypTIXf1AGve2uEXNzcy8vLxaL1SVni4yMtLS0hHsgdolcu3bt33I0eTyem5ububn5wYMHO31+CoViaWkZGRn53k9dXFyuXLnSodjyhoaG/X9Wj56zx9ZR4R8TVfEvYuNry9JTU1PgUF5XO7qdvcOaNWvhpfiF3mrP7/3643er4KKhHZXk4myxTDpE3bALVeIRM+ZSyR+d+7Q9QsYSTMnaKXLGv36BqOJiZ2Ko3xpe8OVk4o316ttnt5KEQALQSGCq1VrGJLFS7Vay7GKKQXFxsWKexJKtuCTZ/0z7enKrzbXQVczFK+plcGZz0EiVIwvJxxe1zglM9GnTxztam9Ix7a4NfqX0eddizpcJliZ+z5e9J9K7oLlkaeL3c2NXzXj+RS6785VqhqgbimXS5OL3B0n5jh++d/X44+vc4K6pkU/TNu48MS9gKhKJLCwshLuiaRvZYjEKiC5cuDDdd4qaukbE/Vdwv7WHDx/C3VG7T2JiYrrWsFRXV7u5ub1bYUkikWzevNnQ0NDIyCgkJOQTDQubzU5MTByk1UHa7mIJDg6eOXPm/PnzuyQhJysrq6vaaTMYjOXLl69cufLfei0sXLhw/fr1ycnJ58+fj4uL6/SFhg0b9oGqRmPHjv3yyy9nz579gRpqYonk5OW//ALnK/xjAvHE4Z0xYT9kpyVwOByqGlHf1AH2KRkMBVFNc1bNSE89fPiQi4vLp6OUX/EGAGBG6pqS7/XCxv05Zw7mnEW9z7H78KcdZBGDfHZ1+79PxCMM/w6x/noa8ffVpFDvvxtmN7SUHxGCxNw6AEB8oZjDV9Azo1Eulkg4zVwdNcSXkwmXVpBhv8pcB21JR8MM1Dm5W5bUVZhDEPS0Ju7LpB/zm0vQiPcsYBzNvzhG2+N3z2N+hpN+yj7Z6QvBo4W15cOCQCAmj7bduXHF94s94VYxn6/YRNQ0sbKxbVW5Fl8co6JObHFGT58+M312qJqGVnJaTveZqZycHLg2fpcYlqVLl7q6uqakpLxrW5KSkv7444+YmJjY2NibN28+eND5lHd4wHArvEEZpO0uln379gmFwh9++OET65YLBAIWiwU7kZ8uhYWFW7dunT9//ntXsYqLix8/fhwQEKCtrT1r1qxPCdp0dnZmsVhwAZP3KAQSuX79+pEjRwYFBbV1KfKKKuLj46VSqVQmG7vo7MoF02+G/1ZVVUXAY4c4jlHaGgDA5iUetyPv19fXK6tatl8uPuEsOsned6uZwXp/uk6lpgiHwpiRu4a2KwSMxWZzJumOQQBERz/tmEWjmjSKuFwhvxO/lcpkN5+X3YgT3HpRCgCY51CDbYmdb0IreOVVQeszGmcnk0ikaXlV5x8L/3glrKiqg3PqxC2FwT+M+cpz7KhX78+z4Ar5RWxmV2EuhiQ4JHav43fKNO635Ee7NbMNpxLQKsPUbRjCzi+JmZF1cChMpaaooz/EYDCXTuyoq8rftGB46+qFjYO2yXA1Izd4NyEvL1fYVIEmGwnlmJbotm8D5i46fOQkm8Nt5yVKKlhfXfiQknO5XBaL1SXTXNiwbN++PSIi4r25FQ4ODi9evDA1NR0yZIiRkRFcYbBzAg+4pKRkkFYHabvrhUKhPHz4MD4+/vvvv/+UwJPKykq5XG5padnO7//4449oNBqLxd65cwcAwGKxhg4dikaj9+7dCwAYPXq0trb2v20+5eXlKUPqTExM4GbPnRNLS0u5XF5ZWfkBy3XlyhUkCu0fECAWi2OSCowdfG0sjUeMGJGWloZGoWyGtrbHgJ3+r/zNTp4+m5ObB7cqmeLtNu2zSXCXrY7K/Qwpo0n2LEey/BJ08U6BSPw25ZRxG8zJ9HY21a4W1AbELh/9KHBt8na+VDFNiaiIGv0ocF7cmpSGLIXNUh+igaMg/2WH9cOfdkhMSNpyABVVlbXz+zFJBSf/zLmZyGnJBUc9KKTGF0oyWVQAgJerlb0hapgRWoegYLVZ9rXz3KsnDsN+7aupSlApYAIIARhsOV2LAgCIfJYRcJi77jKnrpELxye/e62oTNmbWtmRZ6rrL7OzC6ve+rSoqkwG5O3H/EJx2OhHge/FnCFg4ZBYT5oz8t/NDg2nAW9pP2LEzDKa2mnAUUikOZlexm3o3M9xWIwOrXWBev+ercw3yRkvrsG0rWNgpa5jqWHkbG9pAAC4ffvWn9cv7jl1i9WoILwvv1ozf9GKnbv25BSU/9vJX6YUFTI/pOT5+flyudzCwqL9hgWJRKLRaKVhsbGxQSKRbQ0LHC7zrm0hEAgaGho5OTnffffdxIkTfX19O405POC8vLxBWu1uQf83bxtmbh8fHwcHh8jIyM5FqNXVKRwafX39dn5/27ZtqampDx8+9PT0VFgoGm3o0KHTp0//9ttvP/pbDoejjFMjEAjt7K/wXoEHXFdX965dgCAIgUDUc8RLvzn0PDpB2Fyzffv2+YtXSZCqcO2ruLg4Z2fnuVOG6gl+dHRynuA9FgAwaYwTGOPUJc9l1VhxWLLKmxqZSALdyNB8UcYLGSEYO/yfnPIKbr05pb1un66K1g679UsTNw6hWBLQKgCAYWo2RLTqkeGbafgezauhEzQUg2cxHMxs3utPZxdUZZSLXYYaWesrnnJ4pnYhUzaEC810VXxhqD46r0qqRWplux1z4G1vxX89h1t4tjmVhw0RhazjoXThcLZqubVEKi6plam3RIZfvl90N49mREP6uoExVq20tHKM6PRzXCMPyqmSfR2OHz+s+fMRMk2N1i6oFSwGAMCYpNXOO11oGljAKXlZl/wpmEdURIlk4sWmgZ+CuTFJq4jN7KonqE1tDTX4/cppBbA1jSQiXiqVahkOLWc06Vt5mhrQIAj67dfLcF0X0tCQIZbg6dOnERG3h9jazZkbqEFpPcOM8cMq5LIXuRKlkk9wxPpYi5WYl5WVwV3M2zm2rVu3pqSkPHz40MPDQ2lYZsyY0R7DArdUv337dl5eHplM5vP5nd5Qhwfckw2cBr3t/yhze3t7+/r6dq7wAlyAU9nRqD1y9OhRNBq9f/9+AEBaWlpeXt6WLVva80MqldrQ0Oo6NDc36+npdd4AtQwYHjwsIon83LX7rl7TbO2GtdT1ROWVNfGaqhEIxMqVK80NabNmB3/33fenzpyHJ+Pe9uRt27bOmPZZ51zqD8hoB50TiynbpjaZaKEAAEy2fF8U7odrnKK/y3jVCdnaBLX2n9CGYu5nODG8/G69SGFML74JX2cT2sOcDQDQxJMUbhD7H+dPJBInpL2pqFLwSv4b5nc3ideSNS48a925sNJFIgAkgwC8j7P+M5XLq9SX+nwc7SHmegunWq6a1BqA5kir/swZO8G+NY+rlEfniaCcShm7olhhrzn8JaebkitV145tmmLJRLcUTXmcLll2Efr9UTGcbwaPuf2YIxCINdaLSWhipzGPYjzPaMr7fuhK5KeFFGgT1OqE3VXBRldbHS7zEvMoormxOvzoUiQSWV9fr2UwBIOn4Eg6pmQWAODevXsnThxdtXLF7ReVAID79+/v3Lk7NjbuuxnEtkr+a7SwLeZwMSK4vWk7MT927BgKhTpw4ACcp56fn//jjz+28+dUKvX777+/detWZWXl8ePHO40JPGB48IMy6G13I3OfOXOmqakJi8V2IkINbjzVocmpsbHxli1bNm/eHBwcvGLFirNnz76VzSUWi9+aQ9y8eXPKlCnOzs51dXWVlZX6+vrx8fHTpk3r9F3DeSxnz56/9PvtorzMuJinaBT6l7/ys5IeAwBqamq0tbWHOE/kNZQ5uY/B4/ESiWTUMJ3q2nESAFAYxWjLKxm3n2YDAKaPG2qoT//wocJ5ephcxWzU01H383H66GFCWnFiRskwTbGTicHDDBFHAFJLpWvLMWNt6xaPxjdLBOrYjpXNWWQa+JTx8peia2O03SVyqbe2x9vOrlwmh/55+hX8aqFMZEEyee+nnRMSVuF3Piut5V15PH3cUDKZEnJSKJGr2RAL1/hB1qZ0AraJLwaZFdKbL8pmjjaa7SqjkdE1RUk3HylgwWLQHwbtA49glAuxvJJx7MorhfrpjSDjsWV1snoh8diVxwKUVmWDfmWDXNzUTJDXThhmdD9FBBCAJ4KuJKk/e9McMoLP4TcDADqEuY4K7azbnuWJG/8Ncxkka+m/8k9kyYvaBCcNO1U0IZtd+JQZt2vYN2gk6m7109E0NxKmk1NDdSyRLRYcu/L4LdVqp94qD9ujt2ZGOvDhngNHfcc5ZOWV4PGEY1cev0ivRWFUiFrWWlTSsSuPw389G/P4JlZV83TYS259uYEgoaFBzsbbAoJBW8zhUHY1NbUOGZatW7du3LgRNiznz59/y7DA63Nt9wRhw1JUVFRVVeXj4wPT/6ckl8KWEB78oAzSdvcK/HqIRCI2m92hzEWYXztaWWz16tUXL14cO3ZscHCwm9s/pb5ycnIuX75848YNAoHA5/Otra0XLVoEAFi8eHFWVpauru6xY8dCQkLc3NwEAkFwcHCn7xcucXzv3h34sKioyMbGxsJ+VGnCEBun8XCsqY3DCCnVfaiB4jWGICi6XLeozhQA4FrXaKgPGHX8e5XD23moMJe1FhmVUnsk2g98/LCQQ79XqXBltk5h+i2kHX0C4vOlUjl4lIFMKJRItWV4VMfKMJExxFVWC3ZmHUtpzDzuvL3t9l4JtzKKEf2E+RKHwsmAfCp9rC5BO7Ux+w23Yo2VSdtPhXKxkareVN1O5tHCHcFzpNS6yuEtsNCpZDGzSZ7LtWAoDpGBDk2XEhV6GF+u/j/2rjouqvTr3+mhBhi6pCQECUFCBEkxVkQJMcBCRddAwRaVVVz9YWCyBjbisiLKihigNIKklEh35wDT8X707jvLoiLNDN7vX9y5d+4893Du+T7PeU4sBQBRvFBmOSG3Vm+QQhvkf8RXu9HIWhkAgH3BsNxaUXEcfKYS/FMDvYkh/7FOFttEAWPv0EgYlc6qaWOeiMTSpYQBNDBUmcvwSn5P5o9rXqa2ZAEAcLIg0FBUFxTpyYI/zun7TMNNPVN4rYpYtzBuHQtgURgUa6vZw9ZzLAJFZ9Kj+siQrVpDUuNB/gv+PUQiZkyfmpZTFlWrJ2Kp98LvOLGjRlgAHVWrl1/a9NngTDGQlJpy8YNoWpBdR0WKoPR0rwsp2RU0QmdbZlFGWY1hbxF1eIbl1q1b5ubmbm5uhoaG/QzL48ePQWMyb948sDfJ+vXrCwoKOjs7N2/evGbNmtLSUjwev2nTphEalrFOjYMA0fa/qK6unj17dnx8/OD3ucEAMQaDMaTiaxgM5tChQ2vWrNHX/89+sIaGxv++oO+H9fX1WlpaYMHw9evXu7m5kcnkkVRFYM+4YXAEEiskLq8FmlSlqZqmOxK15GAiIt+Ybn+pn/B5bVRWXmmkqzw+/xEGgv9xYkNW2T+uQgwKNl+15T0BTh/62tdGcvaN0hAUDI1H/6cBoiK/7BYV1y0q/5kDVfTUmooZfO/sMJ/ly8oSxvpXT+bpou7G/RugoCDKGn+dlxSCH1+OY7FY+x90fykh/pmwu0ksdk9xAAA6iVQADYyizB3l5jvKze/7SSulXUlATk3gs17dnnVmtJ6O/nlNP/GbgDgMfe5807ScMgAQNtr4zEm9HAaj4nnbWEx0d8Pn1TxO1iC3ik6mAa2lsbl/eQAATH7G4uEZFh8fHzc3t365LQMYFklJSWlp6bKysq6uLl5e3hHWNgYNCwKBgNhkrAEbYRLUZEJwcPCuXbsSEhIGydzPnj1zcXFpb28fkp+cTqfPmTMHi8V++vSpsLBw4O+mpKSoq6uPbsHzrq4uPB5/8Y877muWDT5ImkajBQYG+vv7j6SG2uDxNrP+3jueJgILbO04Rx25xowpJSY0LXTbenWrPToOQ7pbckvmn1UReZ3Fv6q4LpNfNMCVTBbzfdsHY9EZo/s43VSS5qNtNmjnNfKK5oZqHKj8La3t996h3+RRQXOA54fh+eGljYwu4fhaXOT26b+MncwLuorleKVxqFFuGXD6Q/itorcfXS5zrMH5M6HzysMUAC3EL6EOAMDHZ3urUm/CkdhZS/cnP/Lt7OwcqmExMzPDYDCfPn0qKiqaEMMiJCSEw+EgPzm02h4/gJ7nOXPmDJK5wd4kQ6XtwMBAMzMzT09PDQ2N48ePg1Ek3wMYGjq6AEPblKeIDSmxCezPbWJiMsLqpz+YHNDpCe+LX1fI5lZhwfW9sgRirWHHTK1//h3CGN4WEmFI9+yh914puXdB/+jj6hc3yv60kDAWx4p+14MCg486ZwMA0EHtAQBgrhidAzmbRqeHvq16kocnfun6hULAFqg2rpmnyMuLbW4j3E1DXeoAhirzRnLL4GWuKag6JhMREkEYw8uZpqa4ovFmCm9uFZNfzhgAAF40zEa58cLy317EO+ZXUxREEcmPgLa2tiEZlitXrpiZme3cuVNdXf3YsWMD11IcC8PS1tYGBrhBVALRNucyNzhXraurG3xdkYqKikuXLmVmZuJwuGPHju3evdvNzW206qwNEnV1dezBDxVgf+6xY+6jfxGzKyUBgA4AAI4Htlyvy95sChz+r/GS5BWu6W0d0j1vlIYulZ0nhsG7KS59WR93pfj+b9q7xlmvmoidAABI48U5UOe/yFwYnCQZT0WuM6NNkfonS01cBGcoKw50AEOSeT2peWPa/rVKThMr85reVjDvjtPw/kP5sSghButfJV80Ww6FFAYAQFVJBgAAsLRwfX29kpLSUA2LoKCgn5+fl5fXmjVrtLW1x/O56uvrh5QQC2HYgEMi+Jq5wf7cP0xABDOpwCTLQXqxNmzYsHHjRjCW28PDQ1hYeMuWLbQf1bEaXYDPNaS8ta+Z29nZGayJPbpo6GR+6bUMzNVmXndHLTVX6Le9p8AvXk4YQjJuVnv+i4bYRTJWAADwIXlXKzm+bUpJackcZ6WqJX6mPUVJTrRooMzlROCHFpGPLsNNkfrPagkc8+BlzmAy/lf4BwqGmHCZlxMa5fnFOFDg9c2dDNZ/lByF/M9+MFiuf/AJ0HQ63d3dfePGjeDq3MPDAwwuG+foMHDAg59qQIBoe/SZ28LCYuBSfxISEvz8/Lm5uYO5J4lEcnZ2jouLAxtWAgCQmZlJJBLT0tKWLVs2nk+Xl5fHz88/bNoGmTs9PV1OTm7Ux3bCibnFqPriKobXIlGwd2Q/KDD4GomdndRBlWB83/bh4IfTdCajsrcW3LcGi6P9ln/hdtmj8YzqKOqo5UNi5MSkOFDbTzgxvc0bA90FTLW/0ZdTTkxKDIsbpMypTKpP7pms9nwyk/q1zHM7Po7bQ3VSexuJnQoMPg4UuL3NjH3WzQMouby8vICAwACNA/oZFicnp9jYWHYPj4yMDLZhGU8lBwcMdvaDMKaAQtIGmjxKSUkNnM+9cOFCEok0ksYe4w8TExMeHp6oqKiR3wqBQIBVFcdt8EkFmStzAoOtvOZIaXKRzO1f/Y6FI0Pn7uXGF+F8XsS53L+5S+YJDQWub8+F6P5qqqnPjTK3srIiEompqalcNGZjY+O0tLS4uDhzc3OIPqDV9sRAQUEBg8HA4fABfE1LlizJzMzkosjJrq6uzMzMJUuWjMrdKBSKjo7O4Lt8jhz6yppoBDK9pYSLFIlAJea2VerDpbj0RVitYMF1Mk9vKUEjkPrKmlwqczMzM240LIKCgn1TxiFAtD0x6O7u1tXV/V5/blNTUzqdnpOTwy2Pk5OTQ6fTTU1NR+VuYB+UIfXnHiF4sFgjMdV3TdzUrqCwo4bBYpjLaHPpK4AXEOQ6mb9rKjISU+UZQc2vicW8efO40bD4+Ph8qfEAAaLtCYWoqKitre33+nMrKyujUCgucpKnpKSgUCgw5mVUMJj+3KOLmaJKH9oqiXQKt8g8o7UUCUPoqWhy71vAXTIn0ikf2ipninJxbJSBgQEajU5OTuaWAScnJ6PR6F9//RWiDIi2OQID9OfGYDBmZmbBwcHc8izBwcFgTYZRU6Dv9OceOxih5CkMWlxDPlcInMViPS5PMRRXQSG4ONmSu2Qe15BPYdCMUPLcK3AUCmVqanr//n2uiD1isVj37983NTXl5eWF+AKibY7AwP25d+3aVVRUxBXz4uTk5KKiol27do26ibl37x4cDnf60p97rJ9i1rQZU/jFgotjuWWpXUZoXCKizdWvAHfJPLg4dgq/2KxpM7ha5mvXri0qKuIKT15KSkpRUdHatWshsoBomxOZW1dXt18+pZmZmaio6MWLFzn/KS5evCgqKmpmZjYWi4NxY24YDLYSb5DcWPSxo5bzZX6zKAaPEbCfxt2xtVwk848dtcmNRSvxBn37l3AjnJycxMTEzp8/z/lDPX/+vJiYmJOTE8QUEG1zInNbW1v3q8SCRqN9fHzCw8MLCgo4efwFBQXh4eE+Pj4jbBgwMHPz8vLm5eWN9bOs0p3Lj8QEFjzncJ0p7qx7WZ25Cm/AvbFRXCfzwILnAijsKt253C5wHh6erVu3coth2bp1KxSMBtE2hzL3tWvXAgICnj//j/FydXUVFBQ8fPgwJw/+8OHDgoKCI+n4ORjmvn37tqam5jCalw/tHyGAWyc2+++q9Pz2Kk6W+ekPT/hRPBsN7CaD8nODzPPbq/6uSl8raiIogJsEMvf09OQWw+Lp6QkRBETbnAtXV9fdu3f3LbrJy8vr7+8fERERHR3NmWOOjo6OiIjw9/cfh5gRFotFpVJjYmLG1Fu+2dheDIs7mv6QyWJyoMCZLObxzL9e1WZvlbYUmhQUwhUyP5r+UAyL22xsPzkELiQk5OPj8+TJk5iYGM4cYUxMzJMnT3x8fISEhCBqGDdAVdKGj+rqahKJNGXKFLAssImJSXd394cPH0bYD3vU0d3draOjIyAgkJKSMm4VzVatWkWn0x88eDB20gjPjduZd/+EoaubiiWn6cb9kthD74PVhKSj5h1BIVGTRuc5X+bntdwctC0mjcBpNJqenl5PT8+HDx/AXgacAwKBoKOjw8/Pn5WVhUKhIEaAVttcgPfv35uamoL73EgkMiQkpK6uzsvLi9PG6eXlVVdXFxISMp5VSO/cuQOHwxUVFceuEouDtoW1lNbxzNComiyOEngpofF4ZigGgTql6jKZOLuvzEuH0tBl3GRuI6M9mTgb3HgKCgqqra319vbmtLF5e3vX1tbevHkT4uxxBsLX1xeSwvCgoaEhLS29fPnypUuXCgkJ4fF4ERGRkydPysvL6+rqcsgg79y589tvv507d27u3HEN0kEgEPb29igUaufOnTNnzhyjvkCzcVMf1bz7qyxJll9EU3gKJwi8h0ZyfXuOyWL9ZbxTR0l98qk9KPM3dR8cFGehESiOkvldo618ky51WFZWFgaDnT17VkFBgaMMy9GjR319fVeuXAlxwTgDcpKPFMHBwbt27QL7czOZTFdX1+fPn8fExIxWAdGRICkpycbG5pdffgkODu7XAXPckJ6ePnb9uQEASKnMX5t2hclkhFjvMRRXmViB05kMj4TAtw15D2btMFGYtK2QUirzV727aCWldW3Or0g4ApL5WIPJZNrZ2cXExLx584ZDDIu1tbWNjc2zZ88myrBAtA1h1JibRCJZWlpWVlbGxsZO7NQ4JyfH0tJSQUEhNjZ2YnMzxpq5a1sb16UG1hPb/rLZr4mXmzDbymLuSbv7qCzpf+ouK/RtJ7fOP8x8va8o1FnZ9LTRGjgMDsl8rEEgEExNTauqquLj4yfcsJibm8vLyyclJXHadvtPAmiiNAoA+3OD+dw8PDyvXr0SExOztrbOyMiYqCFlZGRYW1tTKBRjY+Px3NL+JgwMDJ4+fXr06NExmiPKikreM/wVjxFwifHPbauYqDUfyB975RZMes4GAGCFvu1eufmPypL2pN2lMxkTMgYKg/rzyByHw718+VJMTMzKympiDYuVlZWYmNjLly8hzoZW25Nhzf3ixYugoCAAADo7Oy0sLGpra//8889ffvllnEfy/Pnz5cuXw2AwRUVFsLixn5/fhIeNMJlMFAo1usVealsb4/Pef+Lrye+oym6vkOYRbqUQrppusRzfdls9NJJnclB0Xc5euQXb5kzyWlGgzN+jm5IbizAIVE1vy1wZ3QuzN/CjxtWjE1uXu/PdzQ5Kz6SXOY1Gy8/Pf/8F2dnZBAKhoaFh//79np6e40ycUVFRzs7OsrKyb968kZWVhWw+RNuTAWDKMlhspLu729HRMSUlZdGiRSdPnlRXH4/oJAaDcfLkyd9++83ExCQkJOT06dNJSUlgg1FOYG4QJSUl2trDp9X27q6k/Ix38NqUpk8V3U3sz+X5xcLN9mxMv5rTWuGls2SrxkLEuOy6lRIaNydcKetu+l3VabKu+b4nc39ZBxY/6mBxmLKAxNU5W6fiJMdDyZnMK4VR5z48RSNRv01dOillzmKxiouL379/n56enp2dTSKRwM9lZWVv3Lhhb2//7t07TU3NsLCwcTMsp06dOnLkiJGRUUREhJiYGGTtIdqeVCCRSAQCAYfDkUikHTt2PHjwQEhI6MOHD+MwP923b9+ZM2dWrVp18eJFHh4eMpm8e/fu7OxsAABsbW0PHz484fEjpaWl5ubmw9jn7urqOl94731ne0FHDfNbSrty6pxTRmvIVOqRrAd/liVtUp/no79srB+nvrfdNuoIFoG+YrrZSFx1kmnyq/RX4aTSwo6amt7Wr2UOA2CpC05K4cXSmou3Jl0lM6ivFx6T5sOP9aj8Mv+6XvRqubKpj54LDj3Z4sbfvXsXERGRkZHR2dn59VkHB4eDBw+SyeRbt275+fmRSKTc3Fw5uTGP59izZ8+ZM2fc3d0vX76M5f5KvdwOaG979JGQkLBw4cK2tjYeHp7AwMD4+HhDQ8NZs2ZFRkaO3Y8WFxevW7fuxo0bV69eDQwMBGPQsFjsyZMnZ8yYAQDA69evg4KCxrrs6A+hpKQUFBTk7Ow81HzuKwkRN8uz89qrQf74OoB5Fo/i50dGo/2N112cvTG0PNEr5VYHpWfsniW6Nsf+1QlDMdWX845MPs4mUyi/Foe9qMmq6mn5psyVcZJS+M+rLiPxzxIwFFO1f3UipvbD2A2pg9LjlXIrtDzx4uyN/sbrJh9nU6lULy+vmJgYNmf3C0wxNDQE3+tff/01JyfHzMzM2Nh4TA1LW1vb2rVrb968+eDBg6CgIIizIdqenJg3b97MmTNXrVoF7uYaGBj89ddfxsbG9vb2CxYsGPVOG3l5eQsWLJg2bdpff/318uVLV1fXvs5wAQGBY8eOgTVN7969++LFiwlWODh83rx527dvd3Fx6e7uHvwXJZSEPi/wAIAPidmm+cs2zf4RA1piiuy/lygYh8zeGVmdbhZxIKgomsKgje5TFHXUur456x5/yVBc5ZbFDlG+SVjZEYNG4zB84N/flLkW/t+G1qJ8QrcsdhiKq6yPv+j65mx0Tc7oypzCoAUVRZtFHIisTg+ZvXOJgvGkNB1oNJqfnx/8W1tb+8KFC/2KhvZ1iYuLi//9999mZmZ2dnbz5s3Lzx/lbuhdXV3nz5+fOnXqX3/99ebNGyg/m3MAOcnHBF1dXba2tsbGxidPngQbCNLp9NDQ0L1793Z1dTk4OOzYsWP27Nkj/JXk5OSLFy+Gh4cLCgquWrVq+/bt33OX5ebm7tixg0ajoVCoixcvjmRreVRAo9FWr17NZDLDwsIGGaRGIpNDE57LiknNUtfNaypfm3qFyPi35jkOzZvreKHfFkBhdalfcURSU6EUr7CHxnwHxVlCaL6RDJvFYmW0lt0sin5ZncmP4tkqbbnB2G6S1UHri4zivIKqEg15FQ055a9lflBh0ebZS//zb6XTglKfXamPJdCIoyXzTmpveMW7awUvG0gdphIaPqr2GlOmTmLTUVBQUFxcrKenJysre/Dgwb5OKRwOFxMT00/JaTTapUuX/Pz8urq6HB0dPT09TUxMRtK0lMVipaSknD9//smTJwwGY+7cuefOnZs+fTpk1SHa/omY+8SJEwjEP95FIpEYHBzs5+fX2tqqrq6+Zs2aBQsWaGlpDXV5/eLFi7t37xYVFYmKivr4+Li6uv6wR8gAzF1XV5ecnPzLL7/w8fFxMnODSP1SX4VIpyIAuIG4SmrzJwAA5svpXZ+z9ZvXJ+VnBDbFJzV8xCAR8+X0F00xmCWhNiT/KoFK/NhZm9la+qgsuYzQiMcIrMIbbDSwmzQ9QoYn8yjT/dPlv1HfprObEJkeG8UqHaHM3zV9iqxOf1mTSaEzTKWm/Sphbjp95k8icAaDweZsLS2t8vLy3t5eKysrf3//b09uOjsvXLhw5cqVlpYWdXX1tWvXLly4cPr06YPnbxaLlZ+fHxUVdefOnaKiIjExMTs7Ozc3NwsLC8iYQ7T90zF3W1vbs2fPFBQU2J9TqdTExMSAgID4+HgGgyEpKWlubm5oaKiqqiorKyshISEgIIBCoRAIBJVK7erqampqqq2tBSNL4+PjGxsbEQiEubn5rl27zMzMBs9532Pu1atXl5WVrVy5cuvWrRy+5u7LH2c0V0YTPkbVZAIAcERh8YbZA/V9+lhTFtKYFFWd00ImIGAIeQGx6cJyM0SVFQUkpHjxolgBHJoHBUcyWCwyndpB7WkidtYSW4s6alObS3LbKhksBhyAGUuoLRHRtp9mzvPT7PDRGfTbxW/O5j7tJ3MRDC7L8dzArNBP5toiCsbiKurCsrK8ohK8QsJofiwSjYDBaEw6gUrqppHbyIR+MhfD4hZO0V0paTpNTvnnsRv9ONvLy2vdunVgwKmzs/NAHikSKSws7M6dO2zDYmFhYWRkpKKiIiEhAVZf5uXlBQ1LZ2dnS0tLdXV1SUlJWlpaXFwc27CsXbvWyckJ6p8N0fbPy9x79+4NDw9PSkoCe4X1myNnZ2c/fvw4Pj6+oqJi4HgxsDOHubm5o6PjjBkzhtcpry9zr1+/fsWKFSgUat++fUlJSVJSUmFhYUO6W2Nj46dPnzIzM9PS0ioqKpqbmwkEApVKRSAQWCxW5AukpaWNjIz09fXV1NQkJSW/Zu7Q0NB169YNpiZMP8520LHQDfPsoPYCAPDG4rCKjMIP78BkMtOL8+LrcouRnZ8662p6WpnAQPrPh8Ro4xX04VLagvL6KtPFBPETq04kMjmzrCCrvaQS0VvV09JAbO+mkskMGpVFhQNwLAIjjOGV4sXL84spMPj08Cr6ypojmWHQGfStyddefOnU0k/mdlMMr5h5DOYmbJlnMhty2yt76ZSBr2fL3FxG20BVa8JzH0gkEpiIlZ+fX15eXltb29bWRiKRGAwGBoPB4XDi4uIKCgrq6uo6OjomJiaKioqjyNmXL1+OjIw8ffo0AACPHz+Wl5cfzE2am5tfvnz55s2blJSU8vLyHxoWJSUlExMTa2vr+fPni4uLQ3Ybom0In983IyMjERGRga1DbW1ta2srgUAgk8l0Op3JZCKRSF5eXhwOJyoqKisrOyrzXzZzs/O5ExISjhw5AgBARESEqKjoD51phYWFYWFhoaGhYPczLBY7bdo0ZWVlaWlpPB6PxWLpdHpvb29jY2Nzc3N9ff3Hjx/JZDIAAAoKCi4uLk5OThoaGn0XajAYDI1GD2yg+3G2o65lbnnRonefzZmOiOKz+T7DEEUPmVhaV1XT0tDS1U4g9lDpNDgcxoPmwQsISuPFFSVl5cSkRrJNOFpoJbQ/K0yO6S1OaymmMugwACbJK6SEk5TjExXC8PEhsVgEis5iEOmUFhKhpre1nNDYSOxkASw0AmkkpmrDp2qnMVsUhx8hZ/eV+XGJRWtslg71QVgsVk1LQ0VjbX17c3t3F4lKYjJZaCQKx8svwMsnLijCITJnsVhJSUl//fXXu3fvCgoKyGQyDAaTkZFRU1NTVFQUFxfn5+dHIpFkMrmtra2+vr60tJSt5IKCgkZGRkuWLHFychpqfvPXnM3Hx+ft7R0fHy8hIfH8+fPhKHlPz6dPnxobG9u+gEgkMplMNBotKCgoLi4uLy+vpqbGjoODANE2hP+AQqFMeP7VN5l7w4YNa9euBQDg7NmzxsbGA0zho6OjT506VVZWxsvLu3DhwgULFhgYGKirq7M3779njIqKitLT01+8eBEVFUUkEpWVlffv3+/g4MCeiPT09Bw/fvzMmTPf9Jb35eyz01c56FgAAPAk5bVnRSgAwP6y2WMsoTYpdSat6MOdluRXNTl0FkNVUGbBFD0DMRVtEYUfxnl1Untz2yrTW0peVGcVd9UhYYh5crprxWYbqesMlbNRcORpjRX9ZJ5se1xOTGpSusfALMqysjI+Pj4DAwOzL9DX18fj8T9UcnBdnpCQUFBQgEaj7e3td+7caWJiMmzOBgDA2dm5oqJi8eLF4NwaAgSItscVJ06ccHBw6LvPPYHM7e3tTSQSAQCYNWtWTk4OiUSaN2/eN03Dx48fvb294+LiYDCYpaXl5s2bFyxYwDusDolEIvHFixdXr16NjY3F4XC+vr5r1qzBYrHsfe4HDx4ICAj05+wvMczsNR/4OZlC+V9euBJL2M1g/uRTldSinLM1r9Kai4XRfK6qFksUjFUEpYd3q5Ku+qeVqcHFcR3UXhlevKPgjM3G9vy8fANxdtK1F7WfOVsXrxRo4C4rKjnpZd7T03PuCwgEgrW19ebNm+fPnz/sIM3CwsKHDx9evXq1tbXV3Nz8xIkTA2eOfI+zwTLg0dHR69at+3qPCQJE2xDGHH17hU3IABgMRn5+vpCQkJycHJFIPH78OFj9FISQkFBkZGRfF2VXV9f+/fvv3bsnLS0NBqqMVvJYbm7u//73v9DQUCkpqT/++GPu3LkgcyclJYWGhrJrqLHX2XAY/KzGv5w9idHU2nysKPxZZYYkr+BO7cVLFWbxIEehkDuJTn1S+e5BSXx+e7UYFndQZbGDtsXA62xdvFKw2Q4cv8Ckl/nDhw93797d0NCwfPnyAwcODDW5Y4BJ6oMHD3777bf6+noXF5eAgIBvUi+FQjly5Mg3ORsCBIi2f3bmfv78+e+//w6WYVFVVVVRUXn+/HnfsiehoaHsIqyvX79eu3YtaFO2b98+FpGl2dnZnp6eycnJjo6OgYGBWCw2MDDQ398frH76H87WXOmoM/k5+3FO7NHicCqTtlNr8Tp1Gx4EetR/Ir+96kj6g4zWMmspLX8dVzER0W9yto6I4gNTz0nP2c3NzRs2bHj27JmpqemFCxf09PRG/SeIROKlS5d+++03LBZ7+fLlfnVLcnJy9u/f39raCnE2BIi2Ieb+Nk3u2LFjgC12X1/fuXPnUqnUo0ePXrhwwcLCIigoaITBsQODyWRev3599+7dgoKCkZGRGhoaYH/uI7fOXSWnERk/C2enVOYfLwwr6KgxFlc7PWudPP8YdmtgspgPSuOPZ4YKoHgu6bmbKE7v5xv/STg7MTHRxcWls7Pz3LlzmzZtGtOo9fLycnd397i4OHd39ytXrmAwGPa0FdyrgjgbwiCB8PX1haQwztDW1paWll6+fPnSpUuHl8c1bEhJSTk6OhoYGKDRaBqN1t3d3Y/CaTSasbHxkiVLHj9+7Ovre/369YEjcUZh5giDzZw508HBITIy0t/fv62tzcnJSVxvqn/bGzoC+Ek4+2Hm660fbreSCN46S/5ntEYYwz/WMtcRUVwwZeabug9B5W8lqJhpEvI/G2ffvn2b3YZy/vz5Yx2+Liws7ObmhkajAwICYmJiFi9eXFxcDHE2BGi1Da25hwYKhVJWVpaenh4bG1taWspisRAIBIFAmJBO4QQCwc3NLTIyUllVBbZzFgWH/Ek4+3JCmH/Ni7kyun6GrlK8wuP50+xO4dOEZD921v48nO3v779///5FixYFBwdPSNdqaWlpEREROp2OQCCWLl26fft2iLMhQLTNBQgJCVFVVdXU1OSEwfT09ERHR69fv56Hh+fVq1czZ05AIUkajXbv3r29e/d2oxnSR+yuzd1uraA3pNKnXMrZzsqm/zNc/XVbs3EAncnY9/7eo7Kkn4qz9+3bt379+qtXr05IE/qMjAxbW1sikaihofH777/Pnz8fMoYQINrmJtBoNDqdzgnDsLKyysnJuXv37ooVKyZwJA8fPlyzZo2akfa7F3EoFCo/Px/MyZmEHpe3EQcb/lYVlHm50Bc5ceXA6Ezm/Cjf4q46H7ztpgUuk/t1u337tru7u6amZlZW1oRwNlvJ3dzclJSUMjIyxnm5D4HbATXunHigUKjCwsK2traJHcbx48ezsrLWr1+/bNmyiR3JsmXL1q9f//Fdjp+fHwAATU1Nw+jPzflIykg73BgpisWdN3FHTmgJTyQcft7EXRSLO9kRk5SROonftcTERA8PD3Fx8bt3704gZ4NKvnHjxrKyshUrVnDCrB0CtNqGMDR4eHgUFRVFRUVNVAXm/Px8IyMjKyurv//+mxM64ZPJ5MWLF799+zYtLU1DQ8Pf3//KlSsVFRX9KrFwNayf+5Z11t6z2jVHiiN2SRIaCla/DVAWkn3zy6QNU9XT0/vw4cOLFy9sbW05RMnBUiq3bt2CzCAEaLXNTfD39yeTyQcPHpyQWRSNRtuwYYOkpOS9e/ewnNHbCovF3rt3T1JScsOGDQwGw9vb29TUdNWqVVQqdXL8xx/nxJZ01njpLOEQzgYAYI6UppfOkpLOmsc5sZPvFaNQKK6urtnZ2ceOHeMEzgaV/O7du1JSUrdv3w4JCYHMIASItrkJgoKCr1+/Tk1NPXDgwPgzd2BgYF5eHkiTnCMTcBqRl5cXGBiIQqHu3bsHh8OdnJwmAXM3tTYfLQ43FlfbqrGQowa2VWOhsbja0eLwptbmSfaK+fr6PnjwwMLCYv/+/ZwzKikpqeDgYDgcvm3btsbGRsgSQoBom1uZm8FgjNvv1tTUHD58eMuWLVZWVpwmEysrq82bNx8+fLimpmYyMfexonAqk3Z61joEnLNeQAQcfnrWOiqTdqwofDK9XPn5+WfPnsXj8Tdv3hy47c2EKPnLly/JZPKuXbsgMwgBom1uZW5dXV2wJ+Y4wNPTU0hI6NixY5wpk+PHjwsJCXl6eoKxeyBzb926lXv/y6lFOc8qM3ZqLf5eHTQWi8VgMMAyOEwmk0AgdHZ2gjMVBoPR0tLS3NwM9ohkMBjNXwCWxgTraHZ2dvb09LBvNdThyfOL7dRa/KwyI7UoZ9K8WV5eXoKCgu/fv1dSUuLA4c2dO/fo0aOhoaHJycmQGYQA0TZXMre1tbWFhUVvb+84rEJevnx57NgxYWFhzhSIsLDwsWPHXr58mZ+fz2ZuX19fDmmBOgycrXkljhVYPuWfflDt7e1VVVU1NTXgIZlMzsrKysnJIRAIYNhBSUlJWVkZqAx0Or26urqmpoZEIoGHNV/Q0NAAfr21tbWsrKy8vBw8rKury8rKKiwsBA+7urqamppaW1spFMoAI1ynbiPJK3i25tXkeKfi4uKio6OPHz+urKzMsYPcvn27tLT0oUOHIBsIAaJtrmTua9euvXv3bhyipn18fGRlZcFm2xyLtWvXysrKHj58GDxEoVB4PJ5KpTKZTK7InHn16tWhQ4f27dsHLrXTmosXC2rXV/3D0z09Pa2trR0dHeAh24ULbpSwMwvAdTO7AGe/ZTT7c/BbSCQSPKRSqX2vbG9vr62traqqAgtq0mg0kNS7urrAlX1XVxeFQsHAkDu1F6c1F6cVfZgEL9Tvv/8uIyOzbt06Th4kLy/v0aNH4+PjU1JSIBsIAaJtroSSkhIGg4HD4TQabYx+IiIiIjo62svLC+xqwLHAYDBeXl6vX7+urq5mf8hisZ48eeLg4MAJ+9wsFquqqqq5uRlc71paWsrIyJiYmIBnIyMjf//992vXrgEAcLclRQCOsRGaxh42BoNBo9HsfwECgZCRkZGXlwdLXSKRSHV1dU1NTUFBQXDKMuMLQO8IBoPR19fX09NjF9qTlZXV0NBgt37B4/HS0tKiov/0+GK7KMCUZZDUSSQSyPoUCqW0tBQsbrNUYRYeK/BbRkhQUFBGRgb3vkcFBQUxMTF79+7lcCUHAGDVqlViYmLnz5+HrB8EiLa5GL29vTo6OmOxz00gENzd3dFotJubG+fLwdXVFY1GP3jwoO+Hc+fOBSPU+jYeHR80NzfHxMSAfvve3l4cDqegoHDz5k3Qq5+SklJfX5+WlgYuapWUlFAolIiISFVz3auanOVKZurKqlOnTgXXwRISElpaWmpqav+8kHC4pKSkqKgomIkHg8H4+PiwWCy4CofBYPAv6Nv3AvYFbD7m+QLwUEhISEpKSlxcHDxUVlbW19fX0dHh5eUF5wRSUlLCwsIgpbE952g0mgeJXjV1Th6jycNr27Nnz8DPt2/fvnz58uvXr3PRGxQUFIRGo1etWsX5Q+Xl5fXw8IiIiGhpaYFMHwSItrkVeDz++PHjc+bMGXXmjouLIxKJDg4OY93ga1QgIiLi4OBw48aNvlva7Ag1RUXFMa2h1tPTk5WVFRoaGhcXBzqiFRQU5s6dGxQUBAAAHx8fuBT++PEjuFx2dHRcs2bNgQMHwCX1li1bSCRSWVnZ2/IsOouxXN0cj8fjcLixbjn1PSCRSND3jsFgpKWlQb8OAAA4HE5NTU1JSQmcMdiK68CQCB5DRQcHB/CLz58/Dw0Nffv2LXg4Z86cmTNnnj59mj3F5DS1YTKZoaGhjo6OIiIiXPG+r1ixgkqlhoWFQaYPwkCvMCQCzl9ogiZydHuFgUtDJycnbpGDk5PTw4cPP336NG3atH7MHRgY6Ozs/OjRo9GqW04kEtPT0zMyMjZs2CAoKPjo0aP169eDBSktLCwQCISmpmZGRga42gYA4MCBA3A43MjICDzsVzqDXcEmurdYVVBGRVCaQ6fwcDg//78NQ3WklFUFZbAejjo6OiAFTp8+HWwxCR5mZmYSiURTU1PwenV1dQAAduzYsWfPHjD8DYlETmxXq9TU1IaGBmdnZ25Rcg0NDU1NzadPn27ZsgUyfRAg2oaY+19QqdSEhAQsFmtpOWo9MRkMBplMHsBMk8nkkZRgs7S0RCKRiYmJfWkbZG5PT08TE5MlS5YMm7npdHpubm5aWtrixYtlZGTi4+MXLlz4mbp0dGxsbPT09MDL8vLywD/8/PzgcDjIZwAADCYhjUQmv28p3qKxYBQVg8ggo2BIFPy7bzGdyRhJV7EFU/T+KHzR3t2FFxCEw+F///33v49DIm3atCkvL2/WrFkAALS1tdXW1vbdPr906ZKvr6+amlpWVhYGg2lububh4Rnn2rSvXr1CIpGjqOSg64WHh+ebyd8MBoNEIvWd+gwDDg4Op0+fJpFI7J0OCBD6z7AhEXALcwcEBIyWt7y4uJhCobi7u4Pe3RGioqLC1tZ206ZNu3bt0tfXr6+v73dBXFycg4PDoUOHHB0d2SnFQ4WgoKC+vv7Tp0+/edbAwODp06fOzs6Dj59qaGgIDw8vKysDACA3N1dfX//XX3+NjY0FAGDmzJmgBxtMndLQ0AgJCUlPT8/Ozga/O2/evLlz57L3jAeDzLICKoNuIKYyKvrwsOrv7RlHHlQ+3Z/zv/Wpe1spHf2fjtTsl3/pbsXjkfyKgZgKlUG/Vxn39Sk+Pr6AgICYmBgXFxdwf/3UqVMrVqwwMzMDL8jOzmYwGBQKBfTAHzt2TEhISF9fHzxbX18PbvyPKRITE/X19UdFyQEAOHv2rLm5+alTp3R1dS9cuND3VHl5ua2trYeHx65du/B4fL+zQ4KZmRmZTH7//j1k9CB8FywI3IP79++LiopWV1cTR4b79+/DYLCioiLGaAAsQQX+bWBgcPny5b5ne3t7paSkGhoaGAyGk5PTmTNnhv1Du3fv5ufn7+3t/d5z5ebmdnd3f096LS0t0dHR4N9sAvb392exWDQaDYzS2r17N3jBq1ev6uvrB/+vqW1oi04qoNHo37vgQsLDKcHuHZSe0dGE8id1xCbw742p+59Uv+x7NqYh+XpJyPb0I7fLHo3kVzooPVOC3fXCdjKZzKF+Nzo6+vDhw6dOnQIPjY2NAQCYPXs2eLh06VIkErlo0SLwsKGhgUKhDOn+TCYzPa9iAJkzmUwBAYF9+/aN1tv3+++/l5eXs1isly9f8vPz9z1VWFgYEBAA/r158+Z+Z4eEtrY2GAx2+vRpyNxB+B4gJzmXrblVVFQkJCRGWP00KSkJj8erqIzOym/aF/zjvYHD+3nCP3z4AIfDwYWpiYlJdHT0sIs4qqio9PT0tLS0fG+ZO3Xq1H7e+NLSUvDDgIAAb29vGAzW2toqLCysq6uroKBQWVmZlpYGRmmFh4crKyuDFwMAMNRuEz7h8MZOyb/yu521queaaH99QSW8VxDDJ4Qenb1eV8Ul/x7AYGj4f3pQWkoYW0uaXPx0e4S/IoTmE8TwtZAJNS0NU8SHtiVv8wXsw6NHj6ampsrKyoKH6enpdDqdvaWyZMmS9+/fKysrh4eHa2lpkclkOByORqMHuH9ETPa1dAUAwH1P5lVVVd3d3ex/6Mhx4MAB8A8EAtHPE973FUAikSPxk+O/gB02AQEC5CTnehgZGaHRaHY9jeGhqKho8HvklZWVWlpaCASCl5f31atXAAC0tLTo6enx8vJevHix75WfPn1qa2ubN29e3w9bWlrYXkohISF2Gc5hQEZGBgCAgTsugMssOzu7gwcPSklJqaioFBUVAQCgqakJnnr37h145cWLFxMSEu7fv8/2e4/ExEsJfX6VatqYZ2NlPI7cYdcp+1eMvc1T+EQH68AnNa9+52UW7bw/539EOgkAgMi6N2bRzh7vDzWS/pMdFN+U1k3rMRTV/c9bDRu19xocc3lj7QjvM3/+fF9f3w0bNrCFv3//fjBYjEqlfvjwgcVilZeXy8nJAQDw8OFDQUHB2bNnNzU19d0v7wtpcSE0EjaAzMHtD2npwc42/P39kUgkCoXqq+QwGGzWrFlVVVV9r7x//z5Ybfebb1ZwcPD3zg4SioqK4OAhQIBoe/IAhUIFBQUNu8BnfX09uyLHD6GgoHD79m0wV9jQ0BAAADExMUVFxT179uzYsYN9WVNT04oVKx4+fNjPUHZ3d7Pjd7BY7Eiqo4Brtc7Ozm+epdFor169cnd3r6mp0dPTu3DhAkjwYBzZ9OnThYWFDx06BD4CAAB2dnZmZmajFfhz2JFPWeKf1OoqjN3Ox7iouP+UGGsjd8sJiA12EsAjflBjKwyAK/LJ8SI/j1AdpyyIEvDT9pbk+fcmoVWRF4tv+2rtFMWMVRYfOOaWrrbRve3SpUtPnjzp6OgIxu2DcW2SkpJCQkJgKh2ZTE5NTQWryvzxxx/m5ubPnj3rW/HNUEfp7lbBfjIvKq7oq5Cfx/9lHjAY7Nmzx97eHoyTAJVcQUFBXV09LCxMXl6efVlAQAAKhQKj5fuhqalp5cqVFy5c+ObZwUNJSQks3QMBAkTbkwcUCiU4OHjY/bm7uroGvwoBQ7S2bNlCJpPBJN2cnJySkhK2zxCkUmdn58DAQHbQNRsiIiLsyp09PT3ginl4AH3jYDluEI2Njexd6qqqqqVLl/75559lZWXe3t5z584FAEBUVBQsMyctLd3Y2Ojn58cuGTa64MEgTi1HLVRtRMI/swiNBr+UIncwhFBa2QReQKASJXiGEBulLqjsMGXe45oXbZTP05Q75WE71d3FsP/S88uG+I+E0pDZF9VwY9geAxxzN3EMc7KFhITevn1LJBLj4+PZ6gSDwaZOnQr6yQsKChISElasWAHuDb1//z45OZlCoQjxwfvJ3OeZ0MPoMjqdARYUAtl3kMOAwWBnz55FoVBnzpwBQ+pKSkpSU1P7auy9e/fS09P/+OOPryPJOzo6nJycAgMDV69ePcImY1JSUmC5WQgQINqePMBgMCPpz00gEIZaZcXX13fatGlnz54tLCz89ddfb9y4wd4/ZrFY69at8/X1NTY2bmtru3v3LhisnpOTA1J+a2srmB2Umpq6ePHiYT81Dof7TFdxWW+yWgg9FD8/PyUlJVtb25iM+qziTiUlJfCC6w9e5lX03rt3z87OztpxZxtdPPx1Jlj8K/x15qV7MeAhAADVtQ2X7sVcuhdTXdvww0MAAPp9vd/h6+SPALHe0QhrqPzPTnN2JX3Xn6hzka1dhJ5uGkkYPbQtz/VKy7Bw9PXSkHetWTQm3VrChH2qoKvkbWPKIc1tGDi6i9b9oj4OAIAaYn1J97/LTTqTwWSNtOEKOObYyuZBSol9+D0pfe+Qh4dn6tSp4Ne1TJfl5H4MCwsDD2Pi08FFcH1jy6V7MTt2HzU1NQXTx18nf2R2V82d2qo35TNV91JY99KFf73ZnZRbDzIfuHwfvGPJ19f39OnToJLfvHmzbxR6amrqn3/+eefOHRQKdevWLXAy+uTJEwqFwmQy169f/9tvv4GRd+yzw4OIiAhE2xAGABSSxq0Ae4XZ2toeOHDg5MmTQyq5RaVSh5pCjcfjk5OTjY2NLS0tXV1d2aVFwJrbkZGRMTEx4J3BVXhcXFx+fv7FixfxePylS5dWr15tZGREIpHAHPThAexWee2CXwn/6otSDDDXqLe3d+//Htm5eOipwl+/fh2UxFNLkY3IhempooKDgzderIiqldOGI8FCX2nNKrm1dPZhQysxqlYPAADD1o4psj84/Prr3zmk/88Vl5TbFBiL7uhl0ZlAdC48rYRGl2BgEaihTVNQ/NvU1vrlX8rqyLs881jff/GZwmtVxLqFcesAAKAxaasVPw8hu6OgvKdmp5piRU/ty4a4N43JGASGATB/kbKU5pUYnszBMRfSRVpr9QYjJfbhj6T0o/+IdoeRrlpaTllUrZ7SiqijmvkqMnwNrcTnNTOys9LZruy0ZpU38WWZd9XwePzvV5+/rFTtJVGqmuEnIrEdWVRwrjak5/X09Lx165a5ubmbmxt7PwXE5s2bi4qK8Hg8i8UiEolg5tv69esLCgqysrL+/vvv6OhodgED8OwwZT6yvSQIEG1D4A7mPnHixOBdcwgEYhi9swQFBQ8dOrRmzRp29i0IOzu7r/udFBQU2NnZ/bNqXL/ezc2NTCaPsNrG//MWq6MyFQAW6OjoHDl1Lbp6qoDEP0G82trawsXk2pp/3A8oFEpefkpeDau6uppKVR2qBR82cj/VhGXhOnr/ifbHoGDzVVveE+D0oa99bSRn3ygNQcHQePR/OqvennXm64srempNxT6TmSK/7BYV1y0qriN/Fjrr81PAWBPploPBEVMVpxjqKqfllMFgMJNt8fNlsk31/gnO+KIMQEdHZ2qVIJkGNHx4/PHZPiF5oznGmiCJsruoDdKP5ePj4+bmNnPmzH6nQO9RX9TX12tpaUlKSi5atGiEyR3/kTmdPkI3O4TJDdjwNkchcA66urpsbW3b2tqePXs2yPhwCQmJbdu2+fn5DXWxa2VlhcViP336VFhYOEAVCzqdHh0dvWDBgtF90s7OThEREU9Pz3379g3e+Umj0VZ/Abu29tihpbX93jv0mzwq+FLBAGCOOnKNGVNKTGha6Lb16lZ7dIY2huSWzD+rIvI6i39VcV0mv2iAK5ks5vu2D8aiM0b3iU5/CL+U/3wfzmqrHYd248jILvA+E1Vb16hqewgAgPzw7bWZIYKCgj4+Pnv27Ons7BxSuRU6nW5mZobBYD59+lRUVDTwd1NSUtTV1Ue9qv+hQ4cuX74M+ckhfA/Q3vYkWXNbW1v7+voO8isiIiIDp1F9c3Jgbm5uZmYWHBzc29t7/PjxgXw4SOSoczYY9QNmVA9pwxKFQj148GDhwoXDDrwf1OSATg9+Xbb5LizmC2ejEDBTddQxO8J+B5yU2OfRCmN4W0iEId2zh957peTeEa2dy+XtbpT92UweKHcODoOPOmd/noh8GTNeQJADNZ9Epga/Ljv5VppX013V9hAKAVs8ren8wWUbN25ctWoVGMDY1ja0GPgrV66YmZmFhIT09vYeO3Zs4ItNTEzGohNPc3Mzt/Q+gTAhgJzkk4S5r127xmKxqFTqYMhJVla2XyrqD+Hj48NgMA4dOoTD4Y4dO7Z79243Nzd2Ue7xQV1dHbjLPuTJKRwOCqeqqkpRUXEsvOVH/yJmVwoDwOdltvFU5Doz2hQpAQD4d1NAkle4pndoOes3SkOXys4Tw+DdFJe+rI+7Unz/N+1d46xa4Jil8eKcpvPvP5T7vRSmMfrJfBoATHN0sAcAAGwKV19fr6Q02Ej7ioqKS5cuZWZmCgoK+vn5eXl5aWlprV27dpwfraKigl2XBgIEaLU9mQGDwTAYDJVKbWhoGPhKNTW14uLiwd/57du39+/fj4qKAkO1PTw8hIWFt2zZ8vWW9pgCrMcuITHM6CoWi3Xy5EknJ6exiPdp6Pw8W5ITgR9aRD66DDdFqv9qSYFfvJwwBA9HVnv+i4bYRTJWAADwIXlXKzm+bUpJackcZ6UCx6woyXEsUt/cSWOwBpC5srIyW2cGAzqd7u7uvnHjRtAx7uHhgcfj161b9/z583F+tE+fPg1+qgEBom0IXI/U1FQjI6OBrZWFhUVdXV1JSclgbvj69WsnJycajcbuRwl2bExLS1u2bNl4PlpeXh4/P/+waRsszgWHw52cnLq7u0d3bCecmN7mjYHuAqba306IV2DwNRI7O6mDSoB+3/bh4IfTdCajsrcW3LfOas8HAOC3/Au5HR/HTeCd1N5GYqcYFicnJsVpem5vM8NvMWEAmcvLywsICAyySiiJRHJycoqNjWX38MjIyACbnaxcuTIpKWncnqu9vb2urg7skQoBwrdXaFBI2uRDcHDwrl27BujymZ+fb2houHXr1n7VSTkcJiYmPDw8UVFRI7kJGKGWlJQUGho6Wv25B4OkgsyVOYHBVl5zpDS5ReAJDQWub895aS/eqWXPjS+ClZUVkUhMTU3lojFHR0fb2trGxcWZm5tDpgwCtNr+WfDDLp+qqqoYDObmzZtcFK3a1dWVmZm5ZMmSEd4HhULdu3dv9+7dzs7O4Pbn+EBfWRONQKa3lHCRIqW3lKARyNUKFlz6IpiZmWVmZnJXSHZiYiIWi+2XMg4BAkTbPztzo9HoOXPmkMlksL00VyA2NhZMzhn5rVAolKenJ9ife9yYmweLNRJTfVGdxUVa9KI6y0hMlTPDyAeDefPm0el0LlJyAADCw8PnzJkzWqXyIUC0DWHyMDfYiyksLIxbHufRo0eSkpJqamqjdUMDA4OnT5+6u7v3LXI+prDhUy3uqivpqucKgZd01Rd31dnwqXLvK2BsbCwlJfXo0SNuGXBhYWFBQcHIXUoQINqGwN3M7ebm9nUEg4mJCS8vb2RkJFcEN7BYrOfPnzs7Ow+p4tVgmPv9+/dDqgs7EthpmKLgyJSmIq5QnpSmIhQcaadhysXWDQ53cXF59uzZmKbsjyJiY2PRaLSTkxNkuyBAtP1TM3dSUhIK1b8aNh6Pv3DhQk9PT2JiIuc/RWJiYk9Pz6ZNm0b9zgICAiwWi0Qi1deP+SJYFCdsK6v7rPI9V2jOs8r3trK6ojhhrtb/DRs29PT0jGco+EgQGhpqb28/+K5lECDahjA5gcViUSgUEokEE1pAwGCwZcuWmZubnzt3jvMf4dy5c+bm5oMs3ToMdHZ2amlpjcM+93p58/ctJQXt1Rwu8IL26vctJevluT6YWVNT08bGBuzFyeHIyclJTEzcuXMnZLIgQLQN4Z8Fq5OTU19vIQqF2rhxY2Rk5CBzWycK+fn5kZGRGzduHLv+Cjgcbtu2bS4uLqOez90PBlM0ZHjxlwoiOVxbLhVEyvDiDaZoTALNX7FiBecrOQAAJ06ckJeXNzExgYwVBIi2IXyGvr4+kUg8ePBg383sefPmCQkJHTlyhJNHfuTIESEhoXnz5o3hawCHe3t7m5qarlq1aqx7JjoKznhRnZXfXsW586T2qhfVWY6CMyaH5i9dupTzlTwrK+vx48fr16+HLBUEiLYh/AOw40hqauqBAwfYzM3Ly+vv7x8REQG2CuZAREdHR0RE+Pv78/LyjukPgfncYA21MWXuzcb2Yljc0fSHTBYnxkkxWcyj6Q/FsLjNxvaTQ/OFhIR8fHyePHni7e3NmbFpNBrN09NTSkrKy8sLslQQINqG8APmdnFxmT59uoeHx1j7h4eB7u5uDw+P6dOnu7i4jMPPjQ9z8/PyHVRZnN5a8qA0ngOV5EFpfHpryUGVxfy8fJNG87dv3z59+vRz585dv36d08ZGIBDmzp2blJR05swZfn5+yExBgGgbwneZG2zsj0QiQ0JC6urqOHCm7+XlVVdXFxISgkSOU6u68WFuB20Laymt45mhpYRGjhJ4KaHxeGaojYy2g7bFZFJ7FAoVFBSExWK9vLyKijgrAc/b2zs+Pt7Ozm7FihWQgYIA0TaEgZhbV1cXrMQyderUM2fO3Lp1686dO5wzzjt37ty6devMmTNTp04dZxN/7949DQ2NMS3D4q/jKoDi2ZxwpYdG4hCB99BImxOuCKB4/qe1avKpvZGRUXp6upCQkJOTE4FA4BwlDwoKmjFjRlBQEGSaIAwSUCuRnxRdXV0HDhxYvXo12DObyWS6uro+f/48JibG1HTiK2wkJSXZ2Nj88ssvwcHBo1tiZQjvBgyGRqPH7tdTKvNXvbtoJaV1bc6vSDhiYgVOZzI8EgLfNuQ9mLXDRGHStp9KTEy0traeP3/+48ePvy5mMP5Kbm1tbWNjExERMW7+JAgQbUPgelAoFDBOh0QiWVpaVlZWxsbG6urqTuCQcnJyLC0tFRQUYmNjJ7Y4M4PBuHz5speXFxqNHov7P8x8va8o1FnZ9LTRGjhswlxfTBZzT9rdR2VJ/1N3WaFvO7kV/vbt2+7u7uvWrbtx48ZEzQhBJTc3N5eXl09KSgLb2EOAMEhATvKfHRgM5uXLl5WVlTw8PK9evRITE7O2ts7IyJiQwdBotJs3b1pbW1MoFGNj4wlfgjCZzNTU1LHozw1ihb7tXrn5j8qS9qTdpTMZE7XOBjl7r9yCSc/ZAACsW7fu1KlTt27d2rhxI41Gm5AxZGRkWFlZiYmJvXz5EuJsCBBtQ/gPUlJSOjs7B76mt7cX7DgiKCiYmJgoLi5uaWn5/PnzcR4qgUBwcnLatGkTjUZTUVFJT0/38fGZKMMKgh2hpqioOLo11GpbGx/E/u2ZfONOS6ocn9ijsiSPhMAGYsc4P2APjeSREAhy9rY5k7kUNo1GKy0tjYyMPHLkSGxsrKGh4e3btx0dHcd/nzsqKsrc3FxMTCwuLk5aWhqyURCGCshJPslBJpOXL19+584dISGhAS4LDg7etWtXQkKCgoJCd3e3o6NjSkrK0aNHDxw4MHa1yfqiqKjI2dm5pKRk48aN+/fvP336NFhH2tTU1M/Pb2K3IWk0WmBgoL+//6NHj6ytrYd9n/burqT8jHfw2pSmTxXdTezP/WUdWPyog8VhAJO1S8d+q8ZCxLg4b0sJjZsTrpR1N/2u6jQp19ksFqu4uPj9+/fp6enZ2dl9YwyPHTvW1NTk4eGhqqoaFhamrq4+DuNhMBinTp06cuSIkZFRREQEVHscAkTbEL6Buro6TU1NVVXV169fD565qVTq0aNHL1y4YGFhERQUpKioOHYjZDKZ169f3717t6Cg4LNnzzQ1NUGm9PHx4RzmBgAgPT19yZIlw2Durm7C5aInKa1VBR3VzG+9bmkLTknhxVIq848XhhV01BiLq52etU6efwxtOpPFfFAafzwzVADFc0nfffLFoL179y4iIiIjI+ObriYYDBYVFSUmJpaYmOji4tLZ2Xnu3LlNmzaN6VZ3eXm5u7t7XFycu7v75cuXsVgsZJ0gDA8IX19fSAqTFU1NTTY2NrW1tcLCwlFRUYsXLx7AWGhra0tLSy9fvnzp0qUiIiI2NjYGBgZXr169dOkSEonU09MbC+LMzs5evnz51atX7e3tIyMjZWVl/9FLBMLCwqK0tLT6C0pLSy0sLMZn3f89yMjIzJkzx9HRcebMmUpKSoP/4sWs53+UxjSTukDGRsARfefKU3FS23TtAACQExJ3VbGYwsQ9qku78ykGAYNPF5FHjUGEeX571ZbEP4JL4s0lNe8ab1OXVphkak+lUlesWFFaWkomk8FPkEhk3/poSkpKa9euBQBAXl7ezc0tPz//3Llzb9++1dXVlZKSGvXxEInEc+fOubi4tLW13bx589ChQ1DcOASItiF8m7MtLS0/fvxobm4eGxurra3t4eHh5OQ0APuCzL1ixQpXV1c+Pj5lZeXVq1eXlJQEBga+ePFi7ty5wsKj2cbx7t27dnZ2VCr13Llzvr6+GAzmP6qJQJiZmeXl5TU2NlZXV9fX18+ZM2fcemN/j7l1dXXj4uJsbGwG/y0WnJjYVKwqJOOkZLJdc1E7pbuyu5l9drG8kaWMFvtQQ1LRUcaojtxx69Obt3W5dvIGWMSoBbF3UXv3p947khFCZzFPGa3eN8OJb4xLxk6MUUMgSkpKenp6zMzMVq5caW1tnZqa2jdIwtbWdvbs2eDffHx8K1asUFNTCw0NDQgIUFBQGN00is7OTgsLi+DgYEdHx2fPns2aNQsyTRBGCMhJPmk528rKqrCw0Nzc/Pnz53x8fAAA3LhxIyUl5fbt2wN/Nzg4GAAAR0dH9tolOTnZz88vLS1t/vz5u3btsrS0HAl9slis2NjYgICA5OTkTZs27dixQ1hY+Hv+ye7u7gMHDmRnZwMAsGbNmg0bNvS9kslkjnMOD5PJZDAYKBRqGJlpdAZ9Y+ipGGY5DAbjQ2J66RQAAK7pbVgw7RumPL255PSHJ6WEhvXqNiunzsFjBEYy7HZKd0hpwq2PMRgk0kXZbKPaXD40z8/wIuTk5OzYsYNIJCIQCF5eXjAj4OzZs+bm/XuS9vT0nDt3LiAgwMTExNvbe4RKDgBAS0vLjRs3Lly4MG3atBMnTrAnChAgQLQNYVCcDW4Y8/PzJyUlGRgY/PAmNBqNTqezDykUSmVl5dOnT+/evQuDwVauXLlkyZIZM2YM3rSxWKzs7OynT5+GhISwWKw1a9asX78ej8f/0PX9PeYmEAjHjh2bMmXKtm3bxj8Bt66urra21sJisEVA6XT6xr9OxbDKYQBshoiSBl7uQUk8Agb/sCQAx/vdStQZLaU3i6Jj6/NmS05bLG9oIT1dEM03pOV1XH3+31Xvkxs/WkpruavPnSk29ed5Efpy9r59+86dO0cmkxEIxJs3b75X/burq+vGjRtXr15lMpmrVq2aM2fOzJkzB+9kYrFYVVVV7969+/PPP9+8ebNw4cKdO3dCvTghQLQN4QdwdHQMDw8HAGDt2rV919YMBgODwRz5gsHcp7e3F2xq2fcOFAolICDA39+fRqOJiIjMmjXLyMhIU1NTQUFBQkJCSEgIjUYzGAwSidT6BQ0NDQUFBWlpae/evWtra0OhUHv37t21axcGgxn8XnV7e7uLiwuRSAQA4ODBg7/88guY/Orp6QkAwOnTp8ffMoaEhOzbt6+iokJAYFDr4KvJ4ScqI2EADAVHJiz0251+J7mpSFFAIn7x7z/87qfO2p0pQQUdNXAYXE1IxkBUWVNEXoFfXJpXBIfm4UWiUXAkg8Ui06ntlJ56YltlT3NBW1V6a9mnzjomizldeEqAibuakOxP9RZQKBR7e/vW1lYAAJycnBYsWODu7g4AwJQpU8C3Y2Cfyu+//378+HEqlYpAIDQ1NU1NTWfMmKGioiIrKysqKsrLy4tAIKhUamdnZ1NTU0VFRUFBQWpqKqjkAADo6endv39fQ0MDMkcQINqG8ANcvHhx586dYIOQx48fm5ubb968GTwVFhbm7Oy8c+fOgICAwdzK19e3o6Pj5MmTXy+pOzs7s7OzHz9+HB8fX1FRMXA/RDDv2dzc3NHRccaMGQMHtH8Pubm5O3bsoNFoKBTq4sWL2traVVVVK1euBABgxowZly9fHvytqFRqTU1NbW1tZmZmWlpaRUVFc3MzgUAAbTQWixUREZGVlVVTU7OwsFBTU1NVVf26ShqNRlu9ejWTyQwLC/thDbXUyvy1aVeIdCoCgJ/RXOmgY6Eb5tlB7bWbYnjFzGMwY2YymenFefF1uZnMhtz2StDBPgD4kBhtvII+XMpcRttAVWsCy4GBIJFIYCJWfn5+eXl5bW1tW1sbiUQCp5I4HE5QUFBCQkJJSWn69OkGBgaGhoYjKZDHYDAOHjwIptpraWldvnw5MjLy9OnTYI/5EydODOYmzc3N4JgTExMzMjIGLrkDh8OVlJRMTEx0dXWNjIyMjY0nXOYQINqGwLlIS0vT0dHBYrEBAQHe3t5IJDI0NHTp0qU0Gs3S0lJNTc3FxaWwsNDHx6e3tzcqKmrBggWDuW1XV5etra2xsfE3mbuvRa6trW1tbSUQCEQikU6nw+FwNBrN/wVCQkKysrKjUqO0H3NPnz594cKFoDGNiIgQFRUd+OsEAiE+Pj4oKCghIYFC+Ux7WCx22rRpysrK0tLSeDwei8XS6fTe3t7Gxsaqqqri4uK6ujoWi4XBYDQ0NGxtbZ2cnDQ0NNiiGCRz9+NsR13L3PKiRe8+U8hxiUVrbJYOVQ4sFqumpaGisba+vZlA7CFRyFQ6DQ6H8aB58AKC0nhxRUlZOTGpiQ3fA9HS0hIWFvb06dOEhAQymQyDwWRkZNTU1BQVFcXFxfn5+ZFIJJlMbmtra29vr6+v//TpEyhzLBY7Z86cJUuWODk5DTW/+WvO5uPjAxttAQBw+PBhe3v7Yci8qqqqrKysrq6ura2NSCQymUw0Gi0oKCguLi4vL6+mpga13YQA0TaEwaK5uXnfvn05X4BCoUDOBk99/Phx+vTpKioqnz59QiKRR44cOXz48ODvPEjmHjf0Y+5Hjx69ffsWDDIyNjb+3reKiopOnz4dFhZGo9E0NTWXLFmio6Oj/gUDO+rb29szMzMTExOTkpLS09OJRKKysvL+/fsdHBzAicgPmbsvZ5+dvspBxwIAgCcprz0rQgEAlmx7XE5MalLqZEpKyvnz5yMiIqhUqqampoODg5mZmb6+Ph6PH/iLbJmHh4cXFBSg0Wh7e/vB7xB/k7MBAHB2dq6oqIDBYH///fdYZHlBgADRNoQh4/Llyzt27Lh+/fqGDRv6fj59+vRNmzYtXLhQQEBAQkJiqLdlM/eJEycmNnP6a+aeNWtWQkIC6Pn85ob9x48fvb294+LiRERENm/evGLFimnTpg3vd4lE4osXL65evRobG4vD4Xx9/4+9M4+Hqo37/xljxr5LsnSn7pIlZGnPkuJupVDJmoiktIr2xd0qShEid1EoFYpKJULJ2mJXlrLLNpgZs/5eT9frOc/8KFnGUl3vv+Ysc851XXPOfK7luxy1sbHh5ubuQ7n/R7Mz/Ij0/xtng/3k7u4zH+5NZopYaf3zmz2EwB47JCTk8+fP4uLioM0HvcRbWFgYEREREBDw9etXHR2dn9pj/0izgSXEw4cPVVVV0R4tBAJlGzImlDs/Pz8gIIBVbGRlZWfNmvXo0aNBXxYod3Nz84MHDyZNGp3oHHQ6PT8/X1hYWFZWNj8/Hyg3elRYWPjhw4es8wHt7e3u7u43btyQkpI6dOiQhYUFL5t8lN+/f3/mzJmoqKgJEyZcuXJlyZIlQLk5OTmjo6PBOTQ6LbT0+fn3MUQahQPDcV7x/zT7NyYiImLPnj11dXXq6uqOjo7sanMikXjz5s1jx47V1tauW7fOx8dHUlJyQJoNgUDZhoxp5X737t3Fixd5eXkpFIqVldXt27cXLVqEZsIgf2OgdmHt7e1ubm737t3Lzc396SrycBAfH3/y5EkEQQQEBLS0tGg0Ghhno0RFRaFB1hITE21tbbu7uw8fPrxt27bhyP6Zl5fn6uqanp5uYmLi7+/Pzc1dXl6uoqLCwcFBo9O2pgc++pKLIMj/aLbSBhPV31yzGxsb7e3tHzx4sGDBgosXL6qrq7P9FkQi8dKlS8eOHePm5r58+TKwRoSaDfkDgbaOvxsuLi6zZs2aOnWqmZnZ9OnTb9++jcFgtmzZAo5mZmaKiYmpqKg4OTm9evWq/5cVEhIKDAyMi4sbFc1GEERKSgqY5nZ0dCQlJfXQbDAfDqzEPTw8jI2N1dTUPnz44ObmNkwZu2fOnJmcnOzn55eQkKCqqlpWViYvL0+hUChU6ta0P0uzU1NT1dTUnj17duXKlZSUlOHQbARBeHl59+3bl5+fr6qqamFhYW9v397eDjUbAmUb8jvg4OAQFxdHJpNbWlrk5eVv3rxpamqKqu/ChQvT0tIuX76cmZnp6+s7oCvPnTuXh4dnVDxbZs6c+fDhwwsXLqxateq7XYenT592dHSsWLECjMkSExOHNQMK8PlxcnLKzs4WFRWdO3duXFwcjUHflXr1UfX/aDYnB+efoNmhoaH6+vqioqK5ublOTk7D/WxMnjz52bNnnp6eoaGhUlJSoaGhULMhfxpwkvxPoaysjMFgTJs2DV0A7urqkpeXr6ysHGhiAwqFoqurGxISMlrr3AiC1NfXl5SUPH36FHWoxWKxBAKhuro6MjISxGMZMQgEgpWVVXx8/GwHoxpt0f8pTHXnow2npstO/r0fqrNnz7q7u69YsSI8PFxQUHAkb52QkGBjY9Pc3KyrqwtyZkPNhkDZhvwmUCgUY2PjR48eKSgoqKqqqqiobNiwgUAgGBsb19fXt7W1DSK1F2uWz9GtHYPB+Pr1a3p6up2dHQ8Pz5MnTzQ1NUe+GFQq1dHR8fr160LrNPWsjZj/5aUlpURFRQ0lP/fY1+x9+/bZ2dkFBASMSlpVEonk4uJy7do1GRmZxYsXQ82G/CHA/HG/PzExMY8ePbKzswsODsZgMBQKxdPT8+LFiwQC4d9//x3cH66lpSWCINra2qOu3GBW9syZM1xcXM+fP2dv+qb+g8PhgoODEQS5cePG6lWuxsHb/f39zczMBpGf+5cgNDTU3d3dzs7u6tWroxUOjIeH5+rVq6Aws2bNgpoNgbIN+U0QEhJCEERXVxdMj5eWlgYEBHBzc4eEhKBr3r+uchcUFOjo6FCp1GfPno2WZqMdiMDAwObmZntbO6XXr11dXefNm2dsbPz7KXdqaqqjo+OKFSsCAgJGN4QnBwdHQEBAU1OTq6ursrLywoUL4fsO+e2Bk+R/BPv377937563tzcPD8+6deswGExSUpKSkhKCIOnp6REREVVVVdLS0ps2bepPcjBWRne2vKOjQ1VVtb6+PiQkxNbWdiw0NYFAmD9/fktLS1JS0qRJk7KysoyNje/fv987U+QvSmNjo5qamqio6KtXr0Z4PbuPNp83b15LS8vbt28lJCTg+w75vYGW5H8EJ0+ezMnJ4eDgMDQ0RDWbRqM5OzsvXLiQSqX6+PicO3cuJyeHNVQLCHr10zG3j4+Pjo4OSHw0wri5uTU2Nm7evHmMaDaCIIKCgmfPnm1sbJw5c2ZVVZWWltatW7e+Gx7kF8Xe3r6hocHLy2uMaDZocy8vr4aGhh7xASGQ3xMm5I8BhO+OjIxkMpm1tbUg5OTJkydZz1mwYEFJSQm6+ebNGycnp7q6ur6vHB8f39LSQhxZMjMzMRjMihUrQCKpsQOFQlmxYgWCIMbGxl3fAAX+DR6hW7duIQiyatUqGo02pgpGo9FWrVoFEqrCNx3yewMnyf+sLpq2tjaZTH7y5ElQUJCHh4e4uHhDQwO6PEkmk8XExC5cuODg4AD2kEgkYWFhISGh4uLinyaBIJPJI/k4LVu2LCsr6/3796Nuzd6bysrKOXPmNDU1vX79WlVVFex8+fLlvHnz+pmfe2yioaFRUlLy4cOH4faJHwQVFRUzZsyQl5fPycmBLzsETpJDfgcwGMyLFy/Cw8NFRUXT0tIQBFmxYgWrSdHTp0+JRCKFQgGbDAbDycmJQqFYWlr+VLOBNXVlZeXIKHdRUVFKSsrBgwfHoGYjCDJp0qRXr16Ji4sfO3YM3RkZGWlhYYE27y9Henp6Xl7eoUOHxqBmIwgiJyd36NChvLy89PR0+LJDfud/cjja/jPR0tLKzs4+f/78rl270J3Nzc0+Pj67du0SFRVlMBgbN268cePGzp07vb29+3lZHR0dNTW1EcjyuWzZsrKyspKSkmGKXcoWAgMDnZ2dMzMzlZWV+5+fe8yiq6v78ePH0tJSdiVlYTtEInHatGl///13cnIyfMchcLQN+a1QUVFBECQ/P591p5iYmKen56A1G0GQuLi4jIwMDw+PYe0OFhUVJScnHzp0aCxrNoIgtra2MjIyaIJzHA5348YNDg4OU1PTX27MnZ6enpKScuTIkTGr2SBu+ZEjR1JSUgYUbx8CgaNtyC9AWVnZkiVLqqur//vvP+CBjTJozQag+bmHb8y9adOmp0+fVlRUjGUJAVy8eHH37t1FRUUTJ04Ee37RMffatWuTk5MrKyvHeJsTicRJkybp6urevn0bvuYQONqG/D5MnTr106dPvr6+165dMzMz8/LyKi8v/65m5+fnMxiM/l9ZSEgoMTERjLnpdDrbS04gEKKjox0dHce+ZgMHOTwef/PmTXTPrzjmbmpqio2NdXJyGvttzsvL6+joGBsb29TUBF9zCBxtQ35zUM2ePHmynZ2diIiIsLBwXV1dfn5+SEgIarxWXFx8+/ZtV1dXEH+tjzF3c3PzgwcP2Gs1FhcXt379+vz8fAUFhV+iVS0tLV+8ePHx40dW6z8w5l64cOHu3bvHfhWuXLni7OxcUFAAnAbHOIWFhUpKSv7+/mi+WggEyjbkt4LJZDY2NoqLi9vZ2YFxdlFREYFACA4OJhAIzc3NxcXFJBJp3759IFdYdXW1srIyDw/Pu3fv+ghK1d7e7ubmlpmZmZ6ezsbZciMjo9ra2vfv3/8qzRsTE2NiYpKTk9Ojn0GlUrFY7GglQh0QBgYGtbW1PSwhxjLKysrS0tJPnjyBbzfk9wPGJIcgGAzm2bNnZ8+eff/+PZgbnzZt2sKFC1GZWbZsGZFIrKiomDp1am1trb6+PplMDg8P7zuQpJCQUGBgIJlMxmAwA5pm7wMKhfLy5cs9e/awsfp0Op1IJP7InZpMJnNzcw/l+np6epycnKmpqT1kGyRxoVAoRCKRn59/zK5zNzc3p6am7t27l43X7Ojo4OHh6SNjLJVKHUpWsTVr1pw7d45EIo1xo0UIZBDAtW3I/2BhYeHg4KCtre3t7U2n06uqqnr45vLy8gLN1tPTq6qqio6OBoHAfgo3NzcXFxcHB0dLS8vQy1laWtrd3c2ujBFVVVX//PPP1q1bHRwctLS06uvrWY+SSCQ7O7vjx4/r6+sfOnTop3Fe++i+aGhoxMTE/Giq4+TJk2N5ndvPz49MJrOrzS9evKinp3fixAllZWU/P7/eJ1RUVFhZWXl6eg7lLgsXLiSTyZmZmfDVhkDZhvy2uLi4ODs7Nzc3f/nyhUKh/PXXXz1OyMrKGqhmo+Tn56upqVVWVg6xkCUlJRgMRkNDgy1VJpPJhoaGAQEBkZGRnZ2diYmJrEdDQ0NFRUVPnjzp4+Nz8uRJkCNy0CqSnZ39owWpw4cPAwu1jo6Okf/dq6qqYmNjaTTaj3oVAQEBbGxzEol07dq1s2fPenp6njx5ssfRyMjIa9euffnypY+BeH/Q0NDAYDBZWVnwvYb8fsBJcsj/sW7duubm5rt37yIIMmHCBNZDXl5ee/fuxWAwc+fOTUtLk5CQmDVr1oD+Rn18fIae5TM5OVlaWro/IdvAuO3evXtgFcDBwUFAQCAuLq6srAxBEHV1dT09PflvIAjy5csXIpE4Z84c1q/fvXsXBHlVUVGZMGHCo0ePdu7cObhiq6iodHZ2NjQ0fDenCLAtt7a2lpOTi4qKGuEsn4sWLSovL1dQULh48eKSJUt6i3pdXZ2MjEw/2/zWrVt1dXXfbXNTU9O//vrL3d0d9Aays7ONjIx6fH3t2rUcHBw7duwYYqVERUWlpaV/ocV4CASOtiGDRExMjIuLC4PB8PHx9dBscXHxx48fJycny8nJzZ8///r16wO6MsgVpq2tPZQxd0lJybRp0/p5spycXE1NjZubG41GA0vX8vLybm5uGAxGV1cXnNPU1LRhw4bZs2cHBAT0uPLnz5/5+fnB56lTpzY0NAy62KCn0scVgHLv2bPHzMzs+fPnI/mLT5kyBUSwMTAwMDY2Bn6AKJ8+fQLt1s+rzZ0798SJE3v27EHbfPr06cAWAfVcDw0N1dTUfP/+vZeXV8//I/ZZ58nLy4PCj1nq6uoyMjLgfw4EyjZkqLi4uPj6+lZUVLBq9sqVKysqKgwMDHA4nKOj45o1a/bs2TNQQ7OhK3d1dXXv2fs+8PT0nDJlSkJCAthMS0tbvXr1rl27UMv2cePGXb9+/f79+/b29j30kouLi0wmg88UCkVYWHjQTSolJYUgSN+r+zgcztXVNSYmZoSVOz4+Hs3CGRsbq6SkdODAga6uLnC0pqYGdID631UC7v7x8fFgUSAtLW3NmjWsbb5x48YnT55MnTp16dKlw+fJAjptY1mzHR0dd+3aBbIDQCBQtiFDVe4ZM2YgCHLhwgWg2dHR0ejQE0EQPj6+r1+/tra2DvTKaH7uwUXDaGlpERMT6//5vLy8e/bsSU1Nzc3NBV2Q/fv399bL2bNn6+npPX78mHX/uHHjCAQC+Pzly5ceqwYDAji498eoTUtL68aNG+vWrRvK4H5A4HC43bt3l5aWbty4kYODg0wmnzx5Ul5eHoSIAWnU+zlDDrC2tlZTU3v58mVeXh6CIGfOnDlw4EAPD0BxcXEnJ6eXL19+/fp1mOolKio6Kjng+0lVVdXXr18pFIqbm9uVK1e6u7vh3w4EyjZkSADZTkhIWLRoUY8wnAQCITY2VlxcfED/5qzK7e3tvX79+kHEUCORSANNfAmWVL28vGJiYlRVVdXV1dFDHz58iIuLQ4VZVlYWBJPJzs4Gi75gDrO8vLy+vv6ff/4ZdGMCN6SjR49aWFiAaYyKigqLb/TY/Pfff/X09F6+fGlmZobBYPT09MAV9PT0+thMTk7GfAOk0Oh787tXk5SUrKioyMjIAAv8NTU1lpaWCxYsAFZdA2pzTk7O6OhoOTm5c+fOxcTEqKurz5w5Ez169uxZEomEIEh9fb24uDgY5d+6dQvtIQFTwaHLmICAALjR2GTOnDlnz57F4/EUCiUkJGTXrl0jr9ydnZ0tLLD+BBAAlUp9/vw5q0tCdnb2qEe8hyZpkL7YsmVLfHx8D5fibdu2tbS0nDhxYtBBVCwtLQ0NDfF4/ECVm06nc3FxDXTUdfr0aQsLi8zMzBcvXvT42/L09Hz79m1VVZW8vPzGjRsRBElJSSkqKtLU1HRyctq8ebOHh8fHjx8vXLiwbt26QTcjKHPRN4BNVmdn5/379xEE6bHZ0tLCwcEhJycHVnmHIzps32P9Q4cOrV+/Hti0p6enf/z4ES1//5kyZcrp06c3bNgA2pz1OSktLbW0tJwxY0Z2dnZYWBi48tatW+Xl5TU0NAoLC8PCwpKTk7m5ubFYrLW1NVh6H1ybj3DrDZQFCxacPXvWzc2NQqG8efNm165d3t7eA23qofDu3bvAwMCwsDCQwxeLxVZXV3d0dMyePdvExATs+ZP//d68ebNv376UlBQvLy/UAtfa2rqrq6uqqgrKNmSMsnr16pMnT7a1taEru1FRUTdu3JCQkNi7dy+Dwbhx40Z2dvbSpUuXL18+oCuPGzcOjKsGtLrJycn5I1elPjAzM3N3d8dgMD0MuefOnZuZmdne3s7Ly4sG9/jw4cOaNWtACe/fv9/W1iYkJDTEKG+D1o+cnJyOjo6BTjAMGj8/PxcXF3Rz7969IiIi+/fvH0T5TU1N3dzcEATp0ebBwcEgwgz6RNXU1GhoaIARuaKi4qlvDL0uNBptKAFbRky5raysQkJCgEhcu3ZtJAOyzp8/f8qUKWFhYfz8/HFxceAhLygo0NXVDQsLU1RUfPLkiYyMzB/77zd79uzz589ramqy7rS2tiYSiaNcMiYE0idZWVnr169PSEhITEw8dOgQPz+/lJRUampqdnY2SCM9Z84cBwcHZ2fn1tbWgV68tbX1woULXV1dxP4hICAAMpQMiNjYWG1tbU5OTi8vr77P7O7ufvjwIZ3dAGO0qKgo4kBob283MjJauXJld3f3cP/K9fX1YG0b/C1IS0uHh4czmUxgX7Z///6BXvDBgwc6OjqcnJze3t59n5ment7c3Mz2Gu3fv19QUHDsv19kMtnf33/u3LkaGhrAu3Ik7w7WESQlJVl31tXVLV68GEGQyZMnNzQ0/Mn/fmC2ycvLa0yVCq5tQ36Cpqbm1atXv3z5kpiYSCKR/P39S0tLhYSE9PT0ysrKbty48fr166CgoEOHDtna2g7UthyDwdy6dav/+bnFxMR6xDL7Ke3t7Xv37g0PD9+5c+fhw4erq6v7Hs0vXbqU7W0IZJvVpq8/jEyuMCqVev78eXl5+dDQUAaDwc3NvX///pKSEgsLC9DgCII0NjYO6JpVVVW7d+8ODw/fvXv3oUOHvnz50sfJ8+bNG5yRRN80NjYOyHpxtODi4tqyZcu5c+fAOvfevXvT09N7nDN8y97f9biTlJSMiYlZuHBheXm5tbX1n/zvN0yph4daKphKBDK4yb1Xr17duXPHxMSEdV50w4YNYIZ5QLLa//zcBgYGeDz+6dOn/b/+tm3bpk6dun37dgKBoKiouGDBgsjIyBFurrS0NB0dndevX6uqqg5CVoc1P7eBgQHankZGRt7e3pMnT0aPPn/+fPHixfr6+s+ePevnBSsqKsAauaurK4FAmD59+sKFC6Oioka4zRcvXgwi2P8q71R6evrevXspFAoejz937tz8+fPB/pMnT8bGxp44ccLAwIDtN6VQKFxcXJKSkiBIDitkMnnixIlfv34tLCycPn06giC1tbXh4eE1NTWcnJyGhoagPGQy+ejRo01NTeLi4qamphoaGufOnSstLcVgMCtWrDA2Nu7s7PTy8mpubvb09CSTyffv3+fh4Vm2bBlIFqyurr558+Y+OlgEAuH8+fPc3NxdXV3i4uJoKB4qlRoQENDa2trd3Y3FYg8cOADMAmg02pMnT5qamtauXfvff/9lZWWJiIg4ODgoKCjk5uZeu3aNyWRu3LgRTH0zGIz09PSoqCgfHx8/P7/ExEQZGZm9e/dOnToV3KW8vHzKlCleXl5opr6srKzbt2+fO3cORGJAqxMeHv7q1auJEyfu37+ftTpRUVEfPnyora1VVlbW0tL666+/hIWFgSUmnCSHjBxgwGphYdFjv7q6+o4dOwZxwba2tlmzZm3fvv2ns+WbNm2SkZHp/+z006dPBQQECAQC2PT19QWpP+kjCwhNU15eThwUwzpbDmy+FBQUnjx50vsoMHSXkZHp59WoVCqwS+/s7AR7QODxhw8fjvBTKiMjY2Nj82u9WWlpab1ny9etW6ehoeHk5DQcdwTj+B6T5CigUx4UFMRkMlNSUuTk5IqKisBnPj4+BwcHcBrwUDh48CDYJBAIkpKSM2fORK8TGBh4/Pjx1tbWrVu3gh6VlZVVYGAgiJG8evXqPkq4cuXKqKgoJpPZ0NCgqqqK7t+0adPKlSvB53/++cfa2prJZHZ0dHh4eHBwcCxYsMDGxiYwMBDYCsjJyfn7+2/bti00NFRdXV1UVLSpqYnJZN66dQvEgXB0dPTx8XFzc+Ph4REREUlOTgZXBhF7wCQ5jUa7fv36+PHjubm5wQIfa3W8vb19fX35+flZq3PkyBFjY2NQ+AkTJvDx8dnZ2T1//nyIvxqUbciAycnJAY4QrDuzs7MxGIybm9vgrokqd0dHRx8CFhYWhsFgmpqa+iOWjx49EhIS4ubmzsjIoNPpFArF2NgYQRBBQcHDhw+PpGzv2bOHn5+//0v4I6ncVVVVMTExVCr1u0cZDMaECRMwGEx/lp+JRCKIVyokJJSZmQn+6cDsi6CgYGpq6og9os3NzRgM5ty5c7/cy9Vbuc+cOQM2gf3mSMo2sE88evRoV1fXpEmTjhw5gh46f/48giDAAILJZKqoqMydOxc96u7ujsPhGhsbwaaFhUV9fT2TyaTT6ZycnLq6ugwGg8lkFhQUgMUjsPndxw+Hw0VERIBN1jVmJSUlR0dH8NnV1VVcXBw9NGnSJA0NDQqFAjYXLVqEIEhgYCBqSwH67mATSO/nz5/BZmxsLPDYrKqq6iHbACsrKyDbvavDZDLXrl2LVqe9vR2Hw/n5+YFDhw8fxmAwNTU1cG0bMgrIycnh8XhWZ9zu7u4tW7Ywmcxly5YhCHLlypWkpKQBXVNISCgxMTEjI6PvjCPy8vJov6E/078tLS1dXV1aWloIgmCx2Lt379Lp9NbW1iNHjoxki6Wmpmpqag5lnQysc4uLi/e9Nj8IJk6caGRk9KPUHRgMBozz+tPmPDw8MTExoBPG2ubgL2zBggUj1uA5OTlMJhOU4ddi/vz5Pda5gesRhUJ59+7dCBcGmEzz8fE9ffq0srJSTU0NPWRlZYXFYoHzGBitZmRkAM0DM9g0Gg0cBYYR48ePB0vpnJycEhIS4F0A4YQ7Ozt/5DKOwWBmzJixceNGHx8fKpWKzlQjCJKZmXnhwgWwApWbm9vW1sZqoTJ+/HjUjwA8eGhsXVASNGQhcHIDji0IgqxatUpOTo5EIoEAy+fe7gAAQCtJREFUTd99E1ktA1irA6Igo9Wprq6mUqlokCVNTU3QoWSDRQIUIchAERER2bBhQ1FREdjs6uoyMzPLysqytLTU0dEBQVH09fVdXV0Hodz6+vo/emHAe87FxZWamvoLNVd7e3tOTg4Y6A8F0HOXkpJiV/LyfrJ161Zubu5fq81TU1O5ubkHlO1mzCo3mUwG0jLyeUhLS0sRBFFTUysuLkaD/QHGjRs3YcKEkpISsGlpacnHx2djY9Pc3NzW1lZQULB06dLQ0FAEQUJCQkBEhO+qMuvm2rVrJ/0vqNtVRETEX3/9tWvXLkVFRVZLBV5e3tjYWAcHh66urh4+Wj3o4T8JbtqHHymw7RhECMgeNZo6daq0tDTotoJF+mnTpvVIug9lGzJyXL58OTAw8Pr16xcuXFBRUYmPj3d0dATup3FxcR4eHpycnNLS0nFxcb1NXfpW7sDAQAsLix+llMDj8dra2j/KXT02efHiBY1GY1e+aiaTSaFQIiIiRiw/t5iYmLa2Nsil9qtw7949bW1tEJzuV1fu48ePgxHeCMt2Wlra69evJ06cqKurKyEhAYaPPd5WsB8sgpibm7e3t1+/ft3f33/r1q1OTk75+fmvX79OTk4G09Q/xdXV1fd/+ffff9Ge+rt3706cOFFXV2dgYHDlyhWwf+/evX5+fpcuXTI0NGSvvTcIyI9apQ2ln33//v3W1lYLC4uQkJDHjx/HxsYOMSMtlG3I4OHj4/P19ZWRkSGTyTt37iwsLAwICMDj8XFxcWZmZuPHj8/LyzMyMvr8+bOmpibodA8ILi6usrKy786W29vbFxQUoGP9sc+dO3ckJSX7n0Trp9BotKioqGH1CuuBsbFxQUFBYWHhL9HghYWFBQUFQ5/eGBVOnjy5fv36s2fPUqnUw4cPA+UGKW2Ki4tHLCP7s2fPgNb6+/tzcnLOmTOHg4Pj0aNHrN3Huro61oUPR0dHsIT84sWL5cuXL1u2TFZWdtOmTQYGBv2U1fnz56/6XwwNDUGcotDQUC4uroMHD6alpWGxWGdn5/b29srKSi8vL3Nzc25ublAYdlW8u7u7pKRk9uzZfY/g+/8/tm3btvPnz5uamoaFhQGDfCjbkNFEX1/f3d3dxcUFaBKq2S9evFBWVpaXl3dxcbG1tQV5GwdKQUHBd3OF6ejoACuVX6KJmpub79+/7+DgwMaUlFgsFvXnHpn/cVNTUzwe/6u0eUREBB6PNzU1/eVeqO7u7tjY2I8fP96+fXvPnj1HjhxhfWwYDAaIls9GwCosmUxGV15qa2uPHj26fPlyWVnZW7dugeiHCgoKTk5OMTExaHcZBLpnTcwDzN1BThoMBoPFYu3t7SsqKmxtbVnFnkajofdCg8b/KO4Yk8kMCgoCQfrU1NSUvyEoKAhyuz18+LC5ufnNmzepqak0Gq2urg6sHFOpVNa4fmDCD11UBtPjPQL/gbQ3IFCghITE06dPQYcA9IypVCp6JplMplAooAo9qgOOotWh0WgrV67EYrHl5eWVlZUfP35kvc5Q59wgkKFAJBLfvXt38+ZNPB4vKyv78eNH9FBjY6OSkpKsrOzgrhwWFiYuLl5YWNjDrNrc3FxMTKyjo4M+5vH29sZgMMXFxUR2A2zLxcTEnj17NgK/spmZmbi4eFdX1xh/GoF3r5mZ2S/6Nj158sTJyQkYk/fmzJkzbLzX48ePV65cCYRgzpw5enp6mpqaioqKNjY2vb0BQbKyv//+OyAgICwszNDQsLCwsPc5enp6NBoN9RS1tbVFj3Z2dqLxbqOiolpbW7dv3w7u7uDg0NLS8l1/QmlpaWNj46ioqAMHDtjZ2RGJRGDCDWZThIWFvby8kpKSODg41NTU3r59e/nyZQ4ODnFx8bt375LJ5MDAQLAkv3DhwpycnE+fPm3atAmM7F+9esVkMkEZtm7dumPHDhsbGx0dnbq6OnD3vLw8kIlATU0tPj6eRCKFhoYCizYPD4/i4mLW6jCZzOfPn4PM+qA6dDq9h6s9FxfX4cOHh/7DQdmGsIFLly5hMBgZGRlWzY6LixMQEMBgMDdv3hz0lb+r3MBmLSAgYIxrNpFIlJGRMTQ0JA4P7e3tp06dEhERGQHlBm4zwIV3LBMUFARCl/zSLxSZTH7z5s2lS5esrKy0tLRQ2TYxMRndgnV0dKSnp5eXl/fRbepjcxBQqVQKhfLp0ycCgdDjUENDA+rl1dHRMbjrA9kmkUg1NTVfv35lr3Odh4dHZWVlTk5OUlLSw4cPw8LC5s+fX1lZOcQrwyhpEPZw+fJlBoOBdp8fPHhgZmZGoVDOnTvH6rYxCMLDw3ft2pWdnY06aSAIsmTJkq6urn56go0WCQkJK1euzMjIUFFRGb67PH/+3Nra+s6dO/r6+sNaHV1d3fb2dnQ6cWwyc+ZMISEhNEXpb0BHR0d2dnZWVlZmZmZlZWVCQgJqCAYZOsAOjkQigVlxNmJhYaGlpYWGdQNcu3ZNR0dn0HntAFC2IWwjOzsb2HEAzZ40aVJ4eLimpmZHR8fZs2djYmL+/vtvEAER2JsMSLl9fHxiY2PRqIGZmZl6enoZGRlssRwZJpYvX04mkx88eDCsCRAZDMaTJ0+uX7+Oes0OE+np6QsXLszIyBizjlWZmZlz5sxJTU1FI4P+ZjQ2NuLxeDR5GmTobN68+erVqwQCge159v7666+JEyf6+fnJy8tzcXGB5Lzl5eVDDxoBZRvCThITE8PCwqKioiZPnpyUlCQlJVVTU7N48eKGhoZ932AymZaWluvWrVu1atVAlbusrAxkpwYWJdbW1l++fHn9+jUbrb3YKKUuLi4hISFv3rxhi6fmT29HpVK5uLiG2+XJ3Nz848ePb968GZttPnv27L///vtXMZ2DjDrp6emWlpaVlZVHjx5dv349G909QMwfZ2fnzMxMLBYrJiampaXl7OwMAlJB2YaMLczMzKKjo1+9ejV37lwEQTZu3Pjff/89fvz43LlzYWFhEyZMiImJ8fX1HWgYNQBrfu7CwkJNTU1fX18QnnBM4efnt3379uXLl0dFRY2kwuFwOLY4hv6IvLw8dXX1y5cvj8E2v3z58rZt23Jzc1nj90EgfZCcnIx6UY4fP34QmX5+SkNDQ3V1taqqKhtfTCjbEDbT2Ni4fv16oMpv376dP3++pqZmcnJyRUXFwYMHg4KCrl+/fujQITS44ICg0+kgejbYtLKySkhIuHHjxkDTjg0rxcXFmpqaDAYjKyvr77//HuFbe3p6Ag+oYbrFqlWrnj17lpubyy4nVHZVXF1dffHixXFxcfAdhPzeQNmGDItyg3khZWXlgoKCu3fvAlktLy/fv39/SkoKjUZramoa3MXDw8OzsrJAls+Ojg5VVdX6+vqQkBBW99BRhEAgzJ8/v6WlJSkpCXiDjCTDneUT/LhqamqioqKvXr0aav5B9rX5vHnzWlpa3r59C821IL89MNwKhP1ISEiIiYlRKBQQVwukxgPBfk+ePInD4YYiscA228PDg8lkCggIPHjwgJeX18nJKS0tbdQrTqVSraysysrKHjx4MPKajWYcAZFYhimGmoSERFRUVGlpqaWlJdvCRwytzS0tLUtLS6OioqBmQ6BsQyCDB4/HW1tbg+DG6M7JkyenpaWhAYcHAZorDCi3kpJSYWGhgoLCypUr3759O4r1ZTAYjo6O8fHxYWFhSkpKo1WMEVDuhQsXBgYGPnz40MnJaYTzmvRucycnp4cPHwYGBrIr6jsEAmUb8ucSEhJiYmJy6NAhNJoxk8mcOHHiEOdveyi3hITEkydPxo0bp6+vz/boj/0f89nb21+/fl1GRmZUxtkjrNwbN248ffr0tWvXHBwcRmvMTSKRHBwcrl27dvr06R/lmIJAfj/g2jZkeKHT6VeuXImJieHj45s+fbqFhQW7Yo+0t7cbGBjMmTPn33//xWKxbW1turq61dXVkZGRIJDyiEEgEKysrOLj42VkZMTFxXE4nK+v77CGWOlnTwKsc9+/f5+NjuMNDQ0g9EdWVlZLS0tWVtaKFSvCw8NHeJ07ISEBpIk8ffo0iDEJgUDZhkDGOkC5m5ubHz9+LC0t3dHRYWJi8urVqyNHjnh4eAxrkBOU4uJiMzOzsrKysLCwSZMmbd++nUql4nA4Ozs7c3Nz1qT6o6LcKSkpy5cvH6ITGoFAQAN1VVVVofuPHz/e0NDg6Og4bdq06OjokbEtp9Ppp0+fPnz4MDc39+XLl+E4GwJlGwL5xZT7ypUrmzdvBpFGKBTKkSNHLl68qKurGxwcLCcnN3y3ZjAYQUFBe/bsERISevDgAVjPfv/+PVBuBEEWLFjg6ek5usoNUvfj8fhBKPfr169jY2OLi4tra2t7r2FjMJiEhIRx48alpqauW7eura3N29t78+bNw+qnXl5evmnTpuTk5E2bNnl5ecF4YRAo2xDIr0p3dzcqLYmJiba2tt3d3YcPH962bdtwxA7Ly8tzdXVNT083MTHx9/dnjYw4BpX769evR44cATnR+/kVCoWio6PDum7NyckJkh4CJk+efPv2bfC5sbHR3t7+wYMHCxYsuHjxorq6OturQCQSL126dOzYMTDI3rBhA3zmIX8m0CQN8pvAxcXl4uIC8nMbGBgUFRWtXbt2//798vLyV69e/VFC30Hw/v17kCSgoqIiNjY2LCysRzRjFRUVX19fXl5eYEV/8ODBUXeUEhISamlpGVB+bjwer62tPW7cuHnz5tnZ2V2+fHnOnDmsJ2hpaaGfJSQk4uLibt26VV5ervkNNrY5kUi8evXqtGnTPDw8jIyMCgsLoWZD4GgbAvkdCA8P37lz58uXL1Fb7qKiot27dycnJ4uLizs6Opqbmw86QjiRSHz8+HFAQEBSUpKgoODRo0dtbGz6yBrU2dl54sQJ4PzWe8xNo9GwWCwGgxmxxgEWamlpaVFRUQPNFUan0/fv3//8+XMEQXh4eEgkEoIg58+f19HR6V1rb2/vkJCQz58/jxs3zsnJaf369YqKioMrc2FhYWRkZEBAQFNTk46Ozr///vu75giBQKBsQ6By/58XVnFx8blz56Kjo6lUqpKSkrGxsaqq6vRv9G221tLSkpOTk5qampaWlpWVRSQSp0yZ4u7uvmbNmv5MvFOp1IMHD/ZW7qamJktLSxkZmaCgoJGxm0PL4+/vf/bs2QFl+QRrDUCzZ8yYIS8vHx0djcVinz9/zs/P/6NvvXr16sKFC7GxsRQKRUlJac2aNQsXLtTQ0BAVFe37dmib37t3r6CgAI/HGxkZ7dixY968efDxhkCgbEN+T+XunZ8biGVERMSjR48yMjK6u7vB1PGyZct0dHRmzpw5efJkQUHB7u7ur1+/5ufnZ2RkJCYm5uTkMJlMLi4ueXl5TU3NNWvW6OrqDsjkikwm79mzB+SoNjAwOHToEAcHx7t375ydnREECQsLmzx58uCG/p2dnSQSifYNBoOBwWCwWCwej+fh4eHn5wdT9N9lQPm58/Ly3N3dm5ubgWZfvnx5y5YthYWFysrK//3330+/3tTUFB0dHRMT8/LlSzKZjMFg1NXVDQ0N582bp6ioOH78eDweTyAQPn36VFFR8e7duydPnuTm5jKZTG5ubm1tbWNjY1NT0x6/459JV1dXXl5eTk6OsbExGnYQAmUbAvl9lLtHfm4Ak8mkUChEIrGkpKSoqKigoKCsrKy6uvrr168dHR0UCgWLxXJzc4uIiEyYMOGvv/6aPn26urq6lpYWDw8PFosdnGVZR0eHh4cHUG4bGxt7e3sCgbBixQomk3n06NElS5b05yJMJrOlpaW0tPTly5f5+fnJyckdHR00Go35DfQ0Dg4OTk5OAQEBXV1dZWVlbW3tadOmiYqKss7Gg/zc9vb2P1VuYHYHlqiBZtPp9MWLFzMYDDs7O9Dz6CckEgm4eufn53/69Kmmpqa5uZlEItHpdDweL/QNCQmJKVOmKCsra2lpzZo1a7iTkI59Ojs7gVTn5uaWlJTQ6XReXt7nz5+PuoUjBMo2BDJyys0KjUaj0+nffQUw38DhcGxZfu6h3HZ2dhs3biwvL587d66Xl1ff3yUQCK9evYqKioqNje3u7ubh4eHl5ZWVlZ0yZYqsrKywsDA/Pz8XFxeNRiMSiU1NTV++fPn06dOXL1+IRCKJROLi4jIyMlq3bt28efPQiChAufn4+AwNDfuv2Xx8fCkpKbt370YQ5MqVK6wmaRB2QSKRsrKycnNzc3JySkpKevjdLVy40MfHh133evDgQUpKCrCX5OHhMTQ01NPTA4e8vLy+fPkCPisrKzs4OPxCbVhaWhoTE/Pw4UMTExNXV1ewMycnx8LCIjg4eMGCBb/6Q8IJ3xPIb4mlpWVqampZWVkfss35jREojICAwPHjx9etW0ckEq9fvy4tLa2kpFReXv7TIOoJCQmbN28GSU7V1dVNTU1nzZqlqqranxXid+/eZWZmRkdHR31DVFQ0KCgIZOnn4OAAgk2j0b7bAt3d3e7u7kCzeXl5T58+zcfHxzqmH8Wg6783Li4u7969+9FR9jb7ypUrSSTSunXrEAR58+bNrFmz0EN79uy5cuWK8zd+Lc1GEASLxRYXF6emphoZGbFqeUlJSXFx8W8g23C0DfmdBy54PJ41P/fogvpz43C4uXPnvnz5EkGQu3fvSkpK9j4ZtYEXExNzcnIaig18UVFRREREQEBAc3PzxIkTd+7cidrAYzAYMpnMy8vL6s/Najc+Y8aM06dPjx8/HhyiUCgBAQGysrKrV6+GDxjbaWtrW7JkCfq4cnJyYrFYYIcB8PX1Za9pXktLi5iYGD8//3c9A+Xl5UNDQ39FY8D8/PwZM2Z4eXmBySGw4nD79m0TExMhIaFf/TmBftuQ3xZ0QZpAIIyictPp9Hfv3lVVVSkrK/v6+uJwOCqVCjQbQZCSkpIe57e3t2/ZskVTU7OsrCwgIKCysvL48eOD1mwEQRQUFI4fP15ZWRkQECAhIbFr1y5lZeWnT5+CJfNTp06xZhzpodmXL19GNRs4c2/fvh1q9jAhLCxsZmamrq5uZ2fn5+fn5ubGGt8Gj8ezPY4N8AX4kUeAlJSUtLT0r9iSvU0y+fn57ezsfgPNhrIN+f3BYrFbtmwBucJGpQCPHz92dnbesGHDsmXL7ty5M3fuXNajQD5REhMTFRQUbt++ffLkyZKSEgcHhz5swgf6R+bg4PDmzZusrCw5OTkjIyMrK6uOjo4DBw6gucJ6azbr3DhkBHBzcwsKCnJ2dm5sbDx9+jSdTufh4QELGTNnzuwjTsBwgMPhWNdQGhoawAJKZmZmTU3NT7/OZDLz8/Pz8vIo30D3k8nknJycV69e9R7ik0gksNZOIBBqa2vR/U1NTY2NjT1OZjAYTU1NCIJUVVVlZ2f/NNkdsOtkvSadTgdD89bW1t7nt7e35+TktLe3Q9mGQEaa0NBQNMvnyN9dSkoK+Ix1dHQkJSWh42xAdnY2MDsqKCiYO3eusbGxmprahw8f3NzchsmUeubMmcnJyX5+fgkJCaqqqmVlZSDLp4mJyb59+6BmjwXu3bt34sQJBoPBx8e3b98+MObu0eEbSSIiIvT19aWlpRMTE9XU1BYsWCAjI+Pi4tJHtnUSibRs2bKcnJyGhoYFCxZcvXoV7E9NTdXX129oaGhra1NTUzt+/DhYBcjKynJwcJgwYcLr16+NjY1VVFSkpaXd3NxaW1uBSceECROsra3BK1xdXb1jxw4ZGZlz587Z2NgAd48pU6bk5uZ+tzBlZWUHDhyQk5MLCgpCECQ+Pn7RokVSUlLZ2dnz589fvHjx+PHjIyMjWb9y5MiRHTt2FBQULFiwQEFBYcOGDS4uLmPl+WBCIH8AbW1ts2bN2r59e1dXF3HEqaurS0lJOXLkyJIlS2b2oqioKDIyEofDYbHYY8eOgVHvCFBQUKCoqIjD4SIjI5ubm2VkZISFhdXV1W1tbTs7O+EzM1pERkZqampqaGjo6up++PDhzp07Gt8oKytj+72AZEpKSn736JIlS6qrq5lMJp1ONzExQRDkwoULDAajvb191apVCILcuHHjR1e+cuXK4sWLwecPHz6cP38efJaXlzczMwOfHR0dEQS5ffs2k8kkEokeHh4IglhbW7e1tTGZzC1btmCx2M2bN9fW1jKZzPPnzyMIcunSJfBdYM45Y8aMz58/M5nM+Ph4Pj4+eXl5YMvy6dMnYA8PTqZSqcnJyQiCnDp1islkAg9GBEF27NjR3t5OpVLV1NTk5OTAyQwGw9zcnIuLi0KhMJnMnJwcBEH27t0LmmIsAEfbkD8CISGhxMTE0RpzCwkJaWlp7du3LzY29u7duydPntTT00MjmW/dutXc3NzQ0LCiouLgwYMjFjdt+vTp6enphoaG5ubmJiYmYmJiDAajtrb2/PnzcJw9Wty8eROIjZCQkL+/v7Ky8uvXrxEEGTdu3N9//z1qs7IcHGCRe/PmzRgMRlBQMCQkhI+Pr4+QOwQCIT09/dGjR8CFDI0QsH37djTXKpjzr6ioAJYowE7excUFrECvXLmSTqevXr16woQJCIIAJ4jExETwXVlZWbAT/bB169aSkpJXr171LgwnJydrXCMMBjN16lRQHUFBQU5OTh0dnaqqKjKZjCDIp0+fIiIiREREgH+8urr6X3/99enTp7GzzA9lG/InKjdY0xoVJCUldXR0PD09ExISbt26JSIikpSUZG1tHR0dPfL/C4KCgtHR0dbW1snJyU1NTatXr9bS0vL09IRPy2it5vj4+DCZTBERkYCAAGCHmJ2djSBIjzwu7KLvsAT/M7D7/2MCoueLi4srKiqWl5cjCPLo0aNQFoCVpbW1tYiIyPLly83NzSsrK1VVVcEXnZ2dDQ0N7927d+jQITBi/tGadI8MPcDZAQTs+y7a2togtesg2kFAQIDBYIC5B35+fiwW29jYWF9fD45KSEiArgOUbQhk1JRbW1ub1a9mtEYw7969e/HihY2NTXBw8GiFvsLhcMHBwTY2NnV1dYsWLQoPDz9w4EAfa5aQYSIoKMjPzw9BEDExscDAQDAcBI4AeDweTEoPx6/Pzc0NRpnfHTGLiIj08TaBYfHdu3cvsfDhwwfQPX3z5s2qVasiIyNnzJgBht3Af3r27NkIgpw4cUJDQ6PvF+S7PYkfnQ+Srw89BbukpOTt27cFBAT279+PIEhNTU1ra6u7u/vYeVRguBXIn6jcTCaTh4dndMWpoKDAyspq+fLlgYGBA4pzPhwdiMDAwObmZnt7eyUlJUVFRRDnlclk9j8/N2Qo+Pn5hYaGgsnwgIAA1qjjV65c6e7uHj4b8kmTJpWUlLS3t/dwjqLT6WQyuY/71tTUAAEODg7ufbSkpEReXj4mJubx48eWlpZWVlb19fV0On3RokW2trZr1qxhe0Vqamo4ODjQYf1QWLNmDR8fX3Bw8OHDh8XExDIyMvqI2gRH2xDISCi3sLAwFxcXBwcHyEE58nR0dKxcuXLq1KlhYWFjIcQ0DocLCwubOnXqihUrOjo6mExmUFAQqz83ZJioqqqytrYGmi0pKXn16tUemUIwGMyw+n2tXbuWyWQGBAT0eD7t7e11dXV7nIz6kRcWFpaWlqLBTHoD7BwRBPnnn38uXbrU2tpKJpOzsrJqamrQ/gHwKPvRihXY3/d6Fqtf+927d01MTOTk5L57Juij/2iw3mN/QkJCTEzMnTt3jh8/7urqOqY0G8o25I+msbFRSUmpsrJy5G/t7Ozc3t5+584dNE74qCMoKHjnzp329naQI8TKygr4c383fhaELZSXl2/evLmwsBA4CgYFBcnIyIxwGdzd3efPn79///6DBw+mp6eXlpZGRkYuW7aMTCYfP368x8n79u1rbW0tLy+3trY+c+aMsrJyH4K6ZcsWIKs1NTVr167l5+eXk5Pj5eX19PTctm3b5s2bQYc1KioKWIl//vwZuFODK5SVlYHY+OhgGkGQyspK1q72jRs3Xr16RSaT/fz8CgoK0IDt4LvV1dXomeA1R192cC/UF/zjx49o7KPu7m4rK6tr167Nmzdv5cqVa9eudXFxiYmJGTuPDQxuCvmj+W5+7uHm6dOnRkZGfn5+Tk5OY61BAgICtm7dGhsbu2TJEiqVam1tnZaWFhUV1f/83JB+UlpaunXrVhDoQ1ZWNiAggDUg3UhCp9MjIiKePHlSV1fHw8OjoKBgbW3dQ5JdXV19fX2zsrKCg4O5uLhWrVrV9yORnJxcWlr65csXbm7u8ePH29ragsgtr1+/DgsLk5OTc3BwYDKZPj4+WCx206ZN9fX1iYmJVCpVWFh4+fLlRCLx4cOHIBLwP//8IywsfO/eva6uLjAnsX79ejqdLiYmtnv3bllZ2by8PBUVFVtbWxCr/+3bt48fP+7u7sZgMJqamsuWLcvLy3v69CnQe01NTX5+fuAPxsPDs27duk+fPqWmpoKQRPb29iIiIh8/ftyxY4eoqGhdXR2RSOzq6qqoqDh27NiOHTugbEMgY0K5v5ufe5ig0WiKiop0Or2iomIMZmCkUqmTJk3i5OQsLCzk5OQkk8mnTp0KDg7uZ35uSD8pKipycXFpb2/HYDDa2tru7u5jPK04kG0SiTTCkdp+BIimvm/fvtOnT7P3yklJSXZ2dikpKayrFUQicc+ePf7+/mOh7nCSHPKnY2lp6e3tvXr16j58S9hIfHx8TU3Nnj17xmbWZBwOt3fv3pqamvj4eOBZe/DgweDgYDMzMxBADcIWwNATg8Hs3bv3/PnzY1yz/yhsbGyoVGqPmY/S0tI+VgTgaBsCGZ0x90/zc7NlLDtt2jRBQcG8vLxhil06dEgk0syZMwkEQmlpKehbgPzc9vb2qampMGUnuyguLi4tLR0mzy62s2rVqgcPHpSXl//I5muEycnJ0dTUtLGx6SPky+DYvHnz1atXp02btmjRoilTpnR3d5eVlU2fPn3fvn1syb4/dLBHjx6F7w8EoqKikpubGxQUtGHDhuF7OTMzM/39/c+cOcOa23gMDrh5eXkjIiIMDAyAhRQGg5kyZYq0tLSuru7IZCj/ExAXF5eXl/8linrmzJnAwEAmk5mSkjJhwoTp06ePbnkKCgo2b95cU1NTWFjY1NQ0Z84cNnaCly9fPm3atPj4+BcvXjx79oxOp/v5+S1btmyMaDYcbUMg/wfImOnr6zt8oT03bdr09OnTiooKduX1GiaIRKKcnNySJUtCQkL+v/8LDAaPx4+ulzlk5KmsrEQdsfj5+UfLdA6FQCCgBufAoI/tAQYYDEZDQ4OAgMCPsppC2YZAxgp0Oh1kIxiO/xpZWVk3N7fefjVjkMOHD589e/bLly89XNQwGExcXJyxsTGMxAKBjAqw1wyB/H9gv/Ho0SO2K3dycjKVSjU3N/8l2sHc3JxKpaakpPTu1ty6dQtGYoFA4GgbAhkrdHZ26uvrz5kz59SpU2xc0DIyMqqtrX3//v2v0g4qKipSUlKxsbE99gN/bgaDER0dDcfcEAgcbUMgoww/Pz/bs3xSKJSXL18aGxuPWC1+lB+i/xgbG798+bK9vb3HfhwOd+PGDRBDDY65IRAo2xDI6MP2/NylpaXd3d0LFy5kYyE/fPggLCy8ZcuWHvtJJJKdnd3x48f19fUfPnw46OsvXLiwu7v7uyEmoHJDIFC2IZCxq9xDz89dUlKCwWD6zlQ4IIhE4v79+79rkR4aGioqKnry5EkfHx8bG5tBp0vR0NDAYDBXr179bscFKjcEAmUbAhmjyq2mpjbEjCPJycnS0tIgZvJPqaioOP8Nb29vkMkjLi4O7EGLsW/fvv37939XUO/evaupqQkWp+l0em5u7uDKLCoqKi0tXV9fDzI1/Ui58Xj869ev4dMCgUDZhkDGinLr6+tfu3ZtiKPtadOm9fNkOTm5mpoaNzc3Go0mICCAIIi8vLybmxsGgwEpT+Li4kRERObOnUskEnt//fPnz6izqaio6FCCtoIy/0i20Yyfs2fPHt3k5RAIlG0IBPJ/yh0YGHju3LmhhBmprq7ukUe5bzw9PadMmZKQkAA209LSVq9evWvXLgRB6urqXF1dlZSUYmJiqFTqx48f169fD9IaAri4uFB7NDqdPpR4EaDMLS0tfZ/GZDIpFEpGRgacLYdAoGxDIGMFLi4uAoHAmsS3/zQ3N0tKSvb/fF5eXj8/v9TU1Hv37n39+vX06dO+vr7gEB6PDwkJGTdunKCgIAaD4eLi2rx5s4SEBPrdv//+G6h4d3d3c3Nz/0f5vQFl7uzs/OmZTCbT29sbrnNDIFC2IZAxxOvXr+fNmzeIdW4ymTzQmKlLliwxNTXduXPn7t27Dxw4ICUlBfaLiYkt+saCBQsYDIaQkNCiRYtwOFxERMSJEycQBHF0dPzvv/9aW1vDw8ONjY1BXPHBAcrcTyUODg4GFmpgPR4CgUDZhkBGGWNjYx8fHx0dHdaQyP2BTqcPIlPnrl27amtrX7x4YWVl1fuoh4eHiIhIcnLyixcvQEx1oJdLly41NDRUVFS8du1aQEDAUOqLZgDr58mhoaEgnjnM8gmBQNmGQMYEg8vPjcfjqVTqQO81a9YsaWlpPB7/XQ+08+fP19bW1tTU6OnpIQhSWFi4dOlScOj06dNFRUVpaWlDTIQAytz/rF/c3Ny3bt2ys7OD+bkhECjbEMgYUu6dO3caGRn1X7kFBAT6s0Lcg5iYGFVV1cbGRm9v777PpNFoq1atAvoNEBYWHnpkVlDmAWVFFBAQOHjwYHBwMFRuCGQ4gKlzIZBBKjcIMx4bGysmJvbT8yUkJOrr6wd0i7a2tsOHDz9+/Dg4ONjT03PDhg0TJ0784ZvMybl48WK2VxOUuUcSsJ+Cw+EMDQ2Dg4N37tyZl5eHxWLhAzNmqa2t9fT0zM/PFxcXnzt3rqKiYnl5+bZt2xAEycrKevToUUJCwvPnz79rmWFnZ9fV1RUVFfXnNNdYqDIcbUMgg1duTU1Na2vr/pwsKSn5+fPnAV3f3d3dyclJWlp6586dYmJiO3fuHPk6gjILCwsP+J+Fg8PQ0PDJkycwWdGAePTokaOj4yDWUwbNP//8k52dHR8fHxgYGBcXt2LFisLCQlTRw8PD37x58yPjhlevXqWnp/9RP9BYqDKUbQhk8Jw9e3b79u39mYueNGlSaWlp/6+clJQUGRlpa2sLBrtubm4xMTHx8fEjXEFQ5n4Gd+ut3MLCwjQaDUZi6SdMJtPGxiYoKGjWrFmpqakjcMfY2NgPHz6EhIQICAiMGzfu2bNnhoaG6NKPkZGRiYlJH18PDg4OCwv7vX+UgoKCsVZlKNsQyOAREhIyNjbG4XA/VW5dXd2ampqfxi0BJCYmmpqaUqlUMO6h0+lJSUlgfD8y/+aAlpaWmpoaSUnJ8ePHD0WK6urq7O3toT/3T8FgMHJycgiCvH37VkdHx9zc/MuXL8N6R5BpBoTeA5EJIiIiWJ/SvhOzLliwgNWc4vejubnZ1NR0rFUZyjYEMlSwWOzbt2+PHj3ax4SwvLw8k8nMycnpzwUNDAxaWlq6urq0tLTA9e/evUun01tbW9mbQ6xvcnJymEymg4PDEE3bBAQEGhsbTU1NaTQafFr6JiUl5cSJE3x8fEwmMzIyUkFB4cSJE0PPwdpHRwFBkCNHjqB7RERE1q9f/92TqVQq5X9Bd379+pX1HAaDAXwjq6qqsrOz++6rUSiU0tLSnJycrq6uHofodHppaSmBQOj9raamJuBYkZ+f39ra2uPuIBBvS0tLQUHBd9/Hqqqq73pvUiiUt2/flpeXo3sIBIKxsfHnz587OjpYS9ijyqC0VVVVnz596j2x1EdpoWxDIKOJgoJCcnJyH1k+p02bxsXFNZJj5aGTmprKxcXl7Ow8xOt0d3dXVVVNnjy5/45kfyzc3NwHDx4sLi42NzfHYDBdXV2HDx9WVFS8d+/ecNxu06ZNWCzWx8fHyMgIjY9rb2//o+dBQEDAxcXl8ePHDAYjIiJixYoVYHoAQZCIiAhzc3MZGZlz587Z2Nioq6traWlNmTLlu5lsGAzGsWPHDhw48O7duydPnsjIyKAzz1Qqdf/+/Vu2bHn69Kmpqen8+fPBNHVbW9vOnTtnzJghJSWVnZ09f/78xYsXjx8/PjIyEj0qKyv777//njp1SlNTc+bMmbNmzWJNf5eYmGhra+vv7z979uwVK1ag6osWpqioaP369YsXL/706ROCINHR0TU1NTQabefOnWfOnOldZdbSPnv2LCQkRE5O7vTp00Cn4+PjFy1a9N3SDhUmBAJhB21tbbNmzdq+fXtXVxfxeyxZskRJSYn+66CkpLRkyRLi0GhsbFRRUXF1dYVPCJPJ1NXVBSsmrJsIgrx48YLJZIKwOehmaGgo63+1vr7+hw8f2F6k+/fvA08BAQEBX19fBoPBevTw4cNg3Nnd3e3k5PT48WOwn8FgUCgUfX19bm5usIdOp9+6dQtBkBkzZnz+/JnJZMbHx/Px8cnLy1Op1B433bFjx+HDh9FNHR0dXl5eOp0OZncWLVoE9tNoNH19fWFh4draWiaTiUYn3LFjR3t7O5VKVVNTk5OTAyeDo1OmTAGtd+fOHQRB/vvvP3D09evXy5cvB7WrqKjAYrFmZma9CwNWo8TExEBh1q5dKyws/KMq9ygt+DoHB4ebmxs4387O7kelHQpQtiGQEVJu4DSSn5//S2h2fn4+giBRUVFQs0dLttFNdELb0tKSQqGwvVRVVVWrVq0Cd1m8eHFra2sP2f7y5YuVldW7d+96fNHOzo5Vw8rKykBKWXSPm5sbmPln/VZRUREnJ2dTUxO6p7i4OCoqislkvn//noOD49q1a+ih5ORkEK8XbAoJCYHIQmDT1dWVg4ODRCKBTW5u7rVr14LPYEba3d0dbWpnZ+fo/0VCQgKPx1MolN6F+e+//9LS0sDntWvXioiI/KjKvUsLbsTJyQk6LqdOneqjtIMGTpJDIGwDzc/t4eHRO66Zjo4OiBz+S9QlIiICh8Pp6OgM+gqdnZ2LFy/W09O7cOECfDYAtra2R48eBQ4C6ObRo0eBUdikSZPQzYKCgmPHjqFfVFNTS0lJCQsLG0SI3J8yceLE2NjYqKgoMTGxZ8+eGRkZ9TjB0NCQTCarqKgM9Mra2toIgrAuGAMV5+HhERcXZ7X8WLt2LYIgGRkZDAYDNZEDVxAQEMjKyvqR2QSDweju7v7uIZALAKw9v379WkpKSuh/uXnzZnx8PIPB6F0YGxub+fPn91j+/y69S4sgyPLly2k0Wl5e3oBKOyDgUhMEwn7lNjAwUFNTe/DgAesrLSgoaGpqGhAQ4O7uzsvLO5ZrQSQSAwICTE1NBxpohRUODg5LS8u9e/fCp4JVEvrYnDRp0pEjR9ra2o4cOeLv7w8s+MTFxU+cOLF58+ah5I39Lu3t7SQSCU1Mt3btWhUVFU1NzZcvX+bk5GhoaLCWc9++fX5+flu3bh3QLYDHfw+//8+fP4PpqN5vQVtbG4IgrKloMBiMjIwM2D9ompubu7u7BQUFe4ck6qMwP5Xt3qUFfSD00DABR9sQyLAo98qVK3tbYO3du7e5ufnmzZtjvAo3b95sbm4eiuJycHCIiopCzR4okZGR06ZN8/X1pdFonJyc27ZtKy0tdXJyYrtmIwhCIpFYbcgRBJk+fToIa9/e3s66f8uWLebm5rt3787IyBjQLWpqajg4OFRVVXv0ThgMRnR0dI8+RG1traKiIlhIYj1EJpMVFBSGUtNx48bx8fEBbzfW6ufl5X23MFVVVbW1tT+V7R+VFj0EZRsC+ZWU28fHZ+rUqT3+badPn66rq3vixAlWA9exBolEOnHihJ6e3vTp0wfx9Xv37kVFRXFycg49IvqfBpPJtLW1Be5J+vr6eXl5vr6+IiIiw3Q7SUnJqKioly9fsu7s6Ojg5eWdOXNmj5ODgoLk5OTWrFnDmm8eGF71OJPVze/u3bsmJiasptfAv5GXl9fd3f3Dhw9gT2tr69GjRyUkJBYtWjRlypTw8HDUI+Pr16/V1dVOTk4/arEf1Y61YBgMxsTEJDEx8erVq2APhULZsWOHrKxs78LExMQcOXIEJLDH4XAEAoH1LqxV7l1aBEHy8vK0tLTU1dUHVNoBPygQCGT4CAgIKCwsRK20cnJyMBjMqVOnxqwx2qlTpzAYTE5OziBs0K5fvz5hwoT79+/D331w7Ny5U1NT8+7duyNzO1VVVW5u7kuXLtXW1nZ3d/v7++NwuOvXr6MnbNq0CUGQsrIyJpP54cMHPB4vLy//6dMncBQEHgFm3qhJ2rhx49LT00kk0uXLl5WUlKqrq3vfNzAwkJOTE4fDycvL6+joKCsro0byqampoqKiHh4ewOp727ZtW7ZsAYfQqP7Jyclgz7p16xAEefPmDXpUT08PHAKhipYuXQo2KyoqZGVlEQTR1NRcv369goJCYmJij8JoaWmpqKhs374dLee///6LIIibm9upU6fq6+t7VxktLbA8LysrU1RUfPv2LTi6ZcuWH5V2KGBgxGAIZFgJDw/ftWtXdnb2uHHjwB4rK6ukpKS6urrhMC8aIlQqdcKECYsWLRpEBMekpCQHB4ekpKTBDdMhI8/FixeXLFmSmpqam5tbX18/efJke3t7JSUldOIEjEGFhISWLVtGIpFiY2OZTCYXF9fSpUvfvn0LfK6EhYVNTExkZGQ+fvw4derU3bt3y8rK5uXlqaio2Nra/igybmZm5p07d+rr6xUVFe3t7dG3A0GQ6urqS5cuNTQ0TJ48WUFBwczMDEGQrq6ugIAANCXdunXrPn36BAIh8PLyrl+//vbt2+CogoKCgYFBaGgoiNYiJiZmYWEhIiJSV1cH+tBycnJbtmxhnQMAhSESicuWLVu+fDnrjPfx48e7u7u3b98+fvz4qKioHlVGS1tZWSknJ8fHx+fg4ADMBVJSUoAZfO/S2tvbD2USBco2BDISyu3j44PmCqutrdXQ0Dh69Oj27dvHWlF9fX2PHj2ak5MjJSU1oC/m5uZu2LDhyZMnULP/WIBs79u37/Tp07A1hg+4tg2BDDs98nNLSUl5e3u7u7v3yFIw6hQUFLi7u3t7e0PNhkCgbEMgULn/T7nXrl1ramq6Zs2aHia7o0h7e/uaNWtMTU2BBy3UbMhAASHGBppXHjJQ4CQ5BDJyODo6FhcXJyQkcHBwtLa2Tp06df78+Q8ePBj1RW4qlbpy5cr09PSysrKBrrrNnj37+PHjxsbG8Pf9kzlz5syhQ4eoVCoOh3Nycjp27Njw2cBD2YayDYGM3IjWwMDAzs7O2toaQZC4uDhzc3Nra+vg4ODhcMztJwwGw97e/saNGxEREWiQy37CwcHR1NQEbHMgfzKVlZWskQFlZWX7TvoJgbINgfwyyo3FYjk5OcGrFxoaunXrVhsbm8DAwFEZc1OpVEdHx+vXr/v5+W3cuLH/X6RQKNzc3Hg8HvpnQyAjCVzbhkBGFCEhIX5+fhwOB9Iibdy40c/P78aNG6ampmjmxBGDQCCYmpreuHFjoJrd2dmpra2dmpoKNRsCgbIN+X/s3XtQVGUfB/CH3cV25NYEJZmCiw2gZIpcJ2RhwWlqjYAJ6YKjXbikTCSTMAGjA5qhEEiBiuDiOCA4QylqCcSlJSDUUjC5CREIiIBAyHV3Wfa8877PvDs7QCTIAtr380fjOXt69jzH4st5znOeHzz52Gx2REQErc/9wQcfZGVl5efn83i8L774YnINEjWpr693cHDIz8/PysqaaWbTGiGTV3gGAHXDIDnAwqDPue3t7emqZDU1Nb6+vjdv3nR2dj558uSE9SDnlkKhSElJ2bNnj56e3qVLl5TLa8wos1HXCwB32wD/IqpVPhmGsbCwqKioyMnJqaqqWrduXUxMjJrWLa+srHR2dg4MDBQKhTdv3kRmAyC2AWA2yU2rLNTV1Xl7e4eHh5uZmaWmpo6MjMzJd42MjKSmptrZ2dnY2DQ3N1+4cCE9PZ3WJEZmAzxGMEgOsMCUo+UHDx5ks9l0Z11d3WeffSYWiw0MDAICAt59991Z1y6sq6vLyso6ceJET0+PkZFRcHDwjh07uFzujBpRKBR8Pt/R0RGZDYDYBkBy/ze5e3t7y8rK9PT0lPvr6+tjY2O//fbbsbExCwsLDw8PR0dHKyurvyvPoNTX13f9+vXS0tKcnJyamhpNTU0vL6+QkJBZL2TGYrFqamqmLEcIAIhtgH9jctfW1m7cuHFyAeOBgQGxWCwSiX7++WepVKqhofHCCy+YmpoaGxvr6+tra2tzuVy5XD48PNzZ2Xnnzp2Ghoa7d+/SSk18Pt/X19fJyUlXV3d2JzY+Pq6pqYn3swEQ2wAwBalUOjY2phwtVyWTyRoaGm7fvi0Wi2/fvt3e3j4wMDAyMiKTydhsNpfL1dfXX7FihZmZmbOzs5mZmamp6SOuVJWdnR0UFFReXj6jmWsAgNgG+LcYGhqys7PLzc1VrUC8IGj97KNHj3p6euLvBWCRwExygMVFW1s7LCzM09OT1gpbKDdu3Ni1a1dRUREyez51dHTY29v39PSo7vz888+TkpJwcYDi4BIALDbbtm0jhLi7u1+4cEFfX39BMvu9997Ly8ub9fR1mJ2lS5e6u7tPmOdva2uLalqA2AZAciOzF53CwkI9PT3VojL19fW9vb2osQZKGCQHWLzJbW1t7ePjM3luufp0d3dv3rw5ISEBmb0g+vv7AwMDVRfI09fXj4mJ+eGHH9T91aWlpfv374+Li6urq6N7ysvL+/v7F+pSjIyMhIeHz/rpQG9vr7u7+7179xDbADB/YmJiJBJJeHj4vE0dFYvFAQEBeJ6tJpcuXXrqqadYLNbu3bvpHg8PDxaLpaure/nyZULI66+/TghR/et+9tlnbWxs1HpW33333bp16z766KPW1tbe3t7g4GAejycUCr28vBZqgsXVq1eFQmF0dLRUKp1dC0VFRRcvXszNzUVsA8D8oauf1tTUdHZ2zsePAxZr+/btWAdNfdzc3CIjIxmGcXV1pXucnZ0JIWfOnBEKhYQQDodDCJnwijyLpcYf1KGhoV5eXk5OTrW1tSdPnvzyyy/z8vLS0tKam5s7Ozvnam3dmbKzs5vpfTbDMLW1tcpNoVAoEoneeustxDYAzHdyFxYWGhsbq3W1k6Ghofv372NNlXmwZ88eCwuL/fv3KxSKwcHBxMTEnJwcNze3BTkZkUgUGxsrFAqTkpLobwyUQCC4deuWra3t8PDwQl2opUuXzuj4uLg41UcJ2traH374oeqag4htAJg/bDZbU1OzurpaHaPltEZIWloaMnseaGpqHjt27Pr16yKRaO/evb6+vm+++abqLaPyn2KxuLW1VX1nIpFIIiIiCCFRUVGTP+VwOCEhIapP2cfHxxsaGgYGBiYcqVAourq66GlXV1f/9ddfdL9cLm/9P7pToVDQzQmPzHt7e5uamqaZwyGVSrv+h74axzAM3bx//z49IDs7OywsTCqVDg4OyuVy5cXs6+ub0NQ/9qKvr+/atWvKXiC2AWD2goKClLXC5jazBQJBZGQkrvD84PP527ZtCw0NLSsrCwkJUf3o9OnT9CaYEPL111+XlZXR/er4jaqkpKSrq8vAwMDa2nrKA7y8vAQCASFkbGwsPDx8586dBQUFXl5eDg4ONTU1dAJdcHDwypUrDx48GB0dzePxNm/evGzZsrNnz9KAzMjIMDY2fu2112gKMgyTkZEhEAg6Ojpos1lZWUKhMD09XSQS8Xi8Q4cOjY+PTz6T0dHRpKQkQ0NDKysr2nJFRcX69etfeuklOo8yOztbLpd///33wcHBVVVVjY2NERERPB4vJSVF2chD9sLa2logECh7sRgxAPCY6O/vt7W1DQoKGh4eHpkL3d3dL7/88qeffoprO8/++OMPQsiOHTv+7oDx8XF7e3u6tvzWrVvj4+Pn/BxiY2MJITY2Nv94pJ+fn4uLC/2zXC53dXV9+umnOzo6GIZpaWkhhKxevfqnn35iGGZsbGzDhg08Hk/5727atMnQ0FAmk9HN9PT05ORkZbMaGholJSV0s7i4mMVihYaG0s2mpiZCyFdffUU36+vrCSFGRkbKlt3c3J577jn6Z/pUOyEhgW6OjY2JxWJCSHR09Cx6MTo6OqEXiwrutgEeG5Prc8/JfTbmoM2/b775hs/np6enV1RUTHlAS0vL8ePHly9ffuPGjaqqKnd3d3U8HKEvmE1/2K1bt0QiEV1IgD6v2bt3b39/Px1aNzY25nK5VlZWdG4dh8NxcnK6c+eORCJRDhF1dnZevHiRbp4/f97Hx0fZrIODA5/Ppx8JBAI+nx8fH9/W1jbFyPCkeXmT9yjHJDgcjomJyax7weVyJ/QCg+QAsMDJjcxeQFeuXPnll18KCwstLS137do15TtOJiYmGzZsoOXSCwsLJ4TQnKCL3tMbzenPVqFQrFq1SnWQX0dH59dff53yeB0dHYVCoeyUp6fn8uXLT5w4QQhpbm5etmyZtra2slkak0pbtmyRy+WVlZXquOaP0gvENgDMTXJP+SDwYcTFxSGzF4RMJvP3909KStLU1Dx69Ojvv/8uEAjoje+UfHx8jIyM1HEmr7zyCiHkzz//VJ13NhmdPjY4OKh6U7tixYqHXImFw+H4+/sXFRU1NTWlpaX5+fmpNjthORTa01mv8TLNDIBH7AViGwDmILmvXbtGH0/O+H97FuvAgQPI7AURGRlpYGBgZ2dH307esmVLRUUFndE9zywtLe3t7WUyWXx8/DSHrV27lhBSXV2tulMikTz8Onr+/v5sNjs5Obm6utrS0lK12dzcXNU7WjooTT+a0vQjTNPE9qP3ArENAI+a3GVlZVFRUTNai6O1tVUqlS5ZskR11WuYz8w+dOhQW1sbXT+npaWlsbGREJKYmHj48OH5P5/U1FQtLa3Dhw9fvXp18qenTp0qLy93cXFZvXp1RkaGMjJ7enra29s//vjjh0zW559/3tPTMyEh4Y033lDupM12dHScP39eubOystLGxmbjxo2Tm9XR0SGE3L17l94fy2Sy9vb20dFR+nX0pfMHDx4oj6evkylP5tF7sYhgSifA425oaKi5ufkf542fPn2axWIdOXIEVwyUrly5snLlyiVLluzbt6+8vLy7u7uysnLfvn0uLi7nzp2jx5SWlj7zzDNhYWEKhYJhmE8++WTnzp30I/r7h0AgUDb49ttv09VJVb+lpKRET09vaGhIdWdpaemLL75oaGjY3NzMMExjY+PatWurqqrop3l5eYSQ3bt3K49fv349fSZ94MCB999/f+vWrbSqqUQiGR0d1dXVNTc3P378eGZmJsMwdCa5v7+/6tc9Yi8WCY1F/TsFADwEsVjs7e3922+/0UlGUyouLvbz8zt27JiHhweuGEwYKz5z5kxBQUFbWxuXyzU1NfXx8dm0aZPqMe3t7YmJiV1dXSYmJmvWrKGROTw8nJycTB/Mr1mzxtvbu7i4uLS0lK5x5uvrq1pv9OzZs++8887kb8/MzPzxxx8NDQ21tLT8/PwMDQ0JIVVVVXl5eVKpVENDw9ramq78eu/evVOnTjU0NJiZmQUGBhYXF+vq6jo5ObHZbPpfeFZWlqOj4/bt2ysrKwsKCugz+1WrVrm6utISag/Ti1dfffXcuXN0NvvkXiwGiG2AJ0FGRsaRI0f+rsonrcWZn59vbm6OawXwWEO9bYAnwTT1uZHZAIhtAHg8khuZDfCEwSA5wBMlICCgvr7+8uXLLBaru7vb3Nw8MzMT9bMBnhh4AQzgiRITEyORSMLDwxmG0dLSioqKQmYD4G4bABavBw8epKSkBAUFoX42AGIbAAAAFgwGyQEAABDbAAAAgNgGAABAbAMAAABiGwAAABDbAAAAiG0AAABYpP4TAAD//yhxZvGxDJVuAAAAAElFTkSuQmCC;" vertex="1" parent="1">
          <mxGeometry x="250" y="130" width="658" height="394" as="geometry" />
        </mxCell>
        <mxCell id="ZgB4RjTYtI7Bv5KJBBch-4" value="&lt;font style=&quot;font-size: 12px&quot;&gt;$$\mbox{down-sampling}$$&lt;/font&gt;" style="rounded=0;whiteSpace=wrap;html=1;strokeColor=#FFFFFF;" vertex="1" parent="1">
          <mxGeometry x="740" y="390" width="150" height="40" as="geometry" />
        </mxCell>
        <mxCell id="ZgB4RjTYtI7Bv5KJBBch-5" value="&lt;font style=&quot;font-size: 12px&quot;&gt;$$\mbox{up-sampling}$$&lt;/font&gt;" style="rounded=0;whiteSpace=wrap;html=1;strokeColor=#FFFFFF;" vertex="1" parent="1">
          <mxGeometry x="740" y="430" width="130" height="20" as="geometry" />
        </mxCell>
        <mxCell id="ZgB4RjTYtI7Bv5KJBBch-6" value="&lt;font style=&quot;font-size: 12px&quot;&gt;$$\mbox{skip connection}$$&lt;/font&gt;" style="rounded=0;whiteSpace=wrap;html=1;strokeColor=#FFFFFF;" vertex="1" parent="1">
          <mxGeometry x="740" y="450" width="150" height="40" as="geometry" />
        </mxCell>
        <mxCell id="ZgB4RjTYtI7Bv5KJBBch-7" value="&lt;font style=&quot;font-size: 12px&quot;&gt;$$\mbox{convolution}$$&lt;/font&gt;" style="rounded=0;whiteSpace=wrap;html=1;strokeColor=#FFFFFF;" vertex="1" parent="1">
          <mxGeometry x="745" y="480" width="120" height="40" as="geometry" />
        </mxCell>
        <mxCell id="ZgB4RjTYtI7Bv5KJBBch-8" value="&lt;font style=&quot;font-size: 12px&quot;&gt;$$\mbox{backbone}$$&lt;/font&gt;" style="rounded=0;whiteSpace=wrap;html=1;strokeColor=#FFFFFF;rotation=45;" vertex="1" parent="1">
          <mxGeometry x="350" y="370" width="140" height="30" as="geometry" />
        </mxCell>
      </root>
    </mxGraphModel>
  </diagram>
</mxfile>
